<?xml version="1.0" encoding="UTF-8"?>
<!-- Created with Inkscape (http://www.inkscape.org/) -->
<svg width="75.577mm" height="102.93mm" version="1.1" viewBox="0 0 75.577 102.93" xmlns="http://www.w3.org/2000/svg" xmlns:cc="http://creativecommons.org/ns#" xmlns:dc="http://purl.org/dc/elements/1.1/" xmlns:rdf="http://www.w3.org/1999/02/22-rdf-syntax-ns#">
 <defs>
  <clipPath id="clipPath26">
   <path d="m169.25 390.48h214.24v-291.77h-214.24z"/>
  </clipPath>
  <clipPath id="clipPath30">
   <path d="m217.33 324.34h72.224v-37.693h-72.224z"/>
  </clipPath>
  <clipPath id="clipPath34">
   <path d="m212.84 235.61h54.308v-98.246h-54.308z"/>
  </clipPath>
  <clipPath id="clipPath38">
   <path d="m345.35 252.3h24.097v-40.102h-24.097z"/>
  </clipPath>
  <clipPath id="clipPath42">
   <path d="m308.05 233.74h24.096v-40.101h-24.096z"/>
  </clipPath>
 </defs>
 <metadata>
  <rdf:RDF>
   <cc:Work rdf:about="">
    <dc:format>image/svg+xml</dc:format>
    <dc:type rdf:resource="http://purl.org/dc/dcmitype/StillImage"/>
    <dc:title/>
   </cc:Work>
  </rdf:RDF>
 </metadata>
 <g transform="translate(-65.777 -92.833)">
  <g transform="matrix(.35278 0 0 -.35278 6.0691 230.59)">
   <g clip-path="url(#clipPath26)" opacity=".8">
    <g transform="translate(372.73 295.09)">
     <path d="m0 0c3.767-1.841 3.772-4.85 0-6.695l-72.348-35.348c-3.772-1.846-9.938-1.846-13.704-5e-3l-72.47 35.363c-3.767 1.84-3.772 4.849 0 6.695l72.348 35.353c3.772 1.845 9.937 1.845 13.704 5e-3z" fill="#2887bc"/>
    </g>
    <g transform="translate(382.38 287.01)">
     <path d="m0 0c-0.014 3.99-2.959 8.691-6.543 10.442l-79.891 39.043c-1.923 0.94-4.504 1.37-7.038 1.301v-7.918c2.534 0.07 5.115-0.36 7.038-1.3l68.951-33.651c3.584-1.75 3.588-4.613 0-6.369l-68.834-33.631c-3.589-1.756-9.455-1.756-13.039-5e-3l-68.951 33.646c-3.584 1.751-3.588 4.614 0 6.369l25.375 12.4-5.319 5.319-31.111-15.204c-3.584-1.751-6.53-6.452-6.539-10.442l-0.092-136.52c-0.014-3.99 2.907-8.686 6.495-10.432l80.026-39.048c3.583-1.751 9.455-1.751 13.038 0l80.026 39.048c3.589 1.746 6.51 6.442 6.5 10.432z" fill="#44aef2"/>
    </g>
    <g transform="translate(282.91 328.58)">
     <path d="m0 0c1.663 0.813 3.814 1.245 6 1.305v7.918c-2.186-0.06-4.337-0.491-6-1.301l-48.779-23.839 5.32-5.319z" fill="#44aef2"/>
    </g>
    <g transform="translate(282.91 328.58)">
     <path d="m0 0c1.663 0.813 3.814 1.245 6 1.305v7.918c-2.186-0.06-4.337-0.491-6-1.301l-48.779-23.839 5.32-5.319z" fill="#2887bc"/>
    </g>
    <g transform="translate(244.7 274.11)">
     <path d="m0 0 38.347-18.712c3.551-1.735 9.363-1.735 12.919 4e-3l44.843 21.91" fill="none" stroke="#282b34" stroke-miterlimit="10" stroke-width=".967"/>
    </g>
    <g transform="translate(382.38 287.01)">
     <path d="m0 0c-0.014 3.99-2.959 8.691-6.543 10.442l-22.403 10.949c-2.025-1.653-3.96-3.348-5.932-4.984l17.395-8.49c3.584-1.75 3.588-4.613 0-6.369l-68.834-33.631c-2.011-0.983-4.735-1.416-7.373-1.298v-153.92c2.603-0.1 5.278 0.329 7.256 1.296l80.026 39.048c3.589 1.746 6.51 6.442 6.5 10.432z" fill="#44aef2"/>
    </g>
    <g transform="translate(283.02 254.93)">
     <path d="m0 0-68.951 33.646c-3.584 1.75-3.588 4.614 0 6.369l34.128 16.676-5.288 5.336-39.895-19.497c-3.584-1.751-6.53-6.452-6.539-10.442l-0.092-136.52c-0.014-3.989 2.907-8.685 6.495-10.431l80.026-39.048c1.605-0.784 3.67-1.215 5.782-1.296v153.92c-2.072 0.092-4.09 0.522-5.666 1.293" fill="#44aef2"/>
    </g>
    <g transform="translate(283.02 254.93)">
     <path d="m0 0-68.951 33.646c-3.584 1.75-3.588 4.614 0 6.369l34.128 16.676-5.288 5.336-39.895-19.497c-3.584-1.751-6.53-6.452-6.539-10.442l-0.092-136.52c-0.014-3.989 2.907-8.685 6.495-10.431l80.026-39.048c1.605-0.784 3.67-1.215 5.782-1.296v153.92c-2.072 0.092-4.09 0.522-5.666 1.293" fill="#2887bc"/>
    </g>
    <g transform="translate(196.86 280.86)">
     <path d="m0 0 86.048-42.438c3.583-1.75 9.455-1.75 13.038 0l86.138 42.11" fill="none" stroke="#282b34" stroke-miterlimit="10" stroke-width=".967"/>
    </g>
    <g transform="translate(288.91 323.63)">
     <path d="m0 0 72.625-35.857 5.771 2.886v2.184l-72.03 35.6-6.366 1.076z" fill="#2887bc"/>
    </g>
    <g transform="translate(289.43 329.89)">
     <path d="m0 0c-2.365 0-4.73-0.438-6.526-1.317l-68.834-33.637c-3.589-1.754-3.584-4.618 0-6.369l68.95-33.645c1.791-0.875 4.151-1.313 6.513-1.313 2.365 0 4.73 0.439 6.526 1.318l68.834 33.63c3.589 1.756 3.584 4.62 0 6.37l-68.95 33.651c-1.791 0.875-4.152 1.312-6.513 1.312m0-0.967c2.29 0 4.508-0.443 6.088-1.215l68.951-33.65c1.364-0.667 2.147-1.51 2.147-2.315s-0.783-1.648-2.147-2.316l-68.835-33.632c-1.607-0.785-3.774-1.219-6.101-1.219-2.29 0-4.509 0.442-6.089 1.215l-68.95 33.645c-1.364 0.666-2.147 1.51-2.147 2.315s0.783 1.649 2.147 2.316l68.835 33.637c1.607 0.786 3.773 1.219 6.101 1.219" fill="#282b34"/>
    </g>
    <g clip-path="url(#clipPath30)" opacity=".5">
     <g transform="translate(218.04 286.65)">
      <path d="m0 0c-0.26 0-0.51 0.143-0.638 0.39-0.179 0.351-0.04 0.783 0.312 0.963l70.867 36.262c0.104 0.053 0.325 0.078 0.325 0.078v-0.724l0.642-0.308s-0.174-0.247-0.316-0.32l-70.867-36.263c-0.104-0.053-0.215-0.078-0.325-0.078" fill="#2887bc"/>
     </g>
    </g>
    <g transform="translate(268.22 209.13)">
     <path d="m0 0v-74.174l-56.934 29.653v74.189z" fill="#e6e9d7"/>
    </g>
    <g clip-path="url(#clipPath34)" opacity=".7">
     <g transform="translate(212.84 235.61)">
      <path d="m0 0 54.308-28.689-1.534-69.557-11.633 5.011s2.997 32.634 3.65 42.924c-2.768 2.185-6.118 4.522-8.334 7.633-6.702 9.408-11.384 19.233-11.384 19.233s-4.149-4.274-9.2-7.472c-5.052-3.198-9.131-3.386-9.131-3.386l4.65-41.36-11.392 4.614" fill="#e84658"/>
     </g>
    </g>
    <g transform="translate(211.28 238.8)">
     <path d="m0 0v-74.188l56.934-29.654v74.174zm2.861-4.717 51.212-26.686v-67.723l-51.212 26.673z" fill="#282b34"/>
    </g>
    <g transform="translate(212.6 206.34)">
     <path d="m0 0 54.308-28.371" fill="none" stroke="#282b34" stroke-miterlimit="10" stroke-width="1.431"/>
    </g>
    <g transform="translate(238.05 222.92)">
     <path d="m0 0v-71.85" fill="none" stroke="#282b34" stroke-miterlimit="10" stroke-width="1.431"/>
    </g>
    <g transform="translate(369.1 295.19)">
     <path d="m0 0c3.777-1.846 3.782-4.863 0-6.714l-72.555-35.448c-3.782-1.851-9.966-1.851-13.743-6e-3l-72.677 35.465c-3.777 1.845-3.782 4.863 0 6.713l72.555 35.454c3.782 1.85 9.965 1.85 13.743 5e-3z" fill="#1d5f8d"/>
    </g>
    <g transform="translate(382.77 287.08)">
     <path d="m0 0c-0.015 4.002-2.968 8.716-6.562 10.472l-80.118 39.154c-1.929 0.942-4.517 1.374-7.058 1.305v-7.941c2.541 0.071 5.129-0.361 7.058-1.303l69.147-33.748c3.594-1.754 3.599-4.626 0-6.386l-69.031-33.728c-3.599-1.761-9.482-1.761-13.076-5e-3l-69.147 33.742c-3.594 1.755-3.599 4.626 0 6.387l25.448 12.436-5.335 5.335-31.2-15.248c-3.594-1.756-6.547-6.47-6.557-10.472l-0.092-27.868c-0.015-4.001 7.442 5.199 11.041 3.448l75.726-30.226c3.594-1.755 99.858 22.777 99.848 26.778z" fill="#44aef2"/>
    </g>
    <g transform="translate(283.01 328.77)">
     <path d="m0 0c1.667 0.815 3.825 1.249 6.018 1.309v7.94c-2.193-0.06-4.351-0.491-6.018-1.305l-48.918-23.906 5.335-5.335z" fill="#44aef2"/>
    </g>
    <g transform="translate(283.01 328.77)">
     <path d="m0 0c1.667 0.815 3.825 1.249 6.018 1.309v7.94c-2.193-0.06-4.351-0.491-6.018-1.305l-48.918-23.906 5.335-5.335z" fill="#2887bc"/>
    </g>
    <g transform="translate(256.2 319.1)">
     <path d="m0 0c2.663 1.146 5.326 2.292 7.99 3.438 4.931 2.124 9.863 4.246 14.795 6.369 1.431 0.616 2.863 1.233 4.295 1.849 0.534 0.23 1.068 0.505 1.618 0.696 1.24 0.432 2.245 1.195 3.1 2.228 0.37 0.446 0.701 1.001 1.15 1.369 0.097-0.619 0.441-1.161 0.37-1.799-0.095-0.853-0.125-1.773-0.356-2.601-0.118-0.422-0.359-0.706-0.723-0.937-0.331-0.209-0.539-0.177-0.922-0.134-0.917 0.104-1.802-0.347-2.647-0.635-2.377-0.807-4.671-1.854-6.9-3.005-8.302-4.286-23.172-11.346-23.172-11.346z" fill="#44aef2"/>
    </g>
    <g transform="translate(289.56 330.09)">
     <path d="m0 0c-2.372 0-4.744-0.44-6.544-1.321l-69.031-33.733c-3.599-1.76-3.594-4.632 0-6.387l69.147-33.742c1.796-0.877 4.163-1.316 6.531-1.316 2.372 0 4.744 0.44 6.544 1.321l69.032 33.728c3.598 1.76 3.593 4.632 0 6.387l-69.148 33.747c-1.795 0.877-4.163 1.316-6.531 1.316m0-1.431c2.229 0 4.38-0.426 5.904-1.171l69.147-33.747c1.168-0.57 1.894-1.301 1.894-1.907s-0.726-1.338-1.895-1.909l-69.031-33.728c-1.527-0.747-3.684-1.175-5.916-1.175-2.228 0-4.38 0.426-5.904 1.171l-69.146 33.742c-1.169 0.57-1.895 1.301-1.895 1.907 0 0.605 0.726 1.338 1.895 1.909l69.031 33.733c1.527 0.747 3.684 1.175 5.916 1.175" fill="#282b34"/>
    </g>
    <g transform="translate(244.7 274.15)">
     <path d="m0 0 38.456-18.766c3.561-1.739 9.39-1.739 12.956 5e-3l44.971 21.972" fill="none" stroke="#282b34" stroke-miterlimit="10" stroke-width="1.431"/>
    </g>
    <g transform="translate(207.53 259.49)">
     <path d="m0 0c-3.599 1.751-11.298-4.276-11.283-0.275l0.092 27.869c9e-3 4.001 2.963 8.715 6.557 10.47l2.944 1.44 37.069 18.116 5.301-5.354-34.227-16.723c-3.599-1.761-3.594-4.632 0-6.388l69.148-33.742c1.581-0.77 3.608-1.202 5.684-1.295 1.135-0.053 2.289 0 3.395 0.151-1.809-1.528-2.769-5.069-2.6-10.932 0.272-9.23-82.08 16.663-82.08 16.663" fill="#44aef2"/>
    </g>
    <g transform="translate(294.27 221.4)">
     <path d="m0 0c0 4.709-5.619 11.912-5.89 21.142-0.17 5.864 1.392 9.695 3.202 11.222l4e-3 5e-3c1.465 0.199 2.847 0.582 3.992 1.145l69.031 33.727c3.599 1.761 3.594 4.632 0 6.388l-17.441 8.512c1.974 1.644 3.919 3.341 5.946 5l22.466-10.981c3.593-1.756 6.547-6.47 6.562-10.471l0.092-27.869c0.01-4.001-87.964-42.53-87.964-37.82" fill="#44aef2"/>
    </g>
    <g transform="translate(288.81 216.58)">
     <path d="m0 0v1.903l-83.034 36.589c-3.598 1.751-9.549 0.145-9.535 4.146l0.092 27.869c0.01 4.001 2.963 8.715 6.558 10.471l2.876 1.406 13.227 6.464 23.909 11.685 5.302-5.354-34.228-16.723c-3.598-1.761-3.593-4.632 0-6.388l69.148-33.742c1.581-0.77 3.827-1.232 5.684-1.295 0.922-0.03 2.757-0.112 5.461 0.576 0-1e-3 0.865 0.208 2.166 0.838 11.52 5.588 68.229 33.298 69.281 33.869 1.104 0.601 2.211 1.762 2.211 2.881 0 0.731-0.34 1.492-1.018 2.126-0.743 0.743-3.733 2.127-3.733 2.127l-67.254 32.832c-0.781 0.374-1.713 0.774-2.591 0.696-1.201-0.108-2.388 0.262-3.598 0.262-1.07 0-2.11-0.05-3.171-0.206-0.755-0.112-1.512-0.233-2.255-0.404-0.252-0.058-0.597-0.238-0.852-0.215 0.254 0.437 1.111 0.755 1.551 0.972 0.643 0.316 1.299 0.58 1.999 0.746 2.431 0.578 4.957 0.424 7.231-0.597 1.048-0.471 2.095-0.942 3.143-1.412 1.397-0.628 2.794-1.256 4.19-1.883 1.672-0.752 3.344-1.503 5.015-2.254 1.871-0.841 3.743-1.682 5.614-2.523 1.997-0.898 3.994-1.795 5.99-2.692 2.048-0.921 4.096-1.841 6.143-2.761 2.023-0.91 4.046-1.82 6.07-2.729 1.925-0.865 3.849-1.73 5.774-2.595 1.751-0.788 3.502-1.576 5.254-2.363 1.503-0.676 3.006-1.351 4.509-2.027 1.181-0.53 2.361-1.062 3.542-1.592 0.783-0.352 1.566-0.705 2.349-1.057 0.311-0.14 0.623-0.279 0.933-0.42 9.441-4.818 14.345-7.153 16.231-8.493 1.563-1.11 3.641-2.02 3.29-4.194-0.251-1.553-2.702-3.248-5.446-4.793-20.369-11.142-69.211-34.667-73.246-36.277-1.071-0.428-3.413-2.289-3.921-3.444-1.193-2.713-0.861-2.885-0.861-8.879z" fill="#2887bc"/>
    </g>
    <g transform="translate(241.5 312.48)">
     <path d="m0 0c-1.482-0.77-2.965-1.539-4.447-2.308-3.334-1.73-6.669-3.461-10.003-5.191-0.415-0.415-1.018-0.584-1.537-0.824-0.617-0.285-1.217-0.616-1.822-0.926-1.323-0.676-2.645-1.353-3.967-2.028-0.275 0-0.794-0.407-1.044-0.535-0.383-0.195-0.766-0.39-1.149-0.586-0.765-0.392-1.531-0.783-2.297-1.174-1.431-0.733-2.917-1.396-4.244-2.303-1.112-0.76-2.086-1.883-1.998-3.314 0.068-1.102 0.56-2.181 1.426-2.88 0.498-0.402 1.101-0.532 1.662-0.806 0.113-0.056 1.159-0.348 1.121-0.249-0.254 0.651-0.99 0.997-1.3 1.646-0.172 0.361-0.212 0.743-0.113 1.134 0.418 1.662 2.393 2.562 3.775 3.239 1.182 0.578 2.363 1.157 3.544 1.735l10.128 4.959c3.865 1.891 7.729 3.784 11.594 5.676 3.318 1.625 6.637 3.25 9.956 4.874 1.736 0.85 3.474 1.701 5.211 2.551 0.067 0.034 0.134 0.067 0.201 0.099-0.09 0.674 0.091 3.17 0 3.829-8.312-3.676-14.697-6.618-14.697-6.618" fill="#44aef2"/>
    </g>
    <g transform="translate(196.45 288.33)">
     <path d="m0 0c-0.111-1.944 0.75-3.486 3.625-4.782l82.302-39.406c1.772-0.866 4.101-1.304 6.438-1.317 2.337-0.012 4.666 0.451 6.438 1.317l83.651 40.268c2.876 1.295 3.853 2.898 3.642 4.804" fill="none" stroke="#282b34" stroke-miterlimit="10" stroke-width="1.431"/>
    </g>
    <g transform="translate(256.2 319.1)">
     <path d="m0 0c2.035 0.876 19.934 9.51 28.466 13.699 4.509 1.795 4.256 4.863 4.362 4.95 0.097-0.619 0.56-3.861 0.489-4.499-0.094-0.853-0.124-1.773-0.355-2.601-0.118-0.422-0.359-0.706-0.724-0.937-0.331-0.209-0.538-0.177-0.921-0.134-0.917 0.104-1.802-0.347-2.648-0.635-2.377-0.807-4.67-1.854-6.899-3.005-8.303-4.286-23.173-11.346-23.173-11.346z" fill="#44aef2"/>
    </g>
    <g transform="translate(289.56 330.09)">
     <path d="m0 0c-2.372 0-4.744-0.44-6.544-1.321l-69.031-33.733c-3.599-1.76-3.594-4.632 0-6.387l69.147-33.742c1.796-0.877 4.163-1.316 6.531-1.316 2.372 0 4.744 0.44 6.544 1.321l69.032 33.728c3.598 1.76 3.593 4.632 0 6.387l-69.148 33.747c-1.795 0.877-4.163 1.316-6.531 1.316m0-1.431c2.229 0 4.38-0.426 5.904-1.171l69.147-33.747c1.168-0.57 1.894-1.301 1.894-1.907s-0.726-1.338-1.895-1.909l-69.031-33.728c-1.527-0.747-3.684-1.175-5.916-1.175-2.228 0-4.38 0.426-5.904 1.171l-69.146 33.742c-1.169 0.57-1.895 1.301-1.895 1.907 0 0.605 0.726 1.338 1.895 1.909l69.031 33.733c1.527 0.747 3.684 1.175 5.916 1.175" fill="#282b34"/>
    </g>
    <g transform="translate(205.78 298.97)">
     <path d="m0 0 65.661 32.089c6.628 3.239 11.641 7.594 18.614 6.961 4.081 0.34 7.347-1.946 7.347-1.946s72.228-35.298 76.583-37.427c4.356-2.128 5.337-3.49 6.822-5.442 1.485-1.951 1.965-4.157 1.965-6.695 0-2.537-0.176-132.94-0.176-136.28 0-2.757-0.77-7.019-8.637-11.475l-46.076-22.665s-19.377-9.272-26.104-12.712c-6.726-3.439-8.596-3.938-12.495-3.938-3.898 0-6.953 1.652-6.953 1.652s-74 36.108-79.08 38.587c-5.081 2.479-6.74 7.494-6.74 10.266 0.013 4.476-0.183 133.99-0.174 136.46 8e-3 2.73 0.477 4.729 2.5 7.603s6.943 4.972 6.943 4.972" fill="none" stroke="#282b34" stroke-linecap="round" stroke-linejoin="round" stroke-miterlimit="10" stroke-width="1.431"/>
    </g>
    <g transform="translate(326.2 302.44)">
     <path d="m0 0c-0.521 0-1.041 0.104-1.465 0.312l-9.732 4.748c-0.674 0.329-1.075 0.914-1.075 1.564-1e-3 0.65 0.401 1.234 1.075 1.564l9.717 4.748c0.847 0.416 2.08 0.416 2.928 1e-3l9.733-4.749c0.673-0.33 1.076-0.915 1.076-1.565s-0.402-1.234-1.075-1.563l-9.717-4.748c-0.424-0.208-0.945-0.312-1.465-0.312" fill="#282b34"/>
    </g>
    <g transform="translate(326.2 302.44)">
     <path d="m0 0c-0.521 0-1.041 0.104-1.465 0.312l-9.732 4.748c-0.674 0.329-1.075 0.914-1.075 1.564-1e-3 0.65 0.401 1.234 1.075 1.564l9.717 4.748c0.847 0.416 2.08 0.416 2.928 1e-3l9.733-4.749c0.673-0.33 1.076-0.915 1.076-1.565s-0.402-1.234-1.075-1.563l-9.717-4.748c-0.424-0.208-0.945-0.312-1.465-0.312z" fill="none" stroke="#282b34" stroke-linecap="round" stroke-linejoin="round" stroke-miterlimit="10" stroke-width="2.861"/>
    </g>
    <g transform="translate(326.22 302.14)">
     <path d="m0 0c-0.067 1.55-0.252 2.712 0.236 3.2s-6.332 3.234-6.332 3.234l-1.947 1.144 8.304 2.762-0.464 1.695-2.996 0.326-2.527-1.592s-4.372-3.12-4.378-3.123c-0.451-0.323-1.188-0.279-1.419-0.92-0.296-0.821 0.079-2.107 0.726-2.674 0.45-0.396 1.524-0.873 1.41-1.611-0.06 0.018-0.114 0.02-0.178 0.051 1.448-0.673 2.897-1.346 4.345-2.02l3.002-0.472z" fill="#282b34"/>
    </g>
    <g transform="translate(326.22 302.14)">
     <path d="m0 0c-0.067 1.55-0.252 2.712 0.236 3.2s-6.332 3.234-6.332 3.234l-1.947 1.144 8.304 2.762-0.464 1.695-2.996 0.326-2.527-1.592s-4.372-3.12-4.378-3.123c-0.451-0.323-1.188-0.279-1.419-0.92-0.296-0.821 0.079-2.107 0.726-2.674 0.45-0.396 1.524-0.873 1.41-1.611-0.06 0.018-0.114 0.02-0.178 0.051 1.448-0.673 2.897-1.346 4.345-2.02l3.002-0.472z" fill="none" stroke="#282b34" stroke-linecap="round" stroke-linejoin="round" stroke-miterlimit="10" stroke-width="2.861"/>
    </g>
    <g transform="translate(340.07 293.86)">
     <path d="m0 0c0.66-0.322 0.661-0.849 0-1.172l-12.666-6.187c-0.66-0.324-1.739-0.324-2.398-1e-3l-12.687 6.19c-0.66 0.322-0.661 0.849 0 1.172l12.665 6.189c0.661 0.323 1.74 0.323 2.399 1e-3z" fill="#282b34"/>
    </g>
    <g transform="translate(340.07 293.86)">
     <path d="m0 0c0.66-0.322 0.661-0.849 0-1.172l-12.666-6.187c-0.66-0.324-1.739-0.324-2.398-1e-3l-12.687 6.19c-0.66 0.322-0.661 0.849 0 1.172l12.665 6.189c0.661 0.323 1.74 0.323 2.399 1e-3z" fill="none" stroke="#282b34" stroke-linecap="round" stroke-linejoin="round" stroke-miterlimit="10" stroke-width="2.861"/>
    </g>
    <g transform="translate(340.07 293.86)">
     <path d="m0 0c0.657-0.322 0.657-0.843 0-1.165l-12.66-6.188c-0.335-0.173-0.781-0.248-1.215-0.248v14.037c0.434 0 0.868-0.087 1.19-0.249z" fill="#282b34"/>
    </g>
    <g transform="translate(340.07 293.86)">
     <path d="m0 0c0.657-0.322 0.657-0.843 0-1.165l-12.66-6.188c-0.335-0.173-0.781-0.248-1.215-0.248v14.037c0.434 0 0.868-0.087 1.19-0.249z" fill="none" stroke="#282b34" stroke-linecap="round" stroke-linejoin="round" stroke-miterlimit="10" stroke-width="2.861"/>
    </g>
    <g transform="translate(311.82 293.28)">
     <path d="m 0,0 14.372,-7.018 c -0.434,0 -0.869,0.075 -1.191,0.236 l -12.685,6.2 C 0.161,-0.421 0,-0.21 0,0" fill="#282b34"/>
    </g>
    <g transform="translate(311.82 293.28)">
     <path d="m 0,0 14.372,-7.018 c -0.434,0 -0.869,0.075 -1.191,0.236 l -12.685,6.2 C 0.161,-0.421 0,-0.21 0,0 Z" fill="none" stroke="#282b34" stroke-linecap="round" stroke-linejoin="round" stroke-miterlimit="10" stroke-width="2.861"/>
    </g>
    <g transform="translate(326.19 300.3)">
     <path d="m0 0c-0.434 0-0.88-0.087-1.215-0.248l-12.66-6.188c-0.335-0.161-0.497-0.372-0.497-0.583l2.108 16.011s0.03 0.229 0.318 0.717c0.289 0.489 1.063 0.764 1.063 0.764l10.537 5.21-10.677-7.808 11.023-5.58z" fill="#282b34"/>
    </g>
    <g transform="translate(326.19 300.3)">
     <path d="m0 0c-0.434 0-0.88-0.087-1.215-0.248l-12.66-6.188c-0.335-0.161-0.497-0.372-0.497-0.583l2.108 16.011s0.03 0.229 0.318 0.717c0.289 0.489 1.063 0.764 1.063 0.764l10.537 5.21-10.677-7.808 11.023-5.58z" fill="none" stroke="#282b34" stroke-linecap="round" stroke-linejoin="round" stroke-miterlimit="10" stroke-width="2.861"/>
    </g>
    <g transform="translate(326.19 300.3)">
     <path d="m0 0v-14.036l-14.372 7.017c0 0.211 0.162 0.422 0.497 0.583l12.66 6.188c0.335 0.161 0.781 0.248 1.215 0.248" fill="#282b34"/>
    </g>
    <g transform="translate(326.19 300.3)">
     <path d="m0 0v-14.036l-14.372 7.017c0 0.211 0.162 0.422 0.497 0.583l12.66 6.188c0.335 0.161 0.781 0.248 1.215 0.248z" fill="none" stroke="#282b34" stroke-linecap="round" stroke-linejoin="round" stroke-miterlimit="10" stroke-width="2.861"/>
    </g>
    <g transform="translate(326.19 299.5)">
     <path d="m0 0v3.094l11.293 6.465 0.972-1e-3 2.102-15.795-3.022-0.498-3.524-0.312" fill="#282b34" stroke="#282b34" stroke-linecap="round" stroke-linejoin="round" stroke-miterlimit="10" stroke-width="2.861"/>
    </g>
    <g transform="translate(336.1 309.48)">
     <path d="m0 0c0.473-0.231 0.474-0.609 0-0.841l-9.087-4.44c-0.474-0.232-1.248-0.232-1.722 0l-9.102 4.441c-0.473 0.232-0.474 0.61 0 0.841l9.087 4.44c0.474 0.232 1.248 0.232 1.721 1e-3z" fill="#282b34"/>
    </g>
    <g transform="translate(336.1 309.48)">
     <path d="m0 0c0.473-0.231 0.474-0.609 0-0.841l-9.087-4.44c-0.474-0.232-1.248-0.232-1.722 0l-9.102 4.441c-0.473 0.232-0.474 0.61 0 0.841l9.087 4.44c0.474 0.232 1.248 0.232 1.721 1e-3z" fill="none" stroke="#282b34" stroke-linecap="round" stroke-linejoin="round" stroke-miterlimit="10" stroke-width="2.861"/>
    </g>
    <g transform="translate(332.03 317.15)">
     <path d="m0 0h1e-3z" fill="#282b34"/>
    </g>
    <g transform="translate(332.03 317.15)">
     <path d="m0 0h1e-3z" fill="none" stroke="#282b34" stroke-linecap="round" stroke-linejoin="round" stroke-miterlimit="10" stroke-width="2.861"/>
    </g>
    <g transform="translate(332.03 309.72)">
     <path d="m0 0h1e-3z" fill="#282b34"/>
    </g>
    <g transform="translate(332.03 309.72)">
     <path d="m0 0h1e-3z" fill="none" stroke="#282b34" stroke-linecap="round" stroke-linejoin="round" stroke-miterlimit="10" stroke-width="2.861"/>
    </g>
    <g transform="translate(326.2 313.92)">
     <path d="m0 0c-0.255 0-0.509 0.051-0.717 0.153l-4.762 2.324c-0.33 0.16-0.527 0.447-0.527 0.764 0 0.319 0.197 0.605 0.527 0.766l4.754 2.323c0.415 0.203 1.018 0.203 1.433 1e-3l4.764-2.324c0.329-0.161 0.526-0.447 0.526-0.766 0-0.318-0.196-0.604-0.526-0.765l-4.755-2.323c-0.208-0.102-0.463-0.153-0.717-0.153" fill="#282b34"/>
    </g>
    <g transform="translate(326.2 313.92)">
     <path d="m0 0c-0.255 0-0.509 0.051-0.717 0.153l-4.762 2.324c-0.33 0.16-0.527 0.447-0.527 0.764 0 0.319 0.197 0.605 0.527 0.766l4.754 2.323c0.415 0.203 1.018 0.203 1.433 1e-3l4.764-2.324c0.329-0.161 0.526-0.447 0.526-0.766 0-0.318-0.196-0.604-0.526-0.765l-4.755-2.323c-0.208-0.102-0.463-0.153-0.717-0.153z" fill="none" stroke="#282b34" stroke-linecap="round" stroke-linejoin="round" stroke-miterlimit="10" stroke-width="2.861"/>
    </g>
    <g transform="translate(326.2 313.77)">
     <path d="m0 0c-0.033 0.758-0.124 1.327 0.115 1.565 0.239 0.24-3.098 1.583-3.098 1.583l-0.953 0.56 4.063 1.352-0.226 0.83-1.467 0.159-1.236-0.779-2.142-1.529c-0.033-0.023-0.1-0.029-0.138-0.043-0.102-0.037-0.203-0.081-0.295-0.138-0.099-0.062-0.195-0.139-0.249-0.244-0.033-0.062-0.036-0.105-0.03-0.17 8e-3 -0.086-1e-3 -0.172 5e-3 -0.258 8e-3 -0.117 0.024-0.253 0.091-0.351 0.033-0.047 0.067-0.057 0.11-0.088 0.059-0.045 0.101-0.108 0.147-0.167 0.152-0.189 0.302-0.382 0.443-0.579 0.077-0.106 0.154-0.215 0.218-0.331 0.016-0.029 0.073-0.111 0.06-0.148-0.019-0.054-0.057-0.024-0.099-4e-3l2.126-0.99 1.47-0.23z" fill="#282b34"/>
    </g>
    <g transform="translate(326.2 313.77)">
     <path d="m0 0c-0.033 0.758-0.124 1.327 0.115 1.565 0.239 0.24-3.098 1.583-3.098 1.583l-0.953 0.56 4.063 1.352-0.226 0.83-1.467 0.159-1.236-0.779-2.142-1.529c-0.033-0.023-0.1-0.029-0.138-0.043-0.102-0.037-0.203-0.081-0.295-0.138-0.099-0.062-0.195-0.139-0.249-0.244-0.033-0.062-0.036-0.105-0.03-0.17 8e-3 -0.086-1e-3 -0.172 5e-3 -0.258 8e-3 -0.117 0.024-0.253 0.091-0.351 0.033-0.047 0.067-0.057 0.11-0.088 0.059-0.045 0.101-0.108 0.147-0.167 0.152-0.189 0.302-0.382 0.443-0.579 0.077-0.106 0.154-0.215 0.218-0.331 0.016-0.029 0.073-0.111 0.06-0.148-0.019-0.054-0.057-0.024-0.099-4e-3l2.126-0.99 1.47-0.23z" fill="none" stroke="#282b34" stroke-linecap="round" stroke-linejoin="round" stroke-miterlimit="10" stroke-width="2.861"/>
    </g>
    <g transform="translate(332.98 310.12)">
     <path d="m0 0c0.323-0.157 0.323-0.415 0-0.573l-6.198-3.029c-0.323-0.158-0.851-0.158-1.174 0l-6.208 3.03c-0.323 0.157-0.323 0.415 0 0.573l6.198 3.029c0.323 0.158 0.851 0.158 1.174 0z" fill="#282b34"/>
    </g>
    <g transform="translate(332.98 310.12)">
     <path d="m0 0c0.323-0.157 0.323-0.415 0-0.573l-6.198-3.029c-0.323-0.158-0.851-0.158-1.174 0l-6.208 3.03c-0.323 0.157-0.323 0.415 0 0.573l6.198 3.029c0.323 0.158 0.851 0.158 1.174 0z" fill="none" stroke="#282b34" stroke-linecap="round" stroke-linejoin="round" stroke-miterlimit="10" stroke-width="2.861"/>
    </g>
    <g transform="translate(332.98 310.12)">
     <path d="m0 0c0.322-0.158 0.322-0.413 0-0.57l-6.195-3.029c-0.164-0.085-0.383-0.121-0.595-0.121v6.869c0.212 0 0.425-0.043 0.582-0.122z" fill="#282b34"/>
    </g>
    <g transform="translate(332.98 310.12)">
     <path d="m0 0c0.322-0.158 0.322-0.413 0-0.57l-6.195-3.029c-0.164-0.085-0.383-0.121-0.595-0.121v6.869c0.212 0 0.425-0.043 0.582-0.122z" fill="none" stroke="#282b34" stroke-linecap="round" stroke-linejoin="round" stroke-miterlimit="10" stroke-width="2.861"/>
    </g>
    <g transform="translate(319.16 309.84)">
     <path d="m 0,0 7.033,-3.435 c -0.213,0 -0.425,0.037 -0.583,0.116 L 0.243,-0.285 C 0.079,-0.206 0,-0.104 0,0" fill="#282b34"/>
    </g>
    <g transform="translate(319.16 309.84)">
     <path d="m0 0 7.033-3.435c-0.213 0-0.425 0.037-0.583 0.116l-6.207 3.034c-0.164 0.079-0.243 0.181-0.243 0.285z" fill="none" stroke="#282b34" stroke-linecap="round" stroke-linejoin="round" stroke-miterlimit="10" stroke-width="2.861"/>
    </g>
    <g transform="translate(326.19 313.27)">
     <path d="m0 0c-0.212 0-0.431-0.043-0.595-0.122l-6.195-3.027c-0.164-0.08-0.243-0.183-0.243-0.286l1.031 7.432s0.015 0.111 0.156 0.351c0.141 0.239 0.52 0.374 0.52 0.374l4.701 2.292-4.77-3.564 5.395-2.73z" fill="#282b34"/>
    </g>
    <g transform="translate(326.19 313.27)">
     <path d="m0 0c-0.212 0-0.431-0.043-0.595-0.122l-6.195-3.027c-0.164-0.08-0.243-0.183-0.243-0.286l1.031 7.432s0.015 0.111 0.156 0.351c0.141 0.239 0.52 0.374 0.52 0.374l4.701 2.292-4.77-3.564 5.395-2.73z" fill="none" stroke="#282b34" stroke-linecap="round" stroke-linejoin="round" stroke-miterlimit="10" stroke-width="2.861"/>
    </g>
    <g transform="translate(326.19 313.27)">
     <path d="m0 0v-6.869l-7.033 3.434c0 0.103 0.079 0.206 0.243 0.286l6.195 3.027c0.164 0.079 0.383 0.122 0.595 0.122" fill="#282b34"/>
    </g>
    <g transform="translate(326.19 313.27)">
     <path d="m0 0v-6.869l-7.033 3.434c0 0.103 0.079 0.206 0.243 0.286l6.195 3.027c0.164 0.079 0.383 0.122 0.595 0.122z" fill="none" stroke="#282b34" stroke-linecap="round" stroke-linejoin="round" stroke-miterlimit="10" stroke-width="2.861"/>
    </g>
    <g transform="translate(326.19 312.88)">
     <path d="m0 0v1.11l5.526 3.164 0.476-1e-3 1.029-7.326-1.479-0.244-1.725-0.152" fill="#282b34" stroke="#282b34" stroke-linecap="round" stroke-linejoin="round" stroke-miterlimit="10" stroke-width="2.861"/>
    </g>
    <g transform="translate(329.05 317.48)">
     <path d="m0 0z" fill="#282b34"/>
    </g>
    <g transform="translate(329.05 317.48)">
     <path d="m0 0z" fill="none" stroke="#282b34" stroke-linecap="round" stroke-linejoin="round" stroke-miterlimit="10" stroke-width="2.861"/>
    </g>
    <g transform="translate(324.73 319.88)">
     <path d="m0 0c0.575 0.346 1.023 0.521 1.417 0.521-0.03-0.146-0.03-0.679-0.03-0.679l-0.274-0.176-0.342-0.12-0.478 0.095-0.279 0.151" fill="#282b34" stroke="#282b34" stroke-linecap="round" stroke-linejoin="round" stroke-miterlimit="10" stroke-width="2.861"/>
    </g>
    <g transform="translate(330.62 317.35)">
     <path d="m0 0c0.213-0.104 0.213-0.274 0-0.379l-4.089-1.997c-0.213-0.104-0.562-0.104-0.775-1e-3l-4.095 1.999c-0.213 0.104-0.214 0.274 0 0.378l4.088 1.999c0.214 0.104 0.562 0.104 0.775 0z" fill="#282b34"/>
    </g>
    <g transform="translate(330.62 317.35)">
     <path d="m0 0c0.213-0.104 0.213-0.274 0-0.379l-4.089-1.997c-0.213-0.104-0.562-0.104-0.775-1e-3l-4.095 1.999c-0.213 0.104-0.214 0.274 0 0.378l4.088 1.999c0.214 0.104 0.562 0.104 0.775 0z" fill="none" stroke="#282b34" stroke-linecap="round" stroke-linejoin="round" stroke-miterlimit="10" stroke-width="2.861"/>
    </g>
    <g transform="translate(326.2 302.44)">
     <path d="m0 0c-0.521 0-1.041 0.104-1.465 0.312l-9.732 4.748c-0.674 0.329-1.075 0.914-1.075 1.564-1e-3 0.65 0.401 1.234 1.075 1.564l9.717 4.748c0.847 0.416 2.08 0.416 2.928 1e-3l9.733-4.749c0.673-0.33 1.076-0.915 1.076-1.565s-0.402-1.234-1.075-1.563l-9.717-4.748c-0.424-0.208-0.945-0.312-1.465-0.312" fill="#44aef2"/>
    </g>
    <g transform="translate(326.22 302.14)">
     <path d="m0 0c-0.067 1.55-0.252 2.712 0.236 3.2s-6.332 3.234-6.332 3.234l-1.947 1.144 8.304 2.762-0.464 1.695-2.996 0.326-2.527-1.592s-4.372-3.12-4.378-3.123c-0.451-0.323-1.188-0.279-1.419-0.92-0.296-0.821 0.079-2.107 0.726-2.674 0.45-0.396 1.524-0.873 1.41-1.611-0.06 0.018-0.114 0.02-0.178 0.051 1.448-0.673 2.897-1.346 4.345-2.02l3.002-0.472z" fill="#2887bc"/>
    </g>
    <g transform="translate(340.07 293.86)">
     <path d="m0 0c0.66-0.322 0.661-0.849 0-1.172l-12.666-6.187c-0.66-0.324-1.739-0.324-2.398-1e-3l-12.687 6.19c-0.66 0.322-0.661 0.849 0 1.172l12.665 6.189c0.661 0.323 1.74 0.323 2.399 1e-3z" fill="#44aef2"/>
    </g>
    <g transform="translate(340.07 293.86)">
     <path d="m0 0c0.657-0.322 0.657-0.843 0-1.165l-12.66-6.188c-0.335-0.173-0.781-0.248-1.215-0.248v14.037c0.434 0 0.868-0.087 1.19-0.249z" fill="#44aef2"/>
    </g>
    <g transform="translate(311.82 293.28)">
     <path d="m 0,0 14.372,-7.018 c -0.434,0 -0.869,0.075 -1.191,0.236 l -12.685,6.2 C 0.161,-0.421 0,-0.21 0,0" fill="#2887bc"/>
    </g>
    <g transform="translate(326.19 300.3)">
     <path d="m0 0c-0.434 0-0.88-0.087-1.215-0.248l-12.66-6.188c-0.335-0.161-0.497-0.372-0.497-0.583l2.108 16.011s0.03 0.229 0.318 0.717c0.289 0.489 1.063 0.764 1.063 0.764l10.537 5.21-10.677-7.808 11.023-5.58z" fill="#2887bc"/>
    </g>
    <g transform="translate(326.19 300.3)">
     <path d="m0 0v-14.036l-14.372 7.017c0 0.211 0.162 0.422 0.497 0.583l12.66 6.188c0.335 0.161 0.781 0.248 1.215 0.248" fill="#2887bc"/>
    </g>
    <g transform="translate(326.19 299.5)">
     <path d="m0 0v3.094l11.293 6.465 0.972-1e-3 2.102-15.795-3.022-0.498-3.524-0.312" fill="#44aef2"/>
    </g>
    <g transform="translate(336.1 309.48)">
     <path d="m0 0c0.473-0.231 0.474-0.609 0-0.841l-9.087-4.44c-0.474-0.232-1.248-0.232-1.722 0l-9.102 4.441c-0.473 0.232-0.474 0.61 0 0.841l9.087 4.44c0.474 0.232 1.248 0.232 1.721 1e-3z" fill="#1d5f8d"/>
    </g>
    <g transform="translate(332.03 317.15)">
     <path d="m0 0h1e-3z" fill="#44aef2"/>
    </g>
    <g transform="translate(332.03 309.72)">
     <path d="m0 0h1e-3z" fill="#44aef2"/>
    </g>
    <g transform="translate(326.2 313.92)">
     <path d="m0 0c-0.255 0-0.509 0.051-0.717 0.153l-4.762 2.324c-0.33 0.16-0.527 0.447-0.527 0.764 0 0.319 0.197 0.605 0.527 0.766l4.754 2.323c0.415 0.203 1.018 0.203 1.433 1e-3l4.764-2.324c0.329-0.161 0.526-0.447 0.526-0.766 0-0.318-0.196-0.604-0.526-0.765l-4.755-2.323c-0.208-0.102-0.463-0.153-0.717-0.153" fill="#44aef2"/>
    </g>
    <g transform="translate(326.2 313.77)">
     <path d="m0 0c-0.033 0.758-0.124 1.327 0.115 1.565 0.239 0.24-3.098 1.583-3.098 1.583l-0.953 0.56 4.063 1.352-0.226 0.83-1.467 0.159-1.236-0.779-2.142-1.529c-0.033-0.023-0.1-0.029-0.138-0.043-0.102-0.037-0.203-0.081-0.295-0.138-0.099-0.062-0.195-0.139-0.249-0.244-0.033-0.062-0.036-0.105-0.03-0.17 8e-3 -0.086-1e-3 -0.172 5e-3 -0.258 8e-3 -0.117 0.024-0.253 0.091-0.351 0.033-0.047 0.067-0.057 0.11-0.088 0.059-0.045 0.101-0.108 0.147-0.167 0.152-0.189 0.302-0.382 0.443-0.579 0.077-0.106 0.154-0.215 0.218-0.331 0.016-0.029 0.073-0.111 0.06-0.148-0.019-0.054-0.057-0.024-0.099-4e-3l2.126-0.99 1.47-0.23z" fill="#2887bc"/>
    </g>
    <g transform="translate(332.98 310.12)">
     <path d="m0 0c0.323-0.157 0.323-0.415 0-0.573l-6.198-3.029c-0.323-0.158-0.851-0.158-1.174 0l-6.208 3.03c-0.323 0.157-0.323 0.415 0 0.573l6.198 3.029c0.323 0.158 0.851 0.158 1.174 0z" fill="#44aef2"/>
    </g>
    <g transform="translate(332.98 310.12)">
     <path d="m0 0c0.322-0.158 0.322-0.413 0-0.57l-6.195-3.029c-0.164-0.085-0.383-0.121-0.595-0.121v6.869c0.212 0 0.425-0.043 0.582-0.122z" fill="#44aef2"/>
    </g>
    <g transform="translate(319.16 309.84)">
     <path d="m 0,0 7.033,-3.435 c -0.213,0 -0.425,0.037 -0.583,0.116 L 0.243,-0.285 C 0.079,-0.206 0,-0.104 0,0" fill="#2887bc"/>
    </g>
    <g transform="translate(326.19 313.27)">
     <path d="m0 0c-0.212 0-0.431-0.043-0.595-0.122l-6.195-3.027c-0.164-0.08-0.243-0.183-0.243-0.286l1.031 7.432s0.015 0.111 0.156 0.351c0.141 0.239 0.52 0.374 0.52 0.374l4.701 2.292-4.77-3.564 5.395-2.73z" fill="#2887bc"/>
    </g>
    <g transform="translate(326.19 313.27)">
     <path d="m0 0v-6.869l-7.033 3.434c0 0.103 0.079 0.206 0.243 0.286l6.195 3.027c0.164 0.079 0.383 0.122 0.595 0.122" fill="#2887bc"/>
    </g>
    <g transform="translate(326.19 312.88)">
     <path d="m0 0v1.11l5.526 3.164 0.476-1e-3 1.029-7.326-1.479-0.244-1.725-0.152" fill="#44aef2"/>
    </g>
    <g transform="translate(329.05 317.48)">
     <path d="m0 0z" fill="#44aef2"/>
    </g>
    <g transform="translate(324.73 319.88)">
     <path d="m0 0c0.575 0.346 1.023 0.521 1.417 0.521-0.03-0.146-0.03-0.679-0.03-0.679l-0.274-0.176-0.342-0.12-0.478 0.095-0.279 0.151" fill="#2887bc"/>
    </g>
    <g transform="translate(330.62 317.35)">
     <path d="m0 0c0.213-0.104 0.213-0.274 0-0.379l-4.089-1.997c-0.213-0.104-0.562-0.104-0.775-1e-3l-4.095 1.999c-0.213 0.104-0.214 0.274 0 0.378l4.088 1.999c0.214 0.104 0.562 0.104 0.775 0z" fill="#1d5f8d"/>
    </g>
    <g transform="translate(307.42 293.49)">
     <path d="m0 0c-0.521 0-1.041 0.104-1.465 0.312l-9.731 4.748c-0.675 0.329-1.076 0.913-1.076 1.563-1e-3 0.65 0.401 1.235 1.075 1.565l9.717 4.748c0.847 0.415 2.08 0.415 2.928 1e-3l9.733-4.75c0.674-0.329 1.076-0.914 1.076-1.564s-0.402-1.234-1.075-1.564l-9.717-4.747c-0.424-0.208-0.945-0.312-1.465-0.312" fill="#282b34"/>
    </g>
    <g transform="translate(307.42 293.49)">
     <path d="m0 0c-0.521 0-1.041 0.104-1.465 0.312l-9.731 4.748c-0.675 0.329-1.076 0.913-1.076 1.563-1e-3 0.65 0.401 1.235 1.075 1.565l9.717 4.748c0.847 0.415 2.08 0.415 2.928 1e-3l9.733-4.75c0.674-0.329 1.076-0.914 1.076-1.564s-0.402-1.234-1.075-1.564l-9.717-4.747c-0.424-0.208-0.945-0.312-1.465-0.312z" fill="none" stroke="#282b34" stroke-linecap="round" stroke-linejoin="round" stroke-miterlimit="10" stroke-width="2.861"/>
    </g>
    <g transform="translate(307.44 293.2)">
     <path d="m0 0c-0.067 1.549-0.253 2.711 0.236 3.199 0.488 0.489-6.332 3.234-6.332 3.234l-1.947 1.145 8.304 2.762-0.464 1.695-2.997 0.325-2.526-1.591s-4.373-3.12-4.378-3.123c-0.452-0.323-1.188-0.279-1.419-0.92-0.296-0.821 0.079-2.107 0.726-2.674 0.45-0.396 1.523-0.874 1.41-1.611-0.06 0.018-0.115 0.019-0.178 0.051 1.448-0.674 2.896-1.347 4.344-2.02l3.002-0.472z" fill="#282b34"/>
    </g>
    <g transform="translate(307.44 293.2)">
     <path d="m0 0c-0.067 1.549-0.253 2.711 0.236 3.199 0.488 0.489-6.332 3.234-6.332 3.234l-1.947 1.145 8.304 2.762-0.464 1.695-2.997 0.325-2.526-1.591s-4.373-3.12-4.378-3.123c-0.452-0.323-1.188-0.279-1.419-0.92-0.296-0.821 0.079-2.107 0.726-2.674 0.45-0.396 1.523-0.874 1.41-1.611-0.06 0.018-0.115 0.019-0.178 0.051 1.448-0.674 2.896-1.347 4.344-2.02l3.002-0.472z" fill="none" stroke="#282b34" stroke-linecap="round" stroke-linejoin="round" stroke-miterlimit="10" stroke-width="2.861"/>
    </g>
    <g transform="translate(321.29 284.92)">
     <path d="m0 0c0.659-0.322 0.66-0.85 0-1.172l-12.666-6.188c-0.66-0.324-1.739-0.324-2.399-1e-3l-12.686 6.191c-0.66 0.321-0.661 0.849 0 1.172l12.665 6.188c0.66 0.324 1.739 0.324 2.399 1e-3z" fill="#282b34"/>
    </g>
    <g transform="translate(321.29 284.92)">
     <path d="m0 0c0.659-0.322 0.66-0.85 0-1.172l-12.666-6.188c-0.66-0.324-1.739-0.324-2.399-1e-3l-12.686 6.191c-0.66 0.321-0.661 0.849 0 1.172l12.665 6.188c0.66 0.324 1.739 0.324 2.399 1e-3z" fill="none" stroke="#282b34" stroke-linecap="round" stroke-linejoin="round" stroke-miterlimit="10" stroke-width="2.861"/>
    </g>
    <g transform="translate(321.29 284.92)">
     <path d="m0 0c0.657-0.322 0.657-0.844 0-1.166l-12.66-6.188c-0.335-0.173-0.781-0.248-1.215-0.248v14.038c0.434 0 0.868-0.087 1.19-0.249z" fill="#282b34"/>
    </g>
    <g transform="translate(321.29 284.92)">
     <path d="m0 0c0.657-0.322 0.657-0.844 0-1.166l-12.66-6.188c-0.335-0.173-0.781-0.248-1.215-0.248v14.038c0.434 0 0.868-0.087 1.19-0.249z" fill="none" stroke="#282b34" stroke-linecap="round" stroke-linejoin="round" stroke-miterlimit="10" stroke-width="2.861"/>
    </g>
    <g transform="translate(293.04 284.34)">
     <path d="m 0,0 14.371,-7.019 c -0.434,0 -0.868,0.075 -1.19,0.237 L 0.496,-0.583 C 0.161,-0.422 0,-0.211 0,0" fill="#282b34"/>
    </g>
    <g transform="translate(293.04 284.34)">
     <path d="m 0,0 14.371,-7.019 c -0.434,0 -0.868,0.075 -1.19,0.237 L 0.496,-0.583 C 0.161,-0.422 0,-0.211 0,0 Z" fill="none" stroke="#282b34" stroke-linecap="round" stroke-linejoin="round" stroke-miterlimit="10" stroke-width="2.861"/>
    </g>
    <g transform="translate(307.41 291.36)">
     <path d="m0 0c-0.434 0-0.88-0.087-1.215-0.248l-12.66-6.188c-0.335-0.161-0.496-0.372-0.496-0.583l2.107 16.011s0.03 0.228 0.319 0.717c0.288 0.489 1.062 0.764 1.062 0.764l10.537 5.21-10.677-7.809 11.023-5.58z" fill="#282b34"/>
    </g>
    <g transform="translate(307.41 291.36)">
     <path d="m0 0c-0.434 0-0.88-0.087-1.215-0.248l-12.66-6.188c-0.335-0.161-0.496-0.372-0.496-0.583l2.107 16.011s0.03 0.228 0.319 0.717c0.288 0.489 1.062 0.764 1.062 0.764l10.537 5.21-10.677-7.809 11.023-5.58z" fill="none" stroke="#282b34" stroke-linecap="round" stroke-linejoin="round" stroke-miterlimit="10" stroke-width="2.861"/>
    </g>
    <g transform="translate(307.41 291.36)">
     <path d="m0 0v-14.037l-14.371 7.018c0 0.211 0.161 0.422 0.496 0.583l12.66 6.188c0.335 0.161 0.781 0.248 1.215 0.248" fill="#282b34"/>
    </g>
    <g transform="translate(307.41 291.36)">
     <path d="m0 0v-14.037l-14.371 7.018c0 0.211 0.161 0.422 0.496 0.583l12.66 6.188c0.335 0.161 0.781 0.248 1.215 0.248z" fill="none" stroke="#282b34" stroke-linecap="round" stroke-linejoin="round" stroke-miterlimit="10" stroke-width="2.861"/>
    </g>
    <g transform="translate(307.41 290.56)">
     <path d="m0 0v3.093l11.293 6.466 0.972-1e-3 2.103-15.795-3.023-0.499-3.524-0.311" fill="#282b34" stroke="#282b34" stroke-linecap="round" stroke-linejoin="round" stroke-miterlimit="10" stroke-width="2.861"/>
    </g>
    <g transform="translate(317.37 300.54)">
     <path d="m0 0c0.473-0.231 0.474-0.609 0-0.841l-9.087-4.44c-0.474-0.232-1.248-0.232-1.722 0l-9.102 4.441c-0.473 0.232-0.474 0.61 0 0.841l9.087 4.44c0.474 0.233 1.248 0.233 1.721 1e-3z" fill="#282b34"/>
    </g>
    <g transform="translate(317.37 300.54)">
     <path d="m0 0c0.473-0.231 0.474-0.609 0-0.841l-9.087-4.44c-0.474-0.232-1.248-0.232-1.722 0l-9.102 4.441c-0.473 0.232-0.474 0.61 0 0.841l9.087 4.44c0.474 0.233 1.248 0.233 1.721 1e-3z" fill="none" stroke="#282b34" stroke-linecap="round" stroke-linejoin="round" stroke-miterlimit="10" stroke-width="2.861"/>
    </g>
    <g transform="translate(313.25 308.21)">
     <path d="m0 0z" fill="#282b34"/>
    </g>
    <g transform="translate(313.25 308.21)">
     <path d="m0 0z" fill="none" stroke="#282b34" stroke-linecap="round" stroke-linejoin="round" stroke-miterlimit="10" stroke-width="2.861"/>
    </g>
    <g transform="translate(313.25 300.78)">
     <path d="m0 0z" fill="#282b34"/>
    </g>
    <g transform="translate(313.25 300.78)">
     <path d="m0 0z" fill="none" stroke="#282b34" stroke-linecap="round" stroke-linejoin="round" stroke-miterlimit="10" stroke-width="2.861"/>
    </g>
    <g transform="translate(307.42 304.97)">
     <path d="m0 0c-0.255 0-0.509 0.051-0.717 0.152l-4.762 2.324c-0.33 0.161-0.526 0.447-0.526 0.765-1e-3 0.319 0.196 0.605 0.526 0.766l4.755 2.323c0.414 0.203 1.018 0.203 1.433 0l4.763-2.324c0.329-0.16 0.526-0.447 0.526-0.765 1e-3 -0.318-0.196-0.604-0.526-0.765l-4.755-2.324c-0.208-0.101-0.462-0.152-0.717-0.152" fill="#282b34"/>
    </g>
    <g transform="translate(307.42 304.97)">
     <path d="m0 0c-0.255 0-0.509 0.051-0.717 0.152l-4.762 2.324c-0.33 0.161-0.526 0.447-0.526 0.765-1e-3 0.319 0.196 0.605 0.526 0.766l4.755 2.323c0.414 0.203 1.018 0.203 1.433 0l4.763-2.324c0.329-0.16 0.526-0.447 0.526-0.765 1e-3 -0.318-0.196-0.604-0.526-0.765l-4.755-2.324c-0.208-0.101-0.462-0.152-0.717-0.152z" fill="none" stroke="#282b34" stroke-linecap="round" stroke-linejoin="round" stroke-miterlimit="10" stroke-width="2.861"/>
    </g>
    <g transform="translate(307.42 304.83)">
     <path d="m0 0c-0.033 0.759-0.124 1.327 0.115 1.566 0.239 0.24-3.098 1.582-3.098 1.582l-0.953 0.561 4.064 1.352-0.227 0.829-1.466 0.159-1.237-0.778-2.142-1.529c-0.033-0.023-0.1-0.03-0.138-0.043-0.102-0.037-0.203-0.082-0.295-0.139-0.098-0.061-0.195-0.139-0.249-0.243-0.033-0.062-0.036-0.106-0.029-0.171 8e-3 -0.086-2e-3 -0.171 4e-3 -0.258 8e-3 -0.116 0.024-0.252 0.091-0.351 0.033-0.047 0.067-0.056 0.11-0.088 0.059-0.044 0.101-0.108 0.148-0.166 0.151-0.19 0.301-0.382 0.442-0.579 0.077-0.107 0.154-0.216 0.218-0.331 0.016-0.029 0.073-0.111 0.06-0.149-0.019-0.054-0.057-0.023-0.099-4e-3l2.126-0.989 1.47-0.231z" fill="#282b34"/>
    </g>
    <g transform="translate(307.42 304.83)">
     <path d="m0 0c-0.033 0.759-0.124 1.327 0.115 1.566 0.239 0.24-3.098 1.582-3.098 1.582l-0.953 0.561 4.064 1.352-0.227 0.829-1.466 0.159-1.237-0.778-2.142-1.529c-0.033-0.023-0.1-0.03-0.138-0.043-0.102-0.037-0.203-0.082-0.295-0.139-0.098-0.061-0.195-0.139-0.249-0.243-0.033-0.062-0.036-0.106-0.029-0.171 8e-3 -0.086-2e-3 -0.171 4e-3 -0.258 8e-3 -0.116 0.024-0.252 0.091-0.351 0.033-0.047 0.067-0.056 0.11-0.088 0.059-0.044 0.101-0.108 0.148-0.166 0.151-0.19 0.301-0.382 0.442-0.579 0.077-0.107 0.154-0.216 0.218-0.331 0.016-0.029 0.073-0.111 0.06-0.149-0.019-0.054-0.057-0.023-0.099-4e-3l2.126-0.989 1.47-0.231z" fill="none" stroke="#282b34" stroke-linecap="round" stroke-linejoin="round" stroke-miterlimit="10" stroke-width="2.861"/>
    </g>
    <g transform="translate(314.2 301.18)">
     <path d="m0 0c0.323-0.158 0.323-0.416 0-0.573l-6.198-3.029c-0.323-0.158-0.851-0.158-1.174-1e-3l-6.209 3.03c-0.322 0.158-0.323 0.416 0 0.574l6.199 3.028c0.322 0.159 0.851 0.159 1.174 1e-3z" fill="#282b34"/>
    </g>
    <g transform="translate(314.2 301.18)">
     <path d="m0 0c0.323-0.158 0.323-0.416 0-0.573l-6.198-3.029c-0.323-0.158-0.851-0.158-1.174-1e-3l-6.209 3.03c-0.322 0.158-0.323 0.416 0 0.574l6.199 3.028c0.322 0.159 0.851 0.159 1.174 1e-3z" fill="none" stroke="#282b34" stroke-linecap="round" stroke-linejoin="round" stroke-miterlimit="10" stroke-width="2.861"/>
    </g>
    <g transform="translate(314.2 301.18)">
     <path d="m0 0c0.321-0.157 0.321-0.412 0-0.57l-6.195-3.028c-0.164-0.085-0.383-0.122-0.595-0.122v6.869c0.212 0 0.425-0.042 0.582-0.121z" fill="#282b34"/>
    </g>
    <g transform="translate(314.2 301.18)">
     <path d="m0 0c0.321-0.157 0.321-0.412 0-0.57l-6.195-3.028c-0.164-0.085-0.383-0.122-0.595-0.122v6.869c0.212 0 0.425-0.042 0.582-0.121z" fill="none" stroke="#282b34" stroke-linecap="round" stroke-linejoin="round" stroke-miterlimit="10" stroke-width="2.861"/>
    </g>
    <g transform="translate(300.38 300.9)">
     <path d="m 0,0 7.033,-3.435 c -0.213,0 -0.425,0.038 -0.583,0.116 L 0.243,-0.285 C 0.079,-0.206 0,-0.103 0,0" fill="#282b34"/>
    </g>
    <g transform="translate(300.38 300.9)">
     <path d="m0 0 7.033-3.435c-0.213 0-0.425 0.038-0.583 0.116l-6.207 3.034c-0.164 0.079-0.243 0.182-0.243 0.285z" fill="none" stroke="#282b34" stroke-linecap="round" stroke-linejoin="round" stroke-miterlimit="10" stroke-width="2.861"/>
    </g>
    <g transform="translate(307.41 304.33)">
     <path d="m0 0c-0.212 0-0.431-0.042-0.595-0.121l-6.195-3.028c-0.164-0.079-0.243-0.182-0.243-0.286l1.032 7.432s0.014 0.112 0.155 0.352c0.141 0.239 0.52 0.373 0.52 0.373l4.701 2.292-4.77-3.564 5.395-2.73z" fill="#282b34"/>
    </g>
    <g transform="translate(307.41 304.33)">
     <path d="m0 0c-0.212 0-0.431-0.042-0.595-0.121l-6.195-3.028c-0.164-0.079-0.243-0.182-0.243-0.286l1.032 7.432s0.014 0.112 0.155 0.352c0.141 0.239 0.52 0.373 0.52 0.373l4.701 2.292-4.77-3.564 5.395-2.73z" fill="none" stroke="#282b34" stroke-linecap="round" stroke-linejoin="round" stroke-miterlimit="10" stroke-width="2.861"/>
    </g>
    <g transform="translate(307.41 304.33)">
     <path d="m0 0v-6.869l-7.033 3.434c0 0.104 0.079 0.207 0.243 0.286l6.195 3.028c0.164 0.079 0.383 0.121 0.595 0.121" fill="#282b34"/>
    </g>
    <g transform="translate(307.41 304.33)">
     <path d="m0 0v-6.869l-7.033 3.434c0 0.104 0.079 0.207 0.243 0.286l6.195 3.028c0.164 0.079 0.383 0.121 0.595 0.121z" fill="none" stroke="#282b34" stroke-linecap="round" stroke-linejoin="round" stroke-miterlimit="10" stroke-width="2.861"/>
    </g>
    <g transform="translate(307.41 303.94)">
     <path d="m0 0v1.11l5.526 3.164h0.476l1.029-7.327-1.479-0.244-1.725-0.151" fill="#282b34" stroke="#282b34" stroke-linecap="round" stroke-linejoin="round" stroke-miterlimit="10" stroke-width="2.861"/>
    </g>
    <g transform="translate(310.27 308.54)">
     <path d="m0 0z" fill="#282b34"/>
    </g>
    <g transform="translate(310.27 308.54)">
     <path d="m0 0z" fill="none" stroke="#282b34" stroke-linecap="round" stroke-linejoin="round" stroke-miterlimit="10" stroke-width="2.861"/>
    </g>
    <g transform="translate(305.95 310.94)">
     <path d="m0 0c0.575 0.346 1.023 0.521 1.416 0.521-0.03-0.145-0.03-0.679-0.03-0.679l-0.273-0.175-0.342-0.121-0.479 0.095-0.278 0.151" fill="#282b34" stroke="#282b34" stroke-linecap="round" stroke-linejoin="round" stroke-miterlimit="10" stroke-width="2.861"/>
    </g>
    <g transform="translate(311.89 308.4)">
     <path d="m0 0c0.213-0.104 0.213-0.273 0-0.378l-4.089-1.998c-0.213-0.104-0.562-0.104-0.775 0l-4.095 1.998c-0.213 0.105-0.214 0.274 0 0.379l4.088 1.998c0.214 0.105 0.562 0.105 0.775 0z" fill="#282b34"/>
    </g>
    <g transform="translate(311.89 308.4)">
     <path d="m0 0c0.213-0.104 0.213-0.273 0-0.378l-4.089-1.998c-0.213-0.104-0.562-0.104-0.775 0l-4.095 1.998c-0.213 0.105-0.214 0.274 0 0.379l4.088 1.998c0.214 0.105 0.562 0.105 0.775 0z" fill="none" stroke="#282b34" stroke-linecap="round" stroke-linejoin="round" stroke-miterlimit="10" stroke-width="2.861"/>
    </g>
    <g transform="translate(307.42 293.49)">
     <path d="m0 0c-0.521 0-1.041 0.104-1.465 0.312l-9.731 4.748c-0.675 0.329-1.076 0.913-1.076 1.563-1e-3 0.65 0.401 1.235 1.075 1.565l9.717 4.748c0.847 0.415 2.08 0.415 2.928 1e-3l9.733-4.75c0.674-0.329 1.076-0.914 1.076-1.564s-0.402-1.234-1.075-1.564l-9.717-4.747c-0.424-0.208-0.945-0.312-1.465-0.312" fill="#44aef2"/>
    </g>
    <g transform="translate(307.44 293.2)">
     <path d="m0 0c-0.067 1.549-0.253 2.711 0.236 3.199 0.488 0.489-6.332 3.234-6.332 3.234l-1.947 1.145 8.304 2.762-0.464 1.695-2.997 0.325-2.526-1.591s-4.373-3.12-4.378-3.123c-0.452-0.323-1.188-0.279-1.419-0.92-0.296-0.821 0.079-2.107 0.726-2.674 0.45-0.396 1.523-0.874 1.41-1.611-0.06 0.018-0.115 0.019-0.178 0.051 1.448-0.674 2.896-1.347 4.344-2.02l3.002-0.472z" fill="#2887bc"/>
    </g>
    <g transform="translate(321.29 284.92)">
     <path d="m0 0c0.659-0.322 0.66-0.85 0-1.172l-12.666-6.188c-0.66-0.324-1.739-0.324-2.399-1e-3l-12.686 6.191c-0.66 0.321-0.661 0.849 0 1.172l12.665 6.188c0.66 0.324 1.739 0.324 2.399 1e-3z" fill="#44aef2"/>
    </g>
    <g transform="translate(321.29 284.92)">
     <path d="m0 0c0.657-0.322 0.657-0.844 0-1.166l-12.66-6.188c-0.335-0.173-0.781-0.248-1.215-0.248v14.038c0.434 0 0.868-0.087 1.19-0.249z" fill="#44aef2"/>
    </g>
    <g transform="translate(293.04 284.34)">
     <path d="m 0,0 14.371,-7.019 c -0.434,0 -0.868,0.075 -1.19,0.237 L 0.496,-0.583 C 0.161,-0.422 0,-0.211 0,0" fill="#2887bc"/>
    </g>
    <g transform="translate(307.41 291.36)">
     <path d="m0 0c-0.434 0-0.88-0.087-1.215-0.248l-12.66-6.188c-0.335-0.161-0.496-0.372-0.496-0.583l2.107 16.011s0.03 0.228 0.319 0.717c0.288 0.489 1.062 0.764 1.062 0.764l10.537 5.21-10.677-7.809 11.023-5.58z" fill="#2887bc"/>
    </g>
    <g transform="translate(307.41 291.36)">
     <path d="m0 0v-14.037l-14.371 7.018c0 0.211 0.161 0.422 0.496 0.583l12.66 6.188c0.335 0.161 0.781 0.248 1.215 0.248" fill="#2887bc"/>
    </g>
    <g transform="translate(307.41 290.56)">
     <path d="m0 0v3.093l11.293 6.466 0.972-1e-3 2.103-15.795-3.023-0.499-3.524-0.311" fill="#44aef2"/>
    </g>
    <g transform="translate(317.37 300.54)">
     <path d="m0 0c0.473-0.231 0.474-0.609 0-0.841l-9.087-4.44c-0.474-0.232-1.248-0.232-1.722 0l-9.102 4.441c-0.473 0.232-0.474 0.61 0 0.841l9.087 4.44c0.474 0.233 1.248 0.233 1.721 1e-3z" fill="#1d5f8d"/>
    </g>
    <g transform="translate(313.25 308.21)">
     <path d="m0 0z" fill="#44aef2"/>
    </g>
    <g transform="translate(313.25 300.78)">
     <path d="m0 0z" fill="#44aef2"/>
    </g>
    <g transform="translate(307.42 304.97)">
     <path d="m0 0c-0.255 0-0.509 0.051-0.717 0.152l-4.762 2.324c-0.33 0.161-0.526 0.447-0.526 0.765-1e-3 0.319 0.196 0.605 0.526 0.766l4.755 2.323c0.414 0.203 1.018 0.203 1.433 0l4.763-2.324c0.329-0.16 0.526-0.447 0.526-0.765 1e-3 -0.318-0.196-0.604-0.526-0.765l-4.755-2.324c-0.208-0.101-0.462-0.152-0.717-0.152" fill="#44aef2"/>
    </g>
    <g transform="translate(307.42 304.83)">
     <path d="m0 0c-0.033 0.759-0.124 1.327 0.115 1.566 0.239 0.24-3.098 1.582-3.098 1.582l-0.953 0.561 4.064 1.352-0.227 0.829-1.466 0.159-1.237-0.778-2.142-1.529c-0.033-0.023-0.1-0.03-0.138-0.043-0.102-0.037-0.203-0.082-0.295-0.139-0.098-0.061-0.195-0.139-0.249-0.243-0.033-0.062-0.036-0.106-0.029-0.171 8e-3 -0.086-2e-3 -0.171 4e-3 -0.258 8e-3 -0.116 0.024-0.252 0.091-0.351 0.033-0.047 0.067-0.056 0.11-0.088 0.059-0.044 0.101-0.108 0.148-0.166 0.151-0.19 0.301-0.382 0.442-0.579 0.077-0.107 0.154-0.216 0.218-0.331 0.016-0.029 0.073-0.111 0.06-0.149-0.019-0.054-0.057-0.023-0.099-4e-3l2.126-0.989 1.47-0.231z" fill="#2887bc"/>
    </g>
    <g transform="translate(314.2 301.18)">
     <path d="m0 0c0.323-0.158 0.323-0.416 0-0.573l-6.198-3.029c-0.323-0.158-0.851-0.158-1.174-1e-3l-6.209 3.03c-0.322 0.158-0.323 0.416 0 0.574l6.199 3.028c0.322 0.159 0.851 0.159 1.174 1e-3z" fill="#44aef2"/>
    </g>
    <g transform="translate(314.2 301.18)">
     <path d="m0 0c0.321-0.157 0.321-0.412 0-0.57l-6.195-3.028c-0.164-0.085-0.383-0.122-0.595-0.122v6.869c0.212 0 0.425-0.042 0.582-0.121z" fill="#44aef2"/>
    </g>
    <g transform="translate(300.38 300.9)">
     <path d="m 0,0 7.033,-3.435 c -0.213,0 -0.425,0.038 -0.583,0.116 L 0.243,-0.285 C 0.079,-0.206 0,-0.103 0,0" fill="#2887bc"/>
    </g>
    <g transform="translate(307.41 304.33)">
     <path d="m0 0c-0.212 0-0.431-0.042-0.595-0.121l-6.195-3.028c-0.164-0.079-0.243-0.182-0.243-0.286l1.032 7.432s0.014 0.112 0.155 0.352c0.141 0.239 0.52 0.373 0.52 0.373l4.701 2.292-4.77-3.564 5.395-2.73z" fill="#2887bc"/>
    </g>
    <g transform="translate(307.41 304.33)">
     <path d="m0 0v-6.869l-7.033 3.434c0 0.104 0.079 0.207 0.243 0.286l6.195 3.028c0.164 0.079 0.383 0.121 0.595 0.121" fill="#2887bc"/>
    </g>
    <g transform="translate(307.41 303.94)">
     <path d="m0 0v1.11l5.526 3.164h0.476l1.029-7.327-1.479-0.244-1.725-0.151" fill="#44aef2"/>
    </g>
    <g transform="translate(310.27 308.54)">
     <path d="m0 0z" fill="#44aef2"/>
    </g>
    <g transform="translate(305.95 310.94)">
     <path d="m0 0c0.575 0.346 1.023 0.521 1.416 0.521-0.03-0.145-0.03-0.679-0.03-0.679l-0.273-0.175-0.342-0.121-0.479 0.095-0.278 0.151" fill="#2887bc"/>
    </g>
    <g transform="translate(311.89 308.4)">
     <path d="m0 0c0.213-0.104 0.213-0.273 0-0.378l-4.089-1.998c-0.213-0.104-0.562-0.104-0.775 0l-4.095 1.998c-0.213 0.105-0.214 0.274 0 0.379l4.088 1.998c0.214 0.105 0.562 0.105 0.775 0z" fill="#1d5f8d"/>
    </g>
    <g transform="translate(189.05 264.1)">
     <path d="m0 0c17.786-1.732 3.845 28.717 10.711 36.373 5.223 5.824 16.34 7.28 21.871 1.609 5.61-5.753 4.281-12.993 7.126-19.742 2.632-6.247 7.674-11.768 14.155-14.08 5.768-2.057 12.449-1.347 17.363-5.748 6.26-5.606 8.023-16.684 7.131-24.673-1.102-9.872-8.508-15.101-12.15-23.495-6.94-15.993 12.901-28.281 9.883-44.204-0.928-4.897-3.648-8.543-7.775-11.158-3.783-2.397-8.091-1.579-11.469-3.235-5.489-2.69-1.298-9.144-5.85-11.998-5.518-3.46-7.778 5.291-12.364 5.965-2.788 0.409-3.686-1.044-6.023-2.114-4.27-1.956-7.198-3.616-12.229-1.539-10.057 4.152-1.864 10.167-5.825 15.575-5.281 7.209-19.796-3.465-27.003 6.106-3.354 4.454-3.08 12.49-2.576 17.811 0.461 4.881 3.479 7.858 4.445 12.444 2.18 10.346-11.892 13.164-7.74 25.252 2.464 7.174 10.463 9.368 12.729 16.35 1.851 5.703-0.729 8.144-3.401 12.689-2.597 4.418-4.651 8.219-0.23 12.363 3.524 3.303 5.633 0.818 9.221-0.551" fill="#0fb46f"/>
    </g>
    <g transform="translate(189.05 264.1)">
     <path d="m0 0c17.786-1.732 3.845 28.717 10.711 36.373 5.223 5.824 16.34 7.28 21.871 1.609 5.61-5.753 4.281-12.993 7.126-19.742 2.632-6.247 7.674-11.768 14.155-14.08 5.768-2.057 12.449-1.347 17.363-5.748 6.26-5.606 8.023-16.684 7.131-24.673-1.102-9.872-8.508-15.101-12.15-23.495-6.94-15.993 12.901-28.281 9.883-44.204-0.928-4.897-3.648-8.543-7.775-11.158-3.783-2.397-8.091-1.579-11.469-3.235-5.489-2.69-1.298-9.144-5.85-11.998-5.518-3.46-7.778 5.291-12.364 5.965-2.788 0.409-3.686-1.044-6.023-2.114-4.27-1.956-7.198-3.616-12.229-1.539-10.057 4.152-1.864 10.167-5.825 15.575-5.281 7.209-19.796-3.465-27.003 6.106-3.354 4.454-3.08 12.49-2.576 17.811 0.461 4.881 3.479 7.858 4.445 12.444 2.18 10.346-11.892 13.164-7.74 25.252 2.464 7.174 10.463 9.368 12.729 16.35 1.851 5.703-0.729 8.144-3.401 12.689-2.597 4.418-4.651 8.219-0.23 12.363 3.524 3.303 5.633 0.818 9.221-0.551z" fill="none" stroke="#282b34" stroke-miterlimit="10" stroke-width="1.431"/>
    </g>
    <g transform="translate(232.07 212.08)">
     <path d="m0 0c0.299 0.677-0.604 1.248-1.013 0.592-4.793-7.665-11.11-15.911-13.941-24.784-4.894 16.345-8.621 33.071-1.366 48.896 0.405 0.882-0.658 1.885-1.422 1.097-5.637-5.814-6.752-13.908-7.213-21.658-0.063-1.063-0.088-2.117-0.109-3.17-3.605 6.794-6.02 13.338-5.798 21.513 0.018 0.675-1.11 0.861-1.208 0.163-0.927-6.606-0.701-12.634 2.051-18.811 1.399-3.141 3.33-6.083 5.067-9.063 0.41-7.5 1.786-14.842 3.866-22.218 0.848-3.008 1.689-6.054 2.484-9.122-3.76 3.091-7.991 5.778-11.829 8.902-0.963 0.784-2.208-0.417-1.375-1.375 3.592-4.127 8.202-6.858 12.066-10.642 0.909-0.891 1.757-1.754 2.551-2.656 1.358-5.905 2.425-11.874 2.832-17.834 0.779-11.421 2.23-21.811-5.55-31.213-1.211-1.464-2.338-1.763-1.806-3.894 0.324-1.301 2.469-3.47 3.374-4.489 2.122-2.39 4.4-1.935 7.527-1.938 4.266-4e-3 7.291 0.211 6.901 5.301-0.036 0.477-0.073 0.955-0.11 1.432-0.616 7.967-1.272 15.933-1.832 23.905-0.56 7.991-0.424 15.742-2.317 23.672-0.721 3.017-1.574 6.071-2.487 9.151-0.026 7.679 0.061 14.425 3.264 21.953 2.333 5.482 4.986 10.845 7.393 16.29" fill="#282b34"/>
    </g>
    <g transform="translate(344.28 242.08)">
     <path d="m0 0v-92.341l26.723 13.176v92.354z" fill="#e6e9d7"/>
    </g>
    <g clip-path="url(#clipPath38)" opacity=".7">
     <g transform="translate(369.45 252.3)">
      <path d="m0 0-24.097-12.211 0.615-27.891 23.482 12.076" fill="#e84658"/>
     </g>
    </g>
    <g transform="translate(371.01 255.27)">
     <path d="m0 0-26.723-13.189v-92.341l26.723 13.176zm-2.861-4.603v-85.972l-21.001-10.355v85.962z" fill="#282b34"/>
    </g>
    <g transform="translate(369.45 223.79)">
     <path d="m0 0-24.097-11.894" fill="none" stroke="#282b34" stroke-miterlimit="10" stroke-width="1.431"/>
    </g>
    <g transform="translate(369.45 192.11)">
     <path d="m0 0-24.097-11.894" fill="none" stroke="#282b34" stroke-miterlimit="10" stroke-width="1.431"/>
    </g>
    <g transform="translate(369.45 176.85)">
     <path d="m0 0-24.097-11.894" fill="none" stroke="#282b34" stroke-miterlimit="10" stroke-width="1.431"/>
    </g>
    <g transform="translate(358.14 218.4)">
     <path d="m0 0v-60.625" fill="none" stroke="#282b34" stroke-miterlimit="10" stroke-width="1.431"/>
    </g>
    <g transform="translate(306.98 223.52)">
     <path d="m0 0v-92.341l26.723 13.176v92.354z" fill="#e6e9d7"/>
    </g>
    <g clip-path="url(#clipPath42)" opacity=".7">
     <g transform="translate(332.15 233.74)">
      <path d="m0 0-24.097-12.211 0.616-27.89 23.481 12.075" fill="#e84658"/>
     </g>
    </g>
    <g transform="translate(333.71 236.71)">
     <path d="m0 0-26.723-13.189v-92.341l26.723 13.176zm-2.861-4.603v-85.972l-21.001-10.355v85.962z" fill="#282b34"/>
    </g>
    <g transform="translate(332.15 205.23)">
     <path d="m0 0-24.097-11.894" fill="none" stroke="#282b34" stroke-miterlimit="10" stroke-width="1.431"/>
    </g>
    <g transform="translate(332.15 173.55)">
     <path d="m0 0-24.097-11.894" fill="none" stroke="#282b34" stroke-miterlimit="10" stroke-width="1.431"/>
    </g>
    <g transform="translate(369.45 207.38)">
     <path d="m0 0-24.097-11.894" fill="none" stroke="#282b34" stroke-miterlimit="10" stroke-width="1.431"/>
    </g>
    <g transform="translate(332.15 188.82)">
     <path d="m0 0-24.097-11.894" fill="none" stroke="#282b34" stroke-miterlimit="10" stroke-width="1.431"/>
    </g>
    <g transform="translate(332.15 158.29)">
     <path d="m0 0-24.097-11.894" fill="none" stroke="#282b34" stroke-miterlimit="10" stroke-width="1.431"/>
    </g>
    <g transform="translate(320.76 199.28)">
     <path d="m0 0v-60.625" fill="none" stroke="#282b34" stroke-miterlimit="10" stroke-width="1.431"/>
    </g>
    <g transform="translate(234.87 292.03)">
     <path d="m0 0c-0.421 0.01-0.845 0.358-0.899 1.046-0.015 0.185 0 0.391 0 0.578v73.07c0 0.79 0.397 1.431 0.887 1.431 0.491 0 0.888-0.641 0.888-1.431v-71.51c0-0.497 1e-3 -0.994 0-1.49-1e-3 -0.195 0.016-0.442 9e-3 -0.652-0.025-0.705-0.453-1.052-0.885-1.042z" fill="none" stroke="#1d5f8d" stroke-miterlimit="10" stroke-width="1.431"/>
    </g>
    <g transform="translate(234.87 292.03)">
     <path d="m0 0c-0.421 0.01-0.845 0.358-0.899 1.046-0.015 0.185 0 0.391 0 0.578v73.07c0 0.79 0.397 1.431 0.887 1.431 0.491 0 0.888-0.641 0.888-1.431v-71.51c0-0.497 1e-3 -0.994 0-1.49-1e-3 -0.195 0.016-0.442 9e-3 -0.652-0.025-0.705-0.453-1.052-0.885-1.042z" fill="none" stroke="#282b34" stroke-linecap="round" stroke-linejoin="round" stroke-miterlimit="10" stroke-width="2.861"/>
    </g>
    <g transform="translate(234.87 292.03)">
     <path d="m0 0c-0.421 0.01-0.845 0.358-0.899 1.046-0.015 0.185 0 0.391 0 0.578v73.07c0 0.79 0.397 1.431 0.887 1.431 0.491 0 0.888-0.641 0.888-1.431v-71.51c0-0.497 1e-3 -0.994 0-1.49-1e-3 -0.195 0.016-0.442 9e-3 -0.652-0.025-0.705-0.453-1.052-0.885-1.042" fill="#1d5f8d"/>
    </g>
    <g transform="translate(239.68 342.38)">
     <path d="m0 0h-9.633c-1.574 0-2.862 1.288-2.862 2.861v41.665c0 1.574 1.288 2.861 2.862 2.861h9.633c1.574 0 2.861-1.287 2.861-2.861v-41.665c0-1.573-1.287-2.861-2.861-2.861" fill="#2887bc"/>
    </g>
    <g transform="translate(239.68 342.38)">
     <path d="m0 0h-9.633c-1.574 0-2.862 1.288-2.862 2.861v41.665c0 1.574 1.288 2.861 2.862 2.861h9.633c1.574 0 2.861-1.287 2.861-2.861v-41.665c0-1.573-1.287-2.861-2.861-2.861z" fill="none" stroke="#282b34" stroke-miterlimit="10" stroke-width="1.431"/>
    </g>
   </g>
  </g>
 </g>
</svg>
