<?xml version="1.0" encoding="UTF-8"?>
<!-- Created with Inkscape (http://www.inkscape.org/) -->
<svg width="66.275mm" height="106.49mm" version="1.1" viewBox="0 0 66.275 106.49" xmlns="http://www.w3.org/2000/svg" xmlns:cc="http://creativecommons.org/ns#" xmlns:dc="http://purl.org/dc/elements/1.1/" xmlns:rdf="http://www.w3.org/1999/02/22-rdf-syntax-ns#">
 <defs>
  <clipPath id="clipPath1154">
   <path d="m796.94 392.58h187.87v-301.87h-187.87z"/>
  </clipPath>
  <clipPath id="clipPath1158">
   <path d="m819 324.62h72.224v-37.692h-72.224z"/>
  </clipPath>
  <clipPath id="clipPath1162">
   <path d="m851.94 226.97h22.506v-24.202h-22.506z"/>
  </clipPath>
  <clipPath id="clipPath1166">
   <path d="m912.03 240.1h54.308v-98.246h-54.308z"/>
  </clipPath>
  <clipPath id="clipPath1170">
   <path d="m813.29 226h23.116v-29.347h-23.116z"/>
  </clipPath>
  <clipPath id="clipPath1174">
   <path d="m813.29 226h23.116v-29.347h-23.116z"/>
  </clipPath>
  <clipPath id="clipPath1178">
   <path d="m917.68 127.19h7.852v-7.851h-7.852z"/>
  </clipPath>
  <clipPath id="clipPath1182">
   <path d="m942.08 140.58h7.851v-7.851h-7.851z"/>
  </clipPath>
  <clipPath id="clipPath1186">
   <path d="m966.49 153.98h7.851v-7.851h-7.851z"/>
  </clipPath>
  <filter id="filter1276" color-interpolation-filters="sRGB">
   <feColorMatrix result="color1" type="hueRotate" values="116"/>
   <feColorMatrix result="color2" type="saturate" values="0.65"/>
  </filter>
 </defs>
 <metadata>
  <rdf:RDF>
   <cc:Work rdf:about="">
    <dc:format>image/svg+xml</dc:format>
    <dc:type rdf:resource="http://purl.org/dc/dcmitype/StillImage"/>
    <dc:title/>
   </cc:Work>
  </rdf:RDF>
 </metadata>
 <g transform="translate(-329.72 -153.04)" filter="url(#filter1276)">
  <g transform="matrix(.35278 0 0 -.35278 48.577 291.53)">
   <g clip-path="url(#clipPath1154)" opacity=".8">
    <g transform="translate(970.42 295.38)">
     <path d="m0 0c3.767-1.84 3.771-4.849 0-6.694l-72.349-35.348c-3.771-1.846-9.937-1.846-13.704-5e-3l-72.47 35.363c-3.767 1.84-3.772 4.849 0 6.695l72.348 35.353c3.772 1.845 9.938 1.845 13.704 5e-3z" fill="#2887bc"/>
    </g>
    <g transform="translate(984.06 287.3)">
     <path d="m0 0c-0.014 3.99-2.959 8.691-6.543 10.441l-79.891 39.044c-1.922 0.94-4.504 1.37-7.038 1.301v-7.918c2.534 0.07 5.116-0.36 7.038-1.3l68.952-33.651c3.583-1.75 3.587-4.613 0-6.369l-68.835-33.631c-3.588-1.756-9.455-1.756-13.038-5e-3l-68.952 33.646c-3.583 1.751-3.588 4.614 0 6.369l25.376 12.4-5.32 5.319-31.111-15.205c-3.584-1.75-6.529-6.451-6.538-10.441l-0.092-136.52c-0.015-3.991 2.906-8.686 6.495-10.432l80.025-39.048c3.583-1.751 9.455-1.751 13.038 0l80.027 39.048c3.588 1.746 6.509 6.441 6.5 10.432z" fill="#44aef2"/>
    </g>
    <g transform="translate(884.59 328.86)">
     <path d="m0 0c1.662 0.813 3.813 1.245 6 1.305v7.918c-2.187-0.06-4.338-0.491-6-1.302l-48.779-23.838 5.32-5.319z" fill="#44aef2"/>
    </g>
    <g transform="translate(884.59 328.86)">
     <path d="m0 0c1.662 0.813 3.813 1.245 6 1.305v7.918c-2.187-0.06-4.338-0.491-6-1.302l-48.779-23.838 5.32-5.319z" fill="#2887bc"/>
    </g>
    <g transform="translate(846.38 274.4)">
     <path d="m0 0 38.347-18.713c3.55-1.734 9.363-1.734 12.919 5e-3l44.842 21.91" fill="none" stroke="#282b34" stroke-miterlimit="10" stroke-width=".967"/>
    </g>
    <g transform="translate(984.06 287.3)">
     <path d="m0 0c-0.014 3.99-2.959 8.691-6.543 10.441l-22.402 10.95c-2.026-1.653-3.96-3.348-5.933-4.984l17.396-8.49c3.583-1.75 3.587-4.613 0-6.369l-68.835-33.631c-2.01-0.983-4.735-1.416-7.373-1.298v-153.92c2.603-0.1 5.278 0.329 7.256 1.296l80.027 39.048c3.588 1.746 6.509 6.441 6.5 10.432z" fill="#44aef2"/>
    </g>
    <g transform="translate(884.7 255.21)">
     <path d="m0 0-68.951 33.646c-3.583 1.75-3.588 4.614 0 6.369l34.128 16.676-5.288 5.336-39.896-19.498c-3.584-1.75-6.528-6.451-6.538-10.441l-0.092-136.52c-0.014-3.99 2.907-8.685 6.495-10.431l80.026-39.048c1.605-0.784 3.67-1.215 5.781-1.296v153.92c-2.071 0.092-4.089 0.522-5.665 1.293" fill="#44aef2"/>
    </g>
    <g transform="translate(884.7 255.21)">
     <path d="m0 0-68.951 33.646c-3.583 1.75-3.588 4.614 0 6.369l34.128 16.676-5.288 5.336-39.896-19.498c-3.584-1.75-6.528-6.451-6.538-10.441l-0.092-136.52c-0.014-3.99 2.907-8.685 6.495-10.431l80.026-39.048c1.605-0.784 3.67-1.215 5.781-1.296v153.92c-2.071 0.092-4.089 0.522-5.665 1.293" fill="#2887bc"/>
    </g>
    <g transform="translate(798.54 281.14)">
     <path d="m0 0 86.048-42.438c3.583-1.75 9.455-1.75 13.038 0l86.138 42.11" fill="none" stroke="#282b34" stroke-miterlimit="10" stroke-width=".967"/>
    </g>
    <g transform="translate(890.59 323.91)">
     <path d="m0 0 72.625-35.857 5.771 2.886v2.184l-72.03 35.6-6.366 1.076z" fill="#2887bc"/>
    </g>
    <g transform="translate(891.11 330.18)">
     <path d="m0 0c-2.364 0-4.73-0.438-6.525-1.317l-68.835-33.637c-3.588-1.754-3.583-4.618 0-6.369l68.951-33.645c1.79-0.875 4.15-1.313 6.513-1.313 2.364 0 4.73 0.439 6.525 1.318l68.835 33.63c3.588 1.756 3.583 4.62 0 6.37l-68.951 33.651c-1.79 0.875-4.152 1.312-6.513 1.312m0-0.967c2.29 0 4.509-0.443 6.089-1.215l68.95-33.651c1.364-0.666 2.147-1.509 2.147-2.314 1e-3 -0.805-0.783-1.648-2.147-2.316l-68.835-33.632c-1.606-0.786-3.773-1.219-6.1-1.219-2.291 0-4.509 0.442-6.089 1.215l-68.951 33.645c-1.364 0.666-2.146 1.51-2.146 2.315-1e-3 0.805 0.782 1.649 2.146 2.316l68.835 33.637c1.607 0.786 3.774 1.219 6.101 1.219" fill="#282b34"/>
    </g>
    <g clip-path="url(#clipPath1158)" opacity=".5">
     <g transform="translate(819.72 286.93)">
      <path d="m0 0c-0.26 0-0.511 0.142-0.638 0.39-0.179 0.351-0.041 0.782 0.312 0.963l70.867 36.262c0.104 0.053 0.324 0.078 0.324 0.078v-0.725l0.643-0.307s-0.174-0.247-0.317-0.32l-70.866-36.263c-0.104-0.053-0.216-0.078-0.325-0.078" fill="#2887bc"/>
     </g>
    </g>
    <g transform="translate(970.42 295.46)">
     <path d="m0 0c3.777-1.846 3.782-4.863 0-6.714l-72.555-35.448c-3.782-1.851-9.966-1.851-13.743-6e-3l-72.677 35.465c-3.777 1.845-3.782 4.863 0 6.713l72.555 35.454c3.782 1.85 9.966 1.85 13.743 5e-3z" fill="#1d5f8d"/>
    </g>
    <g transform="translate(984.09 287.36)">
     <path d="m0 0c-0.015 4.002-2.969 8.716-6.562 10.472l-80.119 39.154c-1.928 0.942-4.517 1.374-7.058 1.305v-7.94c2.541 0.07 5.13-0.362 7.058-1.304l69.148-33.748c3.594-1.754 3.598-4.626 0-6.386l-69.031-33.728c-3.599-1.761-9.482-1.761-13.076-5e-3l-69.147 33.742c-3.594 1.755-3.599 4.627 0 6.387l25.447 12.436-5.335 5.335-31.2-15.248c-3.594-1.756-6.547-6.47-6.557-10.472l-0.092-27.868c-0.014-4.001 7.443 5.199 11.042 3.448l75.725-30.226c3.595-1.755 99.859 22.777 99.849 26.778z" fill="#44aef2"/>
    </g>
    <g transform="translate(884.33 329.04)">
     <path d="m0 0c1.667 0.815 3.825 1.249 6.018 1.309v7.94c-2.193-0.06-4.351-0.491-6.018-1.305l-48.918-23.906 5.335-5.335z" fill="#44aef2"/>
    </g>
    <g transform="translate(884.33 329.04)">
     <path d="m0 0c1.667 0.815 3.825 1.249 6.018 1.309v7.94c-2.193-0.06-4.351-0.491-6.018-1.305l-48.918-23.906 5.335-5.335z" fill="#2887bc"/>
    </g>
    <g transform="translate(857.52 319.37)">
     <path d="m0 0c2.663 1.146 5.326 2.293 7.989 3.438 4.932 2.124 9.864 4.246 14.795 6.369 1.432 0.616 2.864 1.233 4.296 1.849 0.534 0.23 1.068 0.505 1.618 0.696 1.24 0.432 2.244 1.195 3.1 2.228 0.37 0.446 0.7 1.001 1.15 1.369 0.097-0.619 0.441-1.161 0.369-1.799-0.094-0.853-0.124-1.773-0.355-2.601-0.117-0.422-0.359-0.706-0.723-0.936-0.331-0.21-0.539-0.178-0.922-0.135-0.917 0.104-1.802-0.347-2.647-0.634-2.377-0.808-4.671-1.855-6.9-3.006-8.302-4.286-23.172-11.346-23.172-11.346z" fill="#44aef2"/>
    </g>
    <g transform="translate(890.88 330.36)">
     <path d="m0 0c-2.371 0-4.744-0.44-6.545-1.321l-69.03-33.733c-3.599-1.759-3.594-4.632 0-6.386l69.147-33.743c1.795-0.877 4.163-1.316 6.531-1.316 2.372 0 4.744 0.44 6.544 1.321l69.032 33.728c3.598 1.76 3.593 4.632 0 6.387l-69.148 33.747c-1.796 0.877-4.163 1.316-6.531 1.316m0-1.431c2.229 0 4.38-0.426 5.903-1.171l69.148-33.747c1.168-0.57 1.894-1.301 1.894-1.907s-0.726-1.338-1.894-1.909l-69.032-33.728c-1.527-0.747-3.683-1.175-5.915-1.175-2.229 0-4.381 0.426-5.905 1.171l-69.146 33.742c-1.169 0.57-1.895 1.301-1.895 1.907 0 0.605 0.726 1.338 1.895 1.909l69.031 33.733c1.527 0.747 3.684 1.175 5.916 1.175" fill="#282b34"/>
    </g>
    <g transform="translate(846.02 274.42)">
     <path d="m0 0 38.456-18.766c3.562-1.739 9.391-1.739 12.956 5e-3l44.971 21.972" fill="none" stroke="#282b34" stroke-miterlimit="10" stroke-width="1.431"/>
    </g>
    <g transform="translate(808.85 259.77)">
     <path d="m0 0c-3.599 1.751-11.298-4.276-11.283-0.274l0.093 27.868c9e-3 4.001 2.962 8.716 6.556 10.47l2.945 1.44 37.069 18.116 5.301-5.354-34.227-16.723c-3.599-1.761-3.594-4.632 0-6.388l69.147-33.742c1.582-0.77 3.609-1.202 5.684-1.295 1.135-0.053 2.289 0 3.396 0.151-1.81-1.528-2.77-5.069-2.6-10.932 0.272-9.23-82.081 16.663-82.081 16.663" fill="#44aef2"/>
    </g>
    <g transform="translate(895.6 221.67)">
     <path d="m0 0c0 4.709-5.619 11.912-5.891 21.143-0.17 5.863 1.393 9.694 3.202 11.221l4e-3 5e-3c1.465 0.199 2.848 0.582 3.993 1.145l69.03 33.727c3.6 1.761 3.595 4.632 0 6.388l-17.441 8.512c1.974 1.644 3.919 3.341 5.947 5l22.466-10.981c3.593-1.755 6.546-6.47 6.561-10.471l0.093-27.868c9e-3 -4.002-87.964-42.531-87.964-37.821" fill="#44aef2"/>
    </g>
    <g transform="translate(890.13 216.85)">
     <path d="m0 0v1.903l-83.033 36.589c-3.599 1.751-9.551 0.145-9.536 4.147l0.092 27.868c0.01 4.001 2.963 8.716 6.557 10.471l16.104 7.87 23.91 11.685 5.301-5.354-34.227-16.723c-3.599-1.761-3.594-4.632 0-6.388l69.146-33.742c1.582-0.77 3.828-1.232 5.685-1.295 0.922-0.03 2.757-0.112 5.462 0.576-1e-3 0 0.864 0.208 2.165 0.839 11.52 5.587 68.228 33.297 69.28 33.868 1.105 0.601 2.212 1.762 2.212 2.881 0 0.731-0.34 1.492-1.018 2.127-0.744 0.743-3.733 2.127-3.733 2.127l-67.254 32.831c-0.781 0.374-1.713 0.774-2.591 0.696-1.201-0.108-2.388 0.263-3.598 0.263-1.07 0-2.111-0.051-3.171-0.207-0.755-0.112-1.512-0.232-2.255-0.404-0.253-0.058-0.598-0.238-0.852-0.215 0.254 0.437 1.111 0.755 1.551 0.972 0.643 0.316 1.299 0.58 1.998 0.746 2.432 0.578 4.957 0.424 7.233-0.597 1.047-0.471 2.094-0.942 3.142-1.412 1.397-0.628 2.793-1.256 4.191-1.883 1.671-0.752 3.343-1.503 5.014-2.254 1.871-0.841 3.743-1.682 5.615-2.523 1.996-0.898 3.993-1.795 5.99-2.692 2.047-0.921 4.095-1.841 6.141-2.761 2.024-0.91 4.047-1.82 6.071-2.729l5.774-2.595c1.751-0.788 3.502-1.575 5.253-2.363 1.504-0.676 3.007-1.351 4.51-2.027 1.181-0.53 2.361-1.062 3.542-1.592 0.783-0.352 1.566-0.705 2.35-1.057 0.31-0.14 0.622-0.279 0.932-0.42 9.441-4.818 14.345-7.153 16.231-8.493 1.562-1.11 3.641-2.02 3.29-4.194-0.251-1.553-2.703-3.248-5.446-4.793-20.37-11.142-69.211-34.667-73.246-36.277-1.071-0.428-3.414-2.289-3.921-3.444-1.193-2.713-0.861-2.885-0.861-8.879z" fill="#2887bc"/>
    </g>
    <g transform="translate(842.83 312.75)">
     <path d="m0 0c-1.482-0.77-2.965-1.539-4.447-2.308-3.334-1.73-6.668-3.461-10.003-5.191-0.415-0.415-1.018-0.584-1.537-0.824-0.617-0.285-1.217-0.616-1.823-0.926-1.322-0.676-2.644-1.353-3.966-2.028-0.275 0-0.794-0.407-1.044-0.535-0.383-0.195-0.766-0.39-1.149-0.586-0.765-0.392-1.531-0.783-2.297-1.174-1.431-0.733-2.917-1.396-4.244-2.303-1.112-0.76-2.086-1.883-1.998-3.314 0.068-1.102 0.561-2.181 1.426-2.88 0.498-0.402 1.102-0.532 1.661-0.806 0.114-0.056 1.16-0.348 1.121-0.249-0.254 0.651-0.989 0.997-1.3 1.646-0.171 0.361-0.211 0.743-0.112 1.134 0.418 1.662 2.393 2.562 3.775 3.239 1.181 0.579 2.363 1.157 3.544 1.735l10.128 4.959c3.865 1.891 7.73 3.784 11.594 5.676l9.955 4.875c1.737 0.849 3.475 1.7 5.212 2.55 0.067 0.034 0.134 0.067 0.201 0.099-0.09 0.674 0.09 3.17 0 3.829-8.312-3.675-14.697-6.618-14.697-6.618" fill="#44aef2"/>
    </g>
    <g transform="translate(797.77 288.61)">
     <path d="m0 0c-0.111-1.944 0.749-3.486 3.625-4.782l82.303-39.406c1.771-0.866 4.1-1.304 6.437-1.317 2.337-0.012 4.666 0.451 6.438 1.317l83.651 40.268c2.875 1.295 3.854 2.898 3.642 4.804" fill="none" stroke="#282b34" stroke-miterlimit="10" stroke-width="1.431"/>
    </g>
    <g transform="translate(857.52 319.7)">
     <path d="m0 0c2.035 0.876 19.935 9.51 28.467 13.699 4.509 1.795 4.256 4.863 4.361 4.95 0.097-0.619 0.561-3.861 0.49-4.498-0.094-0.854-0.125-1.774-0.356-2.602-0.117-0.422-0.358-0.706-0.723-0.936-0.331-0.209-0.539-0.178-0.922-0.135-0.917 0.104-1.801-0.347-2.647-0.634-2.377-0.808-4.671-1.855-6.899-3.006-8.303-4.286-23.173-11.346-23.173-11.346z" fill="#44aef2"/>
    </g>
    <g transform="translate(890.88 330.36)">
     <path d="m0 0c-2.371 0-4.744-0.44-6.545-1.321l-69.03-33.733c-3.599-1.759-3.594-4.632 0-6.386l69.147-33.743c1.795-0.877 4.163-1.316 6.531-1.316 2.372 0 4.744 0.44 6.544 1.321l69.032 33.728c3.598 1.76 3.593 4.632 0 6.387l-69.148 33.747c-1.796 0.877-4.163 1.316-6.531 1.316m0-1.431c2.229 0 4.38-0.426 5.903-1.171l69.148-33.747c1.168-0.57 1.894-1.301 1.894-1.907s-0.726-1.338-1.894-1.909l-69.032-33.728c-1.527-0.747-3.683-1.175-5.915-1.175-2.229 0-4.381 0.426-5.905 1.171l-69.146 33.742c-1.169 0.57-1.895 1.301-1.895 1.907 0 0.605 0.726 1.338 1.895 1.909l69.031 33.733c1.527 0.747 3.684 1.175 5.916 1.175" fill="#282b34"/>
    </g>
    <g transform="translate(807.1 299.24)">
     <path d="m0 0 65.66 32.089c6.628 3.24 11.642 7.594 18.615 6.961 4.08 0.34 7.346-1.946 7.346-1.946s72.229-35.298 76.584-37.427c4.356-2.128 5.337-3.49 6.821-5.442 1.486-1.951 1.965-4.157 1.965-6.695 0-2.537-0.176-132.94-0.176-136.28 0-2.757-0.769-7.019-8.637-11.475l-46.075-22.665s-19.377-9.272-26.104-12.712c-6.727-3.439-8.597-3.938-12.495-3.938-3.899 0-6.954 1.652-6.954 1.652s-73.999 36.108-79.08 38.587c-5.08 2.479-6.74 7.494-6.74 10.266 0.013 4.476-0.182 133.99-0.174 136.46 9e-3 2.73 0.477 4.729 2.501 7.603 2.022 2.874 6.943 4.972 6.943 4.972" fill="none" stroke="#282b34" stroke-linecap="round" stroke-linejoin="round" stroke-miterlimit="10" stroke-width="1.431"/>
    </g>
    <g transform="translate(863.5 306.29)">
     <path d="m0 0c-0.421 0.01-0.846 0.359-0.899 1.046-0.015 0.185 0 0.391 0 0.578v73.07c0 0.79 0.397 1.431 0.887 1.431 0.491 0 0.888-0.641 0.888-1.431v-71.51c0-0.496 1e-3 -0.993 0-1.49-1e-3 -0.195 0.016-0.442 9e-3 -0.652-0.025-0.705-0.453-1.052-0.885-1.042z" fill="none" stroke="#1d5f8d" stroke-miterlimit="10" stroke-width="1.431"/>
    </g>
    <g transform="translate(863.5 306.29)">
     <path d="m0 0c-0.421 0.01-0.846 0.359-0.899 1.046-0.015 0.185 0 0.391 0 0.578v73.07c0 0.79 0.397 1.431 0.887 1.431 0.491 0 0.888-0.641 0.888-1.431v-71.51c0-0.496 1e-3 -0.993 0-1.49-1e-3 -0.195 0.016-0.442 9e-3 -0.652-0.025-0.705-0.453-1.052-0.885-1.042z" fill="none" stroke="#282b34" stroke-linecap="round" stroke-linejoin="round" stroke-miterlimit="10" stroke-width="2.861"/>
    </g>
    <g transform="translate(863.5 306.29)">
     <path d="m0 0c-0.421 0.01-0.846 0.359-0.899 1.046-0.015 0.185 0 0.391 0 0.578v73.07c0 0.79 0.397 1.431 0.887 1.431 0.491 0 0.888-0.641 0.888-1.431v-71.51c0-0.496 1e-3 -0.993 0-1.49-1e-3 -0.195 0.016-0.442 9e-3 -0.652-0.025-0.705-0.453-1.052-0.885-1.042" fill="#1d5f8d"/>
    </g>
    <g transform="translate(868.86 371.96)">
     <path d="m0 0c-4.005-8.652-10.348-14.231-14.168-12.463s-3.671 10.215 0.334 18.866c4.004 8.652 10.348 14.232 14.168 12.463 3.82-1.768 3.671-10.215-0.334-18.866z" fill="none" stroke="#282b34" stroke-linecap="round" stroke-linejoin="round" stroke-miterlimit="10" stroke-width="2.861"/>
    </g>
    <g transform="translate(855.02 378.36)">
     <path d="m0 0c-4.005-8.655-4.148-17.095-0.329-18.869 0.129-0.057 0.272-0.114 0.415-0.157 3.219 0.472 7.811 5.336 11.874 13.562 3.004 6.079 4.735 13.99 3.09 17.338-0.272 0.243-0.558 0.443-0.887 0.586-3.819 1.774-10.157-3.805-14.163-12.46" fill="#2887bc"/>
    </g>
    <g transform="translate(866.98 372.9)">
     <path d="m0 0c-4.062-8.226-8.655-13.09-11.874-13.562 3.849-1.202 9.886 4.292 13.748 12.632 3.662 7.911 4.105 15.664 1.216 18.268 1.645-3.347-0.086-11.258-3.09-17.338" fill="#1d5f8d"/>
    </g>
    <g transform="translate(868.1 391.81)">
     <path d="m0 0c0.901-0.157 1.546-0.715 1.975-1.573 1.645-3.348-0.086-11.259-3.09-17.339-4.063-8.226-8.656-13.089-11.874-13.562-0.687-0.1-1.316 0-1.86 0.315" fill="none" stroke="#282b34" stroke-linecap="round" stroke-linejoin="round" stroke-miterlimit="10" stroke-width="1.431"/>
    </g>
    <g transform="translate(851.94 213.6)">
     <path d="m0 0v6.061c0 6.428 5.151 9.077 11.31 6.096 6.158-2.981 11.196-10.679 11.196-17.108v-5.873z" fill="#b3b5a5"/>
    </g>
    <g clip-path="url(#clipPath1162)" opacity=".7">
     <g transform="translate(851.94 213.6)">
      <path d="m0 0v6.061c0 6.428 5.151 9.077 11.31 6.096 6.158-2.981 11.196-10.679 11.196-17.108v-5.873z" fill="#e84658"/>
     </g>
    </g>
    <g transform="translate(874.63 205.8)">
     <path d="m0 0v-85.887l-22.51 10.895 3e-3 85.853z" fill="#b3b5a5"/>
    </g>
    <g transform="translate(851.94 216.66)">
     <path d="m0 0-4e-3 -85.854 22.51-10.894v85.887zm2.86-4.558 16.785-8.099v-79.528l-16.788 8.125z" fill="#282b34"/>
    </g>
    <g transform="translate(910.96 213.63)">
     <path d="m0 0v-74.175l56.935 29.654v74.188z" fill="#e6e9d7"/>
    </g>
    <g clip-path="url(#clipPath1166)" opacity=".7">
     <g transform="translate(966.34 240.11)">
      <path d="m0 0-54.308-28.689 1.534-69.557 11.633 5.011s-2.997 32.635-3.65 42.924c2.769 2.186 6.117 4.522 8.335 7.633 6.701 9.408 11.383 19.233 11.383 19.233s4.149-4.274 9.2-7.472c5.052-3.198 9.131-3.386 9.131-3.386l-4.651-41.36 11.393 4.614" fill="#e84658"/>
     </g>
    </g>
    <g transform="translate(967.9 243.3)">
     <path d="m0 0-56.935-29.667v-74.175l56.935 29.654zm-2.861-4.717v-67.736l-51.212-26.673v67.724z" fill="#282b34"/>
    </g>
    <g transform="translate(966.58 210.83)">
     <path d="m0 0-54.308-28.372" fill="none" stroke="#282b34" stroke-miterlimit="10" stroke-width="1.431"/>
    </g>
    <g transform="translate(941.13 227.41)">
     <path d="m0 0v-71.849" fill="none" stroke="#282b34" stroke-miterlimit="10" stroke-width="1.431"/>
    </g>
    <g transform="translate(840.77 210.58)">
     <path d="m0 0v-87.987l-31.699 15.629v82.417l7.111 8.189 12.261-3.042z" fill="#b3b5a5"/>
    </g>
    <g transform="translate(810.92 218.45)">
     <path d="m0 0s0 14.423 13.522 8.522c13.043-5.69 15.062-18.758 15.062-18.758l-0.365-16.461-27.855 14.323" fill="#282b34"/>
    </g>
    <g transform="translate(820.1 229.99)">
     <path d="m0 0c-7.073 0-11.026-6.696-11.026-6.696v-85.077l31.699-15.629v87.987s-5.896 14.455-15.926 18.451c-1.709 0.682-3.294 0.964-4.747 0.964m1e-3 -2.861c1.181 0 2.421-0.256 3.687-0.76 7.802-3.108 13.033-13.955 14.124-16.389v-82.792l-25.977 12.808v82.417c1.022 1.379 3.935 4.716 8.166 4.716" fill="#282b34"/>
    </g>
    <g transform="translate(838.77 191.94)">
     <path d="m0 0-27.85 14.26" fill="none" stroke="#282b34" stroke-miterlimit="10" stroke-width="1.431"/>
    </g>
    <g transform="translate(815.24 142.48)">
     <path d="m0 0v55.387l18.415-9.095v-55.386z" fill="none" stroke="#282b34" stroke-miterlimit="10" stroke-width="1.431"/>
    </g>
    <g transform="translate(816.92 166.8)">
     <path d="m0 0c0-1.189 0.751-2.153 1.679-2.153 0.927 0 1.679 0.964 1.679 2.153 0 1.188-0.752 2.152-1.679 2.152-0.928 0-1.679-0.964-1.679-2.152z" fill="none" stroke="#282b34" stroke-miterlimit="10" stroke-width="1.264"/>
    </g>
    <g transform="translate(823.18 225.04)">
     <path d="m0 0c-1.587 0.633-3.122 0.953-4.562 0.953-2.46 0-4.823-2.61-5.332-3.766v-14.184l23.118-11.398v13.026c-1.205 2.62-6.163 12.556-13.224 15.369" fill="#b3b5a5"/>
    </g>
    <g clip-path="url(#clipPath1170)" opacity=".7">
     <g transform="translate(823.18 225.04)">
      <path d="m0 0c-1.587 0.633-3.122 0.953-4.562 0.953-2.46 0-4.71-2.454-5.332-3.766v-14.184l23.118-11.398v13.026c-1.205 2.62-6.163 12.556-13.224 15.369" fill="#e84658"/>
     </g>
     <g clip-path="url(#clipPath1174)" opacity=".7">
      <g transform="translate(823.18 225.04)">
       <path d="m0 0c-1.587 0.633-3.122 0.953-4.562 0.953-2.46 0-4.71-2.454-5.332-3.766v-14.184l23.118-11.398v13.026c-1.205 2.62-6.163 12.556-13.224 15.369" fill="#e84658"/>
      </g>
     </g>
    </g>
    <g transform="translate(851.94 216.66)">
     <path d="m0 0-4e-3 -85.854 22.51-10.894v85.887zm2.86-4.558 16.785-8.099v-79.528l-16.788 8.125z" fill="#282b34"/>
    </g>
    <g transform="translate(853.68 157.16)">
     <path d="m0 0 19.395-9.359" fill="none" stroke="#282b34" stroke-miterlimit="10" stroke-width="1.431"/>
    </g>
    <g transform="translate(853.68 185.8)">
     <path d="m0 0 19.395-9.359" fill="none" stroke="#282b34" stroke-miterlimit="10" stroke-width="1.431"/>
    </g>
    <g transform="translate(858.45 226.97)">
     <path d="m0 0c-3.815 0-6.506-2.671-6.506-7.316v-6.061l22.506-10.824v5.873c0 6.429-5.038 14.127-11.196 17.108-1.708 0.826-3.339 1.221-4.804 1.22m1e-3 -2.86c1.063 0 2.293-0.324 3.557-0.936 5.193-2.514 9.581-9.169 9.581-14.532v-1.322l-16.784 8.072v4.262c0 1.664 0.474 4.455 3.646 4.456" fill="#282b34"/>
    </g>
    <g transform="translate(863.2 209.29)">
     <path d="m0 0v-82.335" fill="none" stroke="#282b34" stroke-miterlimit="10" stroke-width="1.431"/>
    </g>
    <g transform="translate(851.94 216.66)">
     <path d="m0 0-4e-3 -85.854 22.51-10.894v85.887zm2.86-4.558 16.785-8.099v-79.528l-16.788 8.125z" fill="#282b34"/>
    </g>
    <g transform="translate(891.69 298.29)">
     <path d="m0 0c-1.004 0.683-2.014 1.163-3.261 1.52-3.732 1.067-6.212-0.418-8.721-3.012-1.316-1.361-2.495-2.861-3.8-4.235-1.185-1.247-2.267-2.608-3.615-3.688-1.122-0.898-2.863-2.064-4.315-2.196-0.831-0.077-1.659 0.183-2.39 0.56 0.221-0.114-0.882-1.362 1.31-3.555 2.055-2.055 5.389-2.804 8.322-3.046 3.573-0.295 6.802 1.145 9.417 3.506 1.591 1.436 2.855 3.228 3.511 5.279 0.588 1.842 0.6 4.14 2.472 5.215 1.645 0.943 3.943 0.883 5.764 0.776-1.363 1.108-2.953 1.61-4.298 2.596-0.132 0.097-0.264 0.19-0.396 0.28" fill="#44aef2"/>
    </g>
    <g transform="translate(891.69 298.29)">
     <path d="m0 0c-1.004 0.683-2.014 1.163-3.261 1.52-3.732 1.067-6.212-0.418-8.721-3.012-1.316-1.361-2.495-2.861-3.8-4.235-1.185-1.247-2.267-2.608-3.615-3.688-1.122-0.898-2.863-2.064-4.315-2.196-0.831-0.077-1.659 0.183-2.39 0.56 0.221-0.114-0.882-1.362 1.31-3.555 2.055-2.055 5.389-2.804 8.322-3.046 3.573-0.295 6.802 1.145 9.417 3.506 1.591 1.436 2.855 3.228 3.511 5.279 0.588 1.842 0.6 4.14 2.472 5.215 1.645 0.943 3.943 0.883 5.764 0.776-1.363 1.108-2.953 1.61-4.298 2.596-0.132 0.097-0.264 0.19-0.396 0.28z" fill="none" stroke="#282b34" stroke-linecap="round" stroke-linejoin="round" stroke-miterlimit="10" stroke-width="1.431"/>
    </g>
    <g transform="translate(898.27 310.97)">
     <path d="m0 0c0.099 0.103 0.194 0.209 0.289 0.318 0.556 0.642 0.948 1.338 1.736 1.745 5.704 2.941 9.428-3.638 12.631-7.01 1.185-1.247 2.268-2.609 3.615-3.689 0.91-0.727 1.903-1.413 2.989-1.846 1.41-0.565 2.695-0.213 3.754 0.83-0.022-0.022 0.083-1.237 0.04-1.423-0.102-0.436-0.313-0.921-0.572-1.288-3.69-5.245-11.647-5.847-16.713-2.436-2.47 1.663-4.444 3.871-5.352 6.711-0.525 1.644-0.454 4.268-2.309 4.987-1.385 0.538-3.075 0.171-4.516 0.151 1.674 0.874 3.175 1.658 4.408 2.95" fill="#44aef2"/>
    </g>
    <g transform="translate(898.27 310.97)">
     <path d="m0 0c0.099 0.103 0.194 0.209 0.289 0.318 0.556 0.642 0.948 1.338 1.736 1.745 5.704 2.941 9.428-3.638 12.631-7.01 1.185-1.247 2.268-2.609 3.615-3.689 0.91-0.727 1.903-1.413 2.989-1.846 1.41-0.565 2.695-0.213 3.754 0.83-0.022-0.022 0.083-1.237 0.04-1.423-0.102-0.436-0.313-0.921-0.572-1.288-3.69-5.245-11.647-5.847-16.713-2.436-2.47 1.663-4.444 3.871-5.352 6.711-0.525 1.644-0.454 4.268-2.309 4.987-1.385 0.538-3.075 0.171-4.516 0.151 1.674 0.874 3.175 1.658 4.408 2.95z" fill="none" stroke="#282b34" stroke-linecap="round" stroke-linejoin="round" stroke-miterlimit="10" stroke-width="1.431"/>
    </g>
    <g transform="translate(925.45 150.05)">
     <path d="m0 0-3.898 39.744s7.565 3.211 19.581 26.583c3.498-4.89 14.209-12.13 18.467-10.575-0.834-7.416-4.65-41.36-4.65-41.36" fill="none" stroke="#282b34" stroke-miterlimit="10" stroke-width="1.431"/>
    </g>
    <g transform="translate(886.77 298.08)">
     <path d="m0 0c-1.618 0-1.62-2.515 0-2.515 1.618 0 1.621 2.515 0 2.515" fill="#282b34"/>
    </g>
    <g transform="translate(902.54 311.85)">
     <path d="m0 0c-0.134 0.064-0.288 0.104-0.469 0.104-1.381 0-1.383-2.146 0-2.146 0.592 0 0.915 0.397 0.999 0.849 0.176 0.454-5e-3 1.04-0.53 1.193" fill="#282b34"/>
    </g>
    <g transform="translate(873.65 280.82)">
     <path d="m0 0v-5.095s0-1.656 1.854-1.656" fill="none" stroke="#282b34" stroke-linecap="round" stroke-linejoin="round" stroke-miterlimit="10" stroke-width="1.431"/>
    </g>
    <g transform="translate(878.75 280.9)">
     <path d="m0 0 0.435-4.816s0.308-1.423 2.153-1.257" fill="none" stroke="#282b34" stroke-linecap="round" stroke-linejoin="round" stroke-miterlimit="10" stroke-width="1.431"/>
    </g>
    <g transform="translate(911.4 294.18)">
     <path d="m0 0c0-0.277 0.227-4.561 0-5.479-0.227-0.917-0.97-2.883-2.98-3.146" fill="none" stroke="#282b34" stroke-linecap="round" stroke-linejoin="round" stroke-miterlimit="10" stroke-width="1.431"/>
    </g>
    <g transform="translate(916.1 294.35)">
     <path d="m0 0c0.571-2.156 1.228-4.821 1.228-5.87s-0.095-2.798-1.228-3.278" fill="none" stroke="#282b34" stroke-linecap="round" stroke-linejoin="round" stroke-miterlimit="10" stroke-width="1.431"/>
    </g>
    <g transform="translate(921.6 114.72)">
     <path d="m0 0v-24.006" fill="none" stroke="#31d389" stroke-miterlimit="10" stroke-width="2.108"/>
    </g>
    <g transform="translate(929.4 105.67)">
     <path d="m0 0c-3.125-4.356-7.798-6.354-7.798-6.354s0.395 5.067 3.521 9.423c3.125 4.357 7.798 6.354 7.798 6.354s-0.395-5.067-3.521-9.423" fill="#31d389"/>
    </g>
    <g transform="translate(918.23 108.57)">
     <path d="m0 0c2.771-4.59 2.765-9.671 2.765-9.671s-4.5 2.359-7.272 6.949c-2.771 4.59-2.764 9.672-2.764 9.672s4.5-2.36 7.271-6.95" fill="#31d389"/>
    </g>
    <g transform="translate(913.31 123.87)">
     <path d="m0 0c3.304 1.754 7.946-0.522 7.946-0.522s-0.713-5.123-4.016-6.877c-3.304-1.755-7.948 0.522-7.948 0.522s0.714 5.122 4.018 6.877" fill="#dae58c"/>
    </g>
    <g transform="translate(929.2 122.83)">
     <path d="m0 0c-3.304-1.755-7.947 0.522-7.947 0.522s0.714 5.122 4.017 6.876c3.304 1.755 7.948-0.522 7.948-0.522s-0.714-5.121-4.018-6.876" fill="#dae58c"/>
    </g>
    <g transform="translate(917.61 130.43)">
     <path d="m0 0c3.205-1.928 3.645-7.08 3.645-7.08s-4.758-2.026-7.963-0.099c-3.206 1.929-3.646 7.081-3.646 7.081s4.758 2.027 7.964 0.098" fill="#dae58c"/>
    </g>
    <g transform="translate(924.9 116.27)">
     <path d="m0 0c-3.205 1.928-3.646 7.081-3.646 7.081s4.758 2.026 7.964 0.098 3.646-7.081 3.646-7.081-4.758-2.027-7.964-0.098" fill="#dae58c"/>
    </g>
    <g transform="translate(925.45 130.12)">
     <path d="m0 0c-2e-3 -3.741-4.192-6.771-4.192-6.771s-4.187 3.034-4.186 6.775c2e-3 3.74 4.192 6.771 4.192 6.771s4.188-3.035 4.186-6.775" fill="#dae58c"/>
    </g>
    <g transform="translate(917.06 116.58)">
     <path d="m0 0c2e-3 3.74 4.191 6.771 4.191 6.771s4.188-3.035 4.187-6.775c-2e-3 -3.741-4.192-6.771-4.192-6.771s-4.188 3.034-4.186 6.775" fill="#dae58c"/>
    </g>
    <g transform="translate(925.53 123.27)">
     <path d="m0 0c0-2.168-1.758-3.925-3.926-3.925s-3.926 1.757-3.926 3.925 1.758 3.926 3.926 3.926 3.926-1.758 3.926-3.926" fill="#e6e9d7"/>
    </g>
    <g clip-path="url(#clipPath1178)" opacity=".7">
     <g transform="translate(925.53 123.27)">
      <path d="m0 0c0-2.168-1.758-3.925-3.926-3.925s-3.926 1.757-3.926 3.925 1.758 3.926 3.926 3.926 3.926-1.758 3.926-3.926" fill="#e84658"/>
     </g>
    </g>
    <g transform="translate(946.01 128.11)">
     <path d="m0 0v-24.007" fill="none" stroke="#31d389" stroke-miterlimit="10" stroke-width="2.108"/>
    </g>
    <g transform="translate(953.81 119.07)">
     <path d="m0 0c-3.126-4.356-7.799-6.354-7.799-6.354s0.396 5.067 3.521 9.422c3.126 4.357 7.799 6.354 7.799 6.354s-0.396-5.066-3.521-9.422" fill="#31d389"/>
    </g>
    <g transform="translate(942.63 121.96)">
     <path d="m0 0c2.771-4.59 2.765-9.671 2.765-9.671s-4.5 2.36-7.272 6.95c-2.771 4.59-2.764 9.671-2.764 9.671s4.5-2.36 7.271-6.95" fill="#31d389"/>
    </g>
    <g transform="translate(937.71 137.26)">
     <path d="m0 0c3.304 1.755 7.947-0.522 7.947-0.522s-0.714-5.123-4.017-6.877c-3.304-1.754-7.947 0.522-7.947 0.522s0.713 5.122 4.017 6.877" fill="#dae58c"/>
    </g>
    <g transform="translate(953.61 136.22)">
     <path d="m0 0c-3.305-1.755-7.947 0.522-7.947 0.522s0.713 5.123 4.017 6.877c3.304 1.755 7.947-0.522 7.947-0.522s-0.713-5.122-4.017-6.877" fill="#dae58c"/>
    </g>
    <g transform="translate(942.01 143.82)">
     <path d="m0 0c3.206-1.929 3.646-7.081 3.646-7.081s-4.758-2.026-7.964-0.098c-3.205 1.928-3.645 7.08-3.645 7.08s4.758 2.027 7.963 0.099" fill="#dae58c"/>
    </g>
    <g transform="translate(949.3 129.66)">
     <path d="m0 0c-3.206 1.929-3.646 7.081-3.646 7.081s4.758 2.026 7.963 0.099c3.206-1.929 3.646-7.081 3.646-7.081s-4.758-2.027-7.963-0.099" fill="#dae58c"/>
    </g>
    <g transform="translate(949.85 143.51)">
     <path d="m0 0c-2e-3 -3.741-4.192-6.771-4.192-6.771s-4.188 3.034-4.186 6.775 4.191 6.771 4.191 6.771 4.188-3.034 4.187-6.775" fill="#dae58c"/>
    </g>
    <g transform="translate(941.47 129.97)">
     <path d="m0 0c2e-3 3.741 4.192 6.771 4.192 6.771s4.188-3.034 4.186-6.775-4.192-6.771-4.192-6.771-4.188 3.034-4.186 6.775" fill="#dae58c"/>
    </g>
    <g transform="translate(949.93 136.66)">
     <path d="m0 0c0-2.168-1.758-3.926-3.926-3.926s-3.926 1.758-3.926 3.926 1.758 3.926 3.926 3.926 3.926-1.758 3.926-3.926" fill="#e6e9d7"/>
    </g>
    <g clip-path="url(#clipPath1182)" opacity=".7">
     <g transform="translate(949.93 136.66)">
      <path d="m0 0c0-2.168-1.758-3.926-3.926-3.926s-3.926 1.758-3.926 3.926 1.758 3.926 3.926 3.926 3.926-1.758 3.926-3.926" fill="#e84658"/>
     </g>
    </g>
    <g transform="translate(970.41 141.5)">
     <path d="m0 0v-24.006" fill="none" stroke="#31d389" stroke-miterlimit="10" stroke-width="2.108"/>
    </g>
    <g transform="translate(978.21 132.46)">
     <path d="m0 0c-3.126-4.356-7.798-6.354-7.798-6.354s0.395 5.067 3.521 9.423c3.125 4.357 7.798 6.354 7.798 6.354s-0.395-5.067-3.521-9.423" fill="#31d389"/>
    </g>
    <g transform="translate(967.03 135.35)">
     <path d="m0 0c2.771-4.59 2.765-9.671 2.765-9.671s-4.5 2.359-7.272 6.949c-2.771 4.59-2.764 9.672-2.764 9.672s4.5-2.36 7.271-6.95" fill="#31d389"/>
    </g>
    <g transform="translate(962.12 150.65)">
     <path d="m0 0c3.304 1.755 7.946-0.521 7.946-0.521s-0.713-5.123-4.016-6.877c-3.305-1.755-7.948 0.522-7.948 0.522s0.714 5.122 4.018 6.876" fill="#dae58c"/>
    </g>
    <g transform="translate(978.01 149.61)">
     <path d="m0 0c-3.304-1.755-7.947 0.522-7.947 0.522s0.714 5.122 4.017 6.876c3.304 1.755 7.948-0.522 7.948-0.522s-0.714-5.122-4.018-6.876" fill="#dae58c"/>
    </g>
    <g transform="translate(966.42 157.21)">
     <path d="m0 0c3.205-1.928 3.645-7.08 3.645-7.08s-4.758-2.026-7.963-0.099c-3.206 1.929-3.646 7.081-3.646 7.081s4.758 2.027 7.964 0.098" fill="#dae58c"/>
    </g>
    <g transform="translate(973.71 143.05)">
     <path d="m0 0c-3.206 1.928-3.646 7.081-3.646 7.081s4.758 2.026 7.964 0.098c3.205-1.928 3.646-7.081 3.646-7.081s-4.758-2.027-7.964-0.098" fill="#dae58c"/>
    </g>
    <g transform="translate(974.25 156.9)">
     <path d="m0 0c-2e-3 -3.741-4.192-6.771-4.192-6.771s-4.188 3.034-4.186 6.775c2e-3 3.74 4.192 6.771 4.192 6.771s4.188-3.035 4.186-6.775" fill="#dae58c"/>
    </g>
    <g transform="translate(965.87 143.36)">
     <path d="m0 0c1e-3 3.74 4.191 6.771 4.191 6.771s4.188-3.035 4.186-6.775c-1e-3 -3.741-4.191-6.771-4.191-6.771s-4.188 3.034-4.186 6.775" fill="#dae58c"/>
    </g>
    <g transform="translate(974.34 150.05)">
     <path d="m0 0c0-2.168-1.757-3.926-3.925-3.926s-3.926 1.758-3.926 3.926 1.758 3.926 3.926 3.926 3.925-1.758 3.925-3.926" fill="#e6e9d7"/>
    </g>
    <g clip-path="url(#clipPath1186)" opacity=".7">
     <g transform="translate(974.34 150.05)">
      <path d="m0 0c0-2.168-1.757-3.926-3.925-3.926s-3.926 1.758-3.926 3.926 1.758 3.926 3.926 3.926 3.925-1.758 3.925-3.926" fill="#e84658"/>
     </g>
    </g>
   </g>
  </g>
 </g>
</svg>
