<?xml version="1.0" encoding="UTF-8"?>
<!-- Created with Inkscape (http://www.inkscape.org/) -->
<svg width="66.275mm" height="98.819mm" version="1.1" viewBox="0 0 66.275 98.819" xmlns="http://www.w3.org/2000/svg" xmlns:cc="http://creativecommons.org/ns#" xmlns:dc="http://purl.org/dc/elements/1.1/" xmlns:rdf="http://www.w3.org/1999/02/22-rdf-syntax-ns#">
 <defs>
  <clipPath id="clipPath814">
   <path d="m602.39 505.23h187.87v-280.12h-187.87z"/>
  </clipPath>
  <clipPath id="clipPath818">
   <path d="m623.89 450.46h72.224v-37.693h-72.224z"/>
  </clipPath>
  <clipPath id="clipPath822">
   <path d="m720.45 355.77h17.515v-21.088h-17.515z"/>
  </clipPath>
  <clipPath id="clipPath826">
   <path d="m754.05 371.77h17.515v-21.088h-17.515z"/>
  </clipPath>
  <clipPath id="clipPath830">
   <path d="m622.32 368.54h47.195v-60.538h-47.195z"/>
  </clipPath>
 </defs>
 <metadata>
  <rdf:RDF>
   <cc:Work rdf:about="">
    <dc:format>image/svg+xml</dc:format>
    <dc:type rdf:resource="http://purl.org/dc/dcmitype/StillImage"/>
    <dc:title/>
   </cc:Work>
  </rdf:RDF>
 </metadata>
 <g transform="translate(-134.68 -62.382)">
  <g transform="matrix(.35278 0 0 -.35278 -77.824 240.61)">
   <g clip-path="url(#clipPath814)" opacity=".8">
    <g transform="translate(701.37 226.56)">
     <path d="m0 0 79.356 38.708" fill="#e6e9d7"/>
    </g>
    <g transform="translate(775.31 421.21)">
     <path d="m0 0c3.767-1.84 3.771-4.85 0-6.694l-72.349-35.348c-3.771-1.846-9.937-1.846-13.704-6e-3l-72.469 35.363c-3.767 1.841-3.772 4.85 0 6.695l72.347 35.353c3.773 1.845 9.938 1.845 13.704 5e-3z" fill="#2887bc"/>
    </g>
    <g transform="translate(788.95 413.13)">
     <path d="m0 0c-0.015 3.99-2.96 8.69-6.544 10.441l-79.89 39.043c-1.923 0.94-4.504 1.37-7.038 1.302v-7.918c2.534 0.07 5.115-0.361 7.038-1.301l68.951-33.65c3.584-1.751 3.588-4.614 0-6.37l-68.835-33.631c-3.588-1.755-9.454-1.755-13.038-5e-3l-68.951 33.646c-3.584 1.751-3.589 4.614 0 6.37l25.375 12.399-5.319 5.32-31.111-15.205c-3.584-1.751-6.53-6.451-6.539-10.441l-0.092-136.52c-0.015-3.991 2.906-8.687 6.495-10.433l80.025-39.048c3.584-1.75 9.455-1.75 13.039 0l80.026 39.048c3.589 1.746 6.51 6.442 6.5 10.433z" fill="#44aef2"/>
    </g>
    <g transform="translate(689.47 454.7)">
     <path d="m0 0c1.662 0.813 3.814 1.245 6.001 1.305v7.918c-2.187-0.06-4.339-0.491-6.001-1.302l-48.778-23.838 5.319-5.32z" fill="#44aef2"/>
    </g>
    <g transform="translate(689.47 454.7)">
     <path d="m0 0c1.662 0.813 3.814 1.245 6.001 1.305v7.918c-2.187-0.06-4.339-0.491-6.001-1.302l-48.778-23.838 5.319-5.32z" fill="#2887bc"/>
    </g>
    <g transform="translate(651.27 400.23)">
     <path d="m0 0 38.348-18.712c3.55-1.735 9.363-1.735 12.919 4e-3l44.842 21.91" fill="none" stroke="#282b34" stroke-miterlimit="10" stroke-width=".967"/>
    </g>
    <g transform="translate(788.95 413.13)">
     <path d="m0 0c-0.015 3.99-2.96 8.69-6.544 10.441l-22.402 10.949c-2.025-1.652-3.96-3.348-5.932-4.984l17.395-8.489c3.584-1.751 3.588-4.614 0-6.37l-68.835-33.631c-2.01-0.983-4.735-1.415-7.372-1.298v-153.92c2.602-0.1 5.278 0.33 7.256 1.296l80.026 39.048c3.589 1.746 6.51 6.442 6.5 10.433z" fill="#44aef2"/>
    </g>
    <g transform="translate(689.59 381.05)">
     <path d="m0 0-68.95 33.646c-3.584 1.751-3.589 4.614 0 6.37l34.127 16.676-5.288 5.335-39.895-19.497c-3.584-1.751-6.529-6.451-6.539-10.441l-0.092-136.52c-0.014-3.99 2.907-8.686 6.495-10.432l80.026-39.048c1.605-0.784 3.67-1.214 5.782-1.296v153.92c-2.071 0.092-4.09 0.523-5.666 1.293" fill="#44aef2"/>
    </g>
    <g transform="translate(689.59 381.05)">
     <path d="m0 0-68.95 33.646c-3.584 1.751-3.589 4.614 0 6.37l34.127 16.676-5.288 5.335-39.895-19.497c-3.584-1.751-6.529-6.451-6.539-10.441l-0.092-136.52c-0.014-3.99 2.907-8.686 6.495-10.432l80.026-39.048c1.605-0.784 3.67-1.214 5.782-1.296v153.92c-2.071 0.092-4.09 0.523-5.666 1.293" fill="#2887bc"/>
    </g>
    <g transform="translate(603.43 406.98)">
     <path d="m0 0 86.048-42.438c3.584-1.75 9.455-1.75 13.039 0l86.137 42.11" fill="none" stroke="#282b34" stroke-miterlimit="10" stroke-width=".967"/>
    </g>
    <g transform="translate(695.47 449.75)">
     <path d="m0 0 72.624-35.857 5.772 2.886v2.185l-72.031 35.599-6.365 1.076z" fill="#2887bc"/>
    </g>
    <g transform="translate(696 456.01)">
     <path d="m0 0c-2.365 0-4.73-0.438-6.526-1.317l-68.834-33.637c-3.589-1.755-3.584-4.618 0-6.369l68.95-33.646c1.791-0.874 4.151-1.312 6.513-1.312 2.364 0 4.73 0.439 6.526 1.317l68.834 33.631c3.589 1.756 3.584 4.619 0 6.37l-68.95 33.651c-1.791 0.875-4.152 1.312-6.513 1.312m0-0.967c2.289 0 4.508-0.443 6.088-1.215l68.95-33.65c1.364-0.667 2.148-1.51 2.148-2.314 0-0.805-0.783-1.65-2.148-2.317l-68.835-33.632c-1.606-0.786-3.773-1.219-6.1-1.219-2.29 0-4.509 0.443-6.089 1.214l-68.951 33.646c-1.364 0.667-2.146 1.511-2.146 2.315 0 0.805 0.782 1.649 2.146 2.317l68.835 33.636c1.608 0.786 3.774 1.219 6.102 1.219" fill="#282b34"/>
    </g>
    <g clip-path="url(#clipPath818)" opacity=".5">
     <g transform="translate(624.61 412.77)">
      <path d="m0 0c-0.26 0-0.51 0.142-0.638 0.39-0.179 0.351-0.04 0.782 0.312 0.963l70.867 36.262c0.104 0.053 0.325 0.078 0.325 0.078v-0.725l0.642-0.307s-0.173-0.247-0.316-0.32l-70.867-36.262c-0.104-0.054-0.215-0.079-0.325-0.079" fill="#2887bc"/>
     </g>
    </g>
    <g transform="translate(775.86 421.04)">
     <path d="m0 0c3.777-1.845 3.783-4.863 0-6.713l-72.554-35.449c-3.783-1.851-9.966-1.851-13.743-5e-3l-72.678 35.464c-3.777 1.845-3.782 4.863 0 6.713l72.555 35.454c3.783 1.851 9.966 1.851 13.743 6e-3z" fill="#1d5f8d"/>
    </g>
    <g transform="translate(789.53 412.93)">
     <path d="m0 0c-0.015 4.001-2.968 8.716-6.562 10.471l-80.118 39.155c-1.929 0.942-4.517 1.374-7.058 1.305v-7.941c2.541 0.07 5.129-0.361 7.058-1.303l69.147-33.748c3.595-1.755 3.599-4.626 0-6.387l-69.03-33.727c-3.599-1.761-9.483-1.761-13.077-5e-3l-69.147 33.742c-3.594 1.755-3.599 4.627 0 6.387l25.448 12.435-5.335 5.335-31.2-15.248c-3.594-1.755-6.548-6.47-6.558-10.471l-0.091-27.868c-0.015-4.002 7.442 5.199 11.042 3.448l75.725-30.226c3.594-1.756 99.858 22.776 99.849 26.778z" fill="#44aef2"/>
    </g>
    <g transform="translate(689.78 454.61)">
     <path d="m0 0c1.667 0.815 3.825 1.248 6.018 1.309v7.94c-2.193-0.06-4.351-0.492-6.018-1.305l-48.918-23.906 5.335-5.335z" fill="#44aef2"/>
    </g>
    <g transform="translate(689.78 454.61)">
     <path d="m0 0c1.667 0.815 3.825 1.248 6.018 1.309v7.94c-2.193-0.06-4.351-0.492-6.018-1.305l-48.918-23.906 5.335-5.335z" fill="#2887bc"/>
    </g>
    <g transform="translate(662.97 444.94)">
     <path d="m0 0c2.663 1.146 5.326 2.292 7.989 3.439 4.932 2.123 9.864 4.246 14.795 6.368l4.295 1.849c0.535 0.23 1.069 0.505 1.619 0.697 1.239 0.431 2.244 1.194 3.1 2.227 0.37 0.446 0.7 1.001 1.149 1.369 0.098-0.618 0.441-1.161 0.37-1.798-0.094-0.854-0.125-1.774-0.355-2.602-0.118-0.421-0.359-0.706-0.724-0.936-0.331-0.209-0.538-0.178-0.921-0.135-0.917 0.104-1.802-0.347-2.647-0.634-2.377-0.808-4.672-1.855-6.9-3.006-8.303-4.286-23.173-11.346-23.173-11.346z" fill="#44aef2"/>
    </g>
    <g transform="translate(696.32 455.94)">
     <path d="m0 0c-2.372 0-4.744-0.44-6.545-1.321l-69.031-33.732c-3.599-1.761-3.594-4.632 0-6.388l69.147-33.742c1.796-0.877 4.163-1.316 6.532-1.316 2.372 0 4.744 0.44 6.544 1.321l69.031 33.728c3.599 1.76 3.594 4.632 0 6.387l-69.147 33.747c-1.796 0.877-4.163 1.316-6.531 1.316m0-1.431c2.229 0 4.38-0.426 5.903-1.171l69.147-33.746c1.169-0.571 1.894-1.302 1.895-1.908 0-0.606-0.726-1.337-1.895-1.909l-69.031-33.728c-1.528-0.747-3.684-1.175-5.916-1.175-2.229 0-4.38 0.426-5.904 1.171l-69.146 33.742c-1.169 0.571-1.895 1.301-1.896 1.907 0 0.606 0.727 1.338 1.896 1.91l69.031 33.732c1.526 0.747 3.684 1.175 5.916 1.175" fill="#282b34"/>
    </g>
    <g transform="translate(651.47 400)">
     <path d="m0 0 38.457-18.766c3.561-1.739 9.39-1.739 12.956 5e-3l44.971 21.972" fill="none" stroke="#282b34" stroke-miterlimit="10" stroke-width="1.431"/>
    </g>
    <g transform="translate(614.29 385.34)">
     <path d="m0 0c-3.599 1.751-11.298-4.276-11.283-0.275l0.092 27.868c9e-3 4.002 2.963 8.716 6.557 10.471l2.945 1.439 37.068 18.117 5.302-5.354-34.228-16.724c-3.599-1.76-3.594-4.631 0-6.387l69.148-33.742c1.581-0.771 3.608-1.203 5.684-1.295 1.135-0.053 2.289 0 3.395 0.151-1.809-1.528-2.769-5.069-2.6-10.933 0.272-9.229-82.08 16.664-82.08 16.664" fill="#44aef2"/>
    </g>
    <g transform="translate(701.04 347.24)">
     <path d="m0 0c0 4.709-5.618 11.913-5.89 21.143-0.17 5.863 1.393 9.694 3.202 11.222l4e-3 5e-3c1.465 0.198 2.847 0.582 3.992 1.144l69.031 33.728c3.599 1.76 3.594 4.631 0 6.387l-17.441 8.512c1.974 1.644 3.919 3.341 5.947 5l22.465-10.98c3.593-1.756 6.547-6.47 6.562-10.472l0.092-27.868c0.01-4.001-87.964-42.53-87.964-37.821" fill="#44aef2"/>
    </g>
    <g transform="translate(695.58 342.43)">
     <path d="m0 0v1.904l-83.034 36.589c-3.599 1.751-9.55 0.144-9.535 4.145l0.091 27.869c0.01 4.001 2.964 8.715 6.558 10.471l16.104 7.87 23.909 11.686 5.302-5.355-34.228-16.723c-3.599-1.761-3.594-4.632 0-6.388l69.147-33.741c1.582-0.771 3.828-1.233 5.685-1.295 0.922-0.031 2.756-0.113 5.461 0.575 0 0 0.865 0.208 2.166 0.839 11.52 5.587 68.228 33.298 69.28 33.869 1.104 0.6 2.211 1.761 2.211 2.881 0 0.73-0.34 1.491-1.017 2.126-0.744 0.743-3.733 2.127-3.733 2.127l-67.255 32.831c-0.78 0.375-1.712 0.775-2.591 0.696-1.2-0.108-2.387 0.263-3.597 0.263-1.07 0-2.111-0.051-3.171-0.207-0.755-0.111-1.512-0.232-2.256-0.404-0.252-0.058-0.597-0.238-0.851-0.215 0.254 0.438 1.111 0.755 1.551 0.972 0.643 0.317 1.299 0.58 1.998 0.746 2.432 0.579 4.957 0.425 7.232-0.597 1.048-0.471 2.095-0.941 3.142-1.412 1.398-0.628 2.794-1.255 4.191-1.883 1.672-0.751 3.344-1.503 5.014-2.254 1.872-0.841 3.744-1.682 5.615-2.523 1.997-0.898 3.994-1.795 5.99-2.692 2.048-0.921 4.095-1.841 6.142-2.761 2.024-0.91 4.047-1.819 6.071-2.729 1.925-0.865 3.848-1.73 5.773-2.595 1.752-0.788 3.503-1.575 5.254-2.362 1.503-0.676 3.007-1.352 4.51-2.028l3.542-1.592c0.782-0.352 1.565-0.704 2.349-1.057 0.311-0.14 0.623-0.279 0.933-0.42 9.44-4.818 14.345-7.153 16.231-8.493 1.562-1.11 3.641-2.02 3.29-4.194-0.252-1.553-2.703-3.248-5.446-4.793-20.37-11.142-69.211-34.667-73.246-36.277-1.071-0.428-3.414-2.289-3.921-3.443-1.193-2.714-0.861-2.886-0.861-8.88z" fill="#2887bc"/>
    </g>
    <g transform="translate(648.27 438.33)">
     <path d="m0 0c-1.482-0.769-2.965-1.539-4.447-2.308-3.334-1.73-6.669-3.46-10.003-5.191-0.415-0.415-1.019-0.584-1.537-0.824-0.617-0.285-1.217-0.616-1.823-0.926-1.322-0.676-2.644-1.352-3.967-2.028-0.275 0-0.793-0.406-1.044-0.534-0.383-0.196-0.765-0.391-1.148-0.587-0.765-0.392-1.531-0.783-2.297-1.174-1.431-0.732-2.918-1.395-4.245-2.303-1.111-0.759-2.086-1.883-1.998-3.314 0.068-1.102 0.561-2.181 1.427-2.88 0.497-0.402 1.101-0.532 1.661-0.806 0.114-0.056 1.16-0.348 1.121-0.249-0.254 0.652-0.989 0.997-1.3 1.647-0.171 0.36-0.211 0.742-0.112 1.133 0.418 1.663 2.392 2.562 3.775 3.239 1.181 0.578 2.363 1.157 3.543 1.735l10.128 4.959c3.866 1.892 7.73 3.784 11.595 5.676 3.318 1.625 6.637 3.25 9.955 4.875 1.737 0.85 3.475 1.7 5.211 2.551 0.068 0.033 0.135 0.066 0.202 0.099-0.09 0.673 0.09 3.169 0 3.828-8.312-3.675-14.697-6.618-14.697-6.618" fill="#44aef2"/>
    </g>
    <g transform="translate(603.21 414.18)">
     <path d="m0 0c-0.111-1.944 0.749-3.486 3.625-4.782l82.302-39.406c1.772-0.865 4.101-1.304 6.438-1.316 2.337-0.013 4.666 0.451 6.438 1.316l83.65 40.268c2.876 1.295 3.854 2.898 3.643 4.804" fill="none" stroke="#282b34" stroke-miterlimit="10" stroke-width="1.431"/>
    </g>
    <g transform="translate(662.97 444.94)">
     <path d="m0 0c2.035 0.876 19.935 9.51 28.467 13.699 4.509 1.795 4.255 4.863 4.361 4.95 0.097-0.618 0.561-3.861 0.489-4.498-0.094-0.854-0.124-1.774-0.355-2.602-0.118-0.421-0.359-0.706-0.724-0.936-0.331-0.209-0.538-0.178-0.921-0.135-0.917 0.104-1.802-0.347-2.647-0.634-2.377-0.808-4.671-1.855-6.9-3.006-8.302-4.286-23.172-11.346-23.172-11.346z" fill="#44aef2"/>
    </g>
    <g transform="translate(696.32 455.94)">
     <path d="m0 0c-2.372 0-4.744-0.44-6.545-1.321l-69.031-33.732c-3.599-1.761-3.594-4.632 0-6.388l69.147-33.742c1.796-0.877 4.163-1.316 6.532-1.316 2.372 0 4.744 0.44 6.544 1.321l69.031 33.728c3.599 1.76 3.594 4.632 0 6.387l-69.147 33.747c-1.796 0.877-4.163 1.316-6.531 1.316m0-1.431c2.229 0 4.38-0.426 5.903-1.171l69.147-33.746c1.169-0.571 1.894-1.302 1.895-1.908 0-0.606-0.726-1.337-1.895-1.909l-69.031-33.728c-1.528-0.747-3.684-1.175-5.916-1.175-2.229 0-4.38 0.426-5.904 1.171l-69.146 33.742c-1.169 0.571-1.895 1.301-1.896 1.907 0 0.606 0.727 1.338 1.896 1.91l69.031 33.732c1.526 0.747 3.684 1.175 5.916 1.175" fill="#282b34"/>
    </g>
    <g transform="translate(716.44 455.92)">
     <path d="m0 0c20.812-10.17 61.091-29.855 64.309-31.428 4.355-2.129 5.337-3.49 6.822-5.442 1.484-1.951 1.965-4.157 1.965-6.695s-0.176-132.94-0.176-136.28c0-2.757-0.771-6.347-8.638-10.803 0 0-66.01-32.052-72.736-35.491-6.727-3.439-8.173-3.954-12.071-3.954-3.899 0-6.821 1.11-6.821 1.11s-73.999 36.108-79.08 38.587c-5.08 2.479-6.739 7.494-6.739 10.266 0.013 4.476-0.183 133.99-0.175 136.46 9e-3 2.73 0.478 4.729 2.501 7.603s6.943 4.972 6.943 4.972" fill="none" stroke="#282b34" stroke-linecap="round" stroke-linejoin="round" stroke-miterlimit="10" stroke-width="1.431"/>
    </g>
    <g transform="translate(612.54 424.81)">
     <path d="m0 0 65.661 32.089c6.628 3.239 11.641 7.594 18.614 6.961 4.081 0.34 7.347-1.946 7.347-1.946s4.923-2.406 12.274-5.999" fill="none" stroke="#282b34" stroke-linecap="round" stroke-linejoin="round" stroke-miterlimit="10" stroke-width="1.431"/>
    </g>
    <g transform="translate(700.86 442.58)">
     <path d="m0 0c-5.378 0-4.792-7.439-4.792-7.439v-11.344c0-1.145 1.917-2.06 4.277-2.06 2.361 0 4.264 0.915 4.264 2.06v9.527l2.417 3.005c0 1.373 0.187 6.251-6.166 6.251" fill="#44aef2"/>
    </g>
    <g transform="translate(705.78 414.17)">
     <path d="m0 0-11.645-5.679c-1.903-0.93-5.036-0.93-6.938 0l-20.1 9.613-9.856 4.821c-0.873 0.429-1.345 0.987-1.416 1.559-0.086 0.659 0.386 1.331 1.416 1.832l21.501 10.471c1.903 0.945 5.036 0.945 6.938 0l10.386-5.007v-7.982c0-1.145 1.917-2.06 4.277-2.06 2.361 0 4.264 0.915 4.264 2.06v3.876l11.029-5.321c1.031-0.501 1.502-1.173 1.416-1.831-0.071-0.572-0.543-1.13-1.416-1.56z" fill="#2887bc"/>
    </g>
    <g transform="translate(692.07 407.9)">
     <path d="m0 0c-1.675-0.243-3.566-0.055-4.878 0.586l-20.1 9.614-9.856 4.821c-0.872 0.429-1.345 0.987-1.416 1.559v-13.018c0.071-0.558 0.544-1.116 1.416-1.545l29.956-14.434c0.71-0.353 1.593-0.573 2.518-0.663 0.086 4.793-2.24 9.436 2.36 13.08" fill="#2887bc"/>
    </g>
    <g transform="translate(715.64 418.96)">
     <path d="m0 0-9.856-4.792-11.645-5.68c-0.591-0.288-1.307-0.477-2.061-0.586-4.599-3.644-2.274-8.287-2.36-13.08 1.554-0.149 3.229 0.071 4.421 0.662l21.501 10.458c0.887 0.429 1.358 0.987 1.416 1.56v13.018c-0.071-0.573-0.544-1.131-1.416-1.56" fill="#44aef2"/>
    </g>
    <g transform="translate(704.61 427.67)">
     <path d="m0 0 11.029-5.321c1.031-0.501 1.502-1.174 1.416-1.831-0.071-0.573-0.544-1.131-1.416-1.56l-9.856-4.792-11.645-5.68c-1.903-0.929-5.036-0.929-6.938 0l-20.1 9.614-9.856 4.821c-0.873 0.429-1.345 0.987-1.416 1.559-0.086 0.658 0.386 1.331 1.416 1.831l21.501 10.472c1.903 0.944 5.036 0.944 6.938 0l10.386-5.007" fill="none" stroke="#282b34" stroke-miterlimit="10" stroke-width="1.431"/>
    </g>
    <g transform="translate(655.82 424.48)">
     <path d="m0 0v-13.018c0.071-0.558 0.543-1.116 1.416-1.545l29.956-14.435c1.902-0.943 5.035-0.943 6.939 0l21.501 10.458c0.886 0.429 1.358 0.987 1.416 1.56v13.018" fill="none" stroke="#282b34" stroke-miterlimit="10" stroke-width="1.431"/>
    </g>
    <g transform="translate(704.61 423.8)">
     <path d="m0 0v9.527l2.417 3.005c0 1.373 0.187 6.251-6.166 6.251-5.378 0-4.792-7.439-4.792-7.439v-11.344c0-1.145 1.917-2.06 4.277-2.06 2.361 0 4.264 0.915 4.264 2.06z" fill="none" stroke="#282b34" stroke-miterlimit="10" stroke-width="1.431"/>
    </g>
    <g transform="translate(754.05 270.43)">
     <path d="m0 0v86.049c0 5.772 3.94 12.386 8.757 14.698 4.817 2.311 8.758-0.52 8.758-6.292v-86.049z" fill="#e6e9d7"/>
    </g>
    <g transform="translate(720.45 254.76)">
     <path d="m0 0v86.049c0 5.772 3.94 12.386 8.757 14.698 4.816 2.311 8.758-0.52 8.758-6.292v-86.049z" fill="#e6e9d7"/>
    </g>
    <g transform="translate(720.45 334.35)">
     <path d="m0 0 17.515 8.406" fill="#e6e9d7"/>
    </g>
    <g clip-path="url(#clipPath822)" opacity=".7">
     <g transform="translate(720.45 335.63)">
      <path d="m0 0c0 5.186 2.067 15.391 6.684 18.588 4.616 3.198 9.031 0.474 9.031 0.474s1.8-1.628 1.8-5.471c0-3.842-0.744-6.464-0.744-6.464l-5.455-2.975-11.316-5.097" fill="#e84658"/>
     </g>
    </g>
    <g clip-path="url(#clipPath826)" opacity=".7">
     <g transform="translate(754.05 351.62)">
      <path d="m0 0c0 5.186 2.067 15.391 6.684 18.588 4.616 3.198 9.031 0.475 9.031 0.475s1.8-1.628 1.8-5.471-0.744-6.465-0.744-6.465l-5.455-2.975-11.316-5.096" fill="#e84658"/>
     </g>
    </g>
    <g transform="translate(720.45 254.76)">
     <path d="m0 0v86.049c0 5.772 3.94 12.386 8.757 14.698 4.816 2.311 8.758-0.52 8.758-6.292v-86.049z" fill="none" stroke="#282b34" stroke-miterlimit="10" stroke-width="2.267"/>
    </g>
    <g transform="translate(720.45 334.35)">
     <path d="m0 0 17.515 8.406" fill="none" stroke="#282b34" stroke-miterlimit="10" stroke-width="2.267"/>
    </g>
    <g transform="translate(754.05 270.43)">
     <path d="m0 0v86.049c0 5.772 3.94 12.386 8.757 14.698 4.817 2.311 8.758-0.52 8.758-6.292v-86.049z" fill="none" stroke="#282b34" stroke-miterlimit="10" stroke-width="2.267"/>
    </g>
    <g transform="translate(754.05 350.01)">
     <path d="m0 0 17.515 8.406" fill="none" stroke="#282b34" stroke-miterlimit="10" stroke-width="2.267"/>
    </g>
    <g transform="translate(720.45 310.61)">
     <path d="m0 0 17.515 8.405" fill="none" stroke="#282b34" stroke-miterlimit="10" stroke-width="2.267"/>
    </g>
    <g transform="translate(754.05 326.28)">
     <path d="m0 0 17.515 8.406" fill="none" stroke="#282b34" stroke-miterlimit="10" stroke-width="2.267"/>
    </g>
    <g transform="translate(720.45 282.23)">
     <path d="m0 0 17.515 8.406" fill="none" stroke="#282b34" stroke-miterlimit="10" stroke-width="2.267"/>
    </g>
    <g transform="translate(754.05 297.89)">
     <path d="m0 0 17.515 8.406" fill="none" stroke="#282b34" stroke-miterlimit="10" stroke-width="2.267"/>
    </g>
    <g transform="translate(724.62 351.74)">
     <path d="m0 0 5.378-12.812 4.217 17.078" fill="none" stroke="#282b34" stroke-miterlimit="1" stroke-width="2.267"/>
    </g>
    <g transform="translate(758.01 367.5)">
     <path d="m0 0 5.377-12.812 4.218 17.078" fill="none" stroke="#282b34" stroke-miterlimit="1" stroke-width="2.267"/>
    </g>
    <g transform="translate(730 338.93)">
     <path d="m0 0v-79.584" fill="none" stroke="#282b34" stroke-miterlimit="10" stroke-width="2.267"/>
    </g>
    <g transform="translate(763.49 354.21)">
     <path d="m0 0v-79.584" fill="none" stroke="#282b34" stroke-miterlimit="10" stroke-width="2.267"/>
    </g>
    <g transform="translate(669.02 333.83)">
     <path d="m0 0 2.635-73.971-51.057 25.153 1.607 58.93c0.269 3.091 0.54 6.182 0.81 9.273 0.172 1.959 0.047 4.392 0.922 5.803 1.27 2.049 3.082 3.695 4.4 5.676 1.199 1.8 3.499 3.067 5.611 3.476 3.839 0.744 9.708 0.745 12.875-2.132 1.456-1.322 2.511-2.512 4.248-3.559 2.009-1.211 4.007-2.379 5.713-4.02 1.628-1.567 3.256-3.135 4.883-4.702z" fill="#b3b5a5"/>
    </g>
    <g clip-path="url(#clipPath830)" opacity=".7">
     <g transform="translate(622.32 330.82)">
      <path d="m0 0s1.024 27.917 1.025 27.918c0.051 1.265 1.042 2.499 1.489 3.471 0.402 0.877 0.901 1.569 1.524 2.229 1.272 1.343 2.766 2.407 4.462 3.112 1.545 0.643 3.26 0.976 5.086 0.99 1.782 0.013 3.727-0.535 5.478-0.442 3.485 0.185 6.595-1.225 10.453-4.07 1.299-0.959 2.616-1.852 3.838-3.061 3.544-3.507 6.132-7.608 8.212-12.185 1.62-3.563 3.594-8.154 3.58-11.561l2.048-29.218z" fill="#e84658"/>
     </g>
    </g>
    <g transform="translate(623.75 330.33)">
     <path d="m0 0 45.243-22.355" fill="none" stroke="#282b34" stroke-miterlimit="10" stroke-width="1.878"/>
    </g>
    <g transform="translate(645.54 319.56)">
     <path d="m0 0-0.056-43.982" fill="none" stroke="#282b34" stroke-miterlimit="10" stroke-width="1.878"/>
    </g>
    <g transform="translate(635.74 372.18)">
     <path d="m0 0c-10.614-2e-3 -15.31-11.597-15.333-29.669l-0.061-57.458 51.306-25.194 0.072 57.37c0.03 23.152-7.621 43.232-25.608 52.093-3.945 1.943-7.394 2.858-10.376 2.858m3e-3 0v-3.434c2.503 0 5.482-0.842 8.855-2.504 15.31-7.542 23.724-24.947 23.693-49.008l-0.066-51.868-44.443 21.825 0.059 55.316c0.011 8.791 1.138 15.559 3.35 20.116 2.663 5.488 6.155 6.123 8.55 6.123l2e-3 3.434" fill="#282b34"/>
    </g>
    <g transform="translate(622.14 341.66)">
     <path d="m0 0 47.38-23.342" fill="none" stroke="#282b34" stroke-miterlimit="10" stroke-width="3.433"/>
    </g>
    <g transform="translate(645.55 330.13)">
     <path d="m0 0-8.523 39.59" fill="none" stroke="#282b34" stroke-miterlimit="10" stroke-width="3.433"/>
    </g>
    <g transform="translate(624.73 357.61)">
     <path d="m0 0 20.82-27.484" fill="none" stroke="#282b34" stroke-miterlimit="10" stroke-width="3.433"/>
    </g>
    <g transform="translate(645.55 330.13)">
     <path d="m0 0 9.108 30.076" fill="none" stroke="#282b34" stroke-miterlimit="10" stroke-width="3.433"/>
    </g>
    <g transform="translate(666.41 337.08)">
     <path d="m0 0-20.863-6.949" fill="none" stroke="#282b34" stroke-miterlimit="10" stroke-width="3.433"/>
    </g>
    <g transform="translate(646.88 418.93)">
     <path d="m0 0c-0.421 0.01-0.845 0.359-0.899 1.046-0.015 0.185 0 0.391 0 0.578v73.07c0 0.79 0.397 1.431 0.887 1.431 0.491 0 0.888-0.641 0.888-1.431v-71.511c0-0.496 2e-3 -0.992 0-1.489-1e-3 -0.195 0.016-0.443 9e-3 -0.652-0.025-0.705-0.453-1.052-0.885-1.042z" fill="none" stroke="#1d5f8d" stroke-miterlimit="10" stroke-width="1.431"/>
    </g>
    <g transform="translate(646.88 418.93)">
     <path d="m0 0c-0.421 0.01-0.845 0.359-0.899 1.046-0.015 0.185 0 0.391 0 0.578v73.07c0 0.79 0.397 1.431 0.887 1.431 0.491 0 0.888-0.641 0.888-1.431v-71.511c0-0.496 2e-3 -0.992 0-1.489-1e-3 -0.195 0.016-0.443 9e-3 -0.652-0.025-0.705-0.453-1.052-0.885-1.042z" fill="none" stroke="#282b34" stroke-linecap="round" stroke-linejoin="round" stroke-miterlimit="10" stroke-width="2.861"/>
    </g>
    <g transform="translate(646.88 418.93)">
     <path d="m0 0c-0.421 0.01-0.845 0.359-0.899 1.046-0.015 0.185 0 0.391 0 0.578v73.07c0 0.79 0.397 1.431 0.887 1.431 0.491 0 0.888-0.641 0.888-1.431v-71.511c0-0.496 2e-3 -0.992 0-1.489-1e-3 -0.195 0.016-0.443 9e-3 -0.652-0.025-0.705-0.453-1.052-0.885-1.042" fill="#1d5f8d"/>
    </g>
    <g transform="translate(652.24 484.6)">
     <path d="m0 0c-4.004-8.651-10.348-14.231-14.168-12.463s-3.671 10.215 0.334 18.867c4.005 8.651 10.348 14.231 14.168 12.463s3.671-10.216-0.334-18.867z" fill="none" stroke="#282b34" stroke-linecap="round" stroke-linejoin="round" stroke-miterlimit="10" stroke-width="2.861"/>
    </g>
    <g transform="translate(638.41 491)">
     <path d="m0 0c-4.006-8.655-4.149-17.095-0.329-18.869 0.128-0.057 0.271-0.114 0.414-0.157 3.219 0.472 7.811 5.336 11.874 13.561 3.004 6.08 4.735 13.991 3.09 17.339-0.272 0.243-0.558 0.443-0.887 0.586-3.819 1.774-10.157-3.805-14.162-12.46" fill="#2887bc"/>
    </g>
    <g transform="translate(650.37 485.54)">
     <path d="m0 0c-4.062-8.226-8.655-13.089-11.874-13.562 3.849-1.201 9.886 4.292 13.748 12.632 3.662 7.911 4.105 15.665 1.216 18.268 1.645-3.347-0.086-11.258-3.09-17.338" fill="#1d5f8d"/>
    </g>
    <g transform="translate(651.48 504.45)">
     <path d="m0 0c0.901-0.157 1.545-0.715 1.974-1.574 1.645-3.347-0.086-11.258-3.09-17.338-4.063-8.226-8.655-13.089-11.874-13.562-0.687-0.1-1.316 0-1.86 0.315" fill="none" stroke="#282b34" stroke-linecap="round" stroke-linejoin="round" stroke-miterlimit="10" stroke-width="1.431"/>
    </g>
   </g>
  </g>
 </g>
</svg>
