<?xml version="1.0" encoding="UTF-8"?>
<!-- Created with Inkscape (http://www.inkscape.org/) -->
<svg width="68.495mm" height="113.24mm" version="1.1" viewBox="0 0 68.495 113.24" xmlns="http://www.w3.org/2000/svg" xmlns:cc="http://creativecommons.org/ns#" xmlns:dc="http://purl.org/dc/elements/1.1/" xmlns:rdf="http://www.w3.org/1999/02/22-rdf-syntax-ns#">
 <defs>
  <clipPath id="clipPath1670">
   <path d="m386.1 542.04h194.16v-321h-194.16z"/>
  </clipPath>
  <clipPath id="clipPath1674">
   <path d="m411.83 450.39h72.224v-37.693h-72.224z"/>
  </clipPath>
  <clipPath id="clipPath1678">
   <path d="m403.47 372.54h24.097v-40.101h-24.097z"/>
  </clipPath>
  <clipPath id="clipPath1682">
   <path d="m440.77 353.98h24.097v-40.101h-24.097z"/>
  </clipPath>
  <clipPath id="clipPath1686">
   <path d="m523.15 365.14h28.584v-30.946h-28.584z"/>
  </clipPath>
 </defs>
 <metadata>
  <rdf:RDF>
   <cc:Work rdf:about="">
    <dc:format>image/svg+xml</dc:format>
    <dc:type rdf:resource="http://purl.org/dc/dcmitype/StillImage"/>
    <dc:title/>
   </cc:Work>
  </rdf:RDF>
 </metadata>
 <g transform="translate(8.5453 -105.06)">
  <g transform="matrix(.35278 0 0 -.35278 -144.75 296.28)">
   <g clip-path="url(#clipPath1670)" opacity=".8">
    <g transform="translate(567.24 421.14)">
     <path d="m0 0c3.767-1.84 3.771-4.849 0-6.694l-72.348-35.348c-3.772-1.846-9.938-1.846-13.704-5e-3l-72.47 35.363c-3.767 1.84-3.772 4.849 0 6.694l72.348 35.353c3.771 1.845 9.937 1.845 13.704 6e-3z" fill="#2887bc"/>
    </g>
    <g transform="translate(576.89 413.06)">
     <path d="m0 0c-0.015 3.99-2.96 8.691-6.543 10.441l-79.891 39.044c-1.923 0.939-4.504 1.37-7.038 1.301v-7.918c2.534 0.07 5.115-0.361 7.038-1.3l68.951-33.651c3.584-1.75 3.588-4.614 0-6.369l-68.835-33.631c-3.588-1.756-9.454-1.756-13.038-5e-3l-68.951 33.645c-3.584 1.751-3.589 4.614 0 6.37l25.375 12.4-5.319 5.319-31.112-15.205c-3.583-1.75-6.529-6.451-6.538-10.441l-0.092-136.52c-0.015-3.991 2.907-8.687 6.495-10.432l80.026-39.049c3.583-1.75 9.454-1.75 13.038 0l80.026 39.049c3.588 1.745 6.51 6.441 6.5 10.432z" fill="#44aef2"/>
    </g>
    <g transform="translate(477.41 454.62)">
     <path d="m0 0c1.662 0.813 3.814 1.245 6 1.305v7.918c-2.186-0.06-4.338-0.49-6-1.301l-48.779-23.839 5.32-5.319z" fill="#44aef2"/>
    </g>
    <g transform="translate(477.41 454.62)">
     <path d="m0 0c1.662 0.813 3.814 1.245 6 1.305v7.918c-2.186-0.06-4.338-0.49-6-1.301l-48.779-23.839 5.32-5.319z" fill="#2887bc"/>
    </g>
    <g transform="translate(439.21 400.16)">
     <path d="m0 0 38.347-18.712c3.55-1.735 9.363-1.735 12.919 4e-3l44.843 21.91" fill="none" stroke="#282b34" stroke-miterlimit="10" stroke-width=".967"/>
    </g>
    <g transform="translate(576.89 413.06)">
     <path d="m0 0c-0.015 3.99-2.96 8.691-6.543 10.441l-22.403 10.949c-2.025-1.652-3.96-3.348-5.932-4.984l17.395-8.489c3.584-1.75 3.588-4.614 0-6.369l-68.835-33.631c-2.01-0.984-4.735-1.416-7.372-1.298v-153.92c2.603-0.1 5.278 0.33 7.256 1.296l80.026 39.049c3.588 1.745 6.51 6.441 6.5 10.432z" fill="#44aef2"/>
    </g>
    <g transform="translate(477.53 380.97)">
     <path d="m0 0-68.951 33.646c-3.583 1.75-3.588 4.614 0 6.369l34.128 16.676-5.288 5.336-39.895-19.497c-3.584-1.751-6.529-6.451-6.539-10.442l-0.092-136.52c-0.014-3.99 2.907-8.687 6.495-10.432l80.026-39.049c1.605-0.784 3.67-1.213 5.782-1.295v153.92c-2.071 0.092-4.089 0.523-5.666 1.293" fill="#44aef2"/>
    </g>
    <g transform="translate(477.53 380.97)">
     <path d="m0 0-68.951 33.646c-3.583 1.75-3.588 4.614 0 6.369l34.128 16.676-5.288 5.336-39.895-19.497c-3.584-1.751-6.529-6.451-6.539-10.442l-0.092-136.52c-0.014-3.99 2.907-8.687 6.495-10.432l80.026-39.049c1.605-0.784 3.67-1.213 5.782-1.295v153.92c-2.071 0.092-4.089 0.523-5.666 1.293" fill="#2887bc"/>
    </g>
    <g transform="translate(391.37 406.9)">
     <path d="m0 0 86.048-42.437c3.584-1.751 9.455-1.751 13.039 0l86.137 42.109" fill="none" stroke="#282b34" stroke-miterlimit="10" stroke-width=".967"/>
    </g>
    <g transform="translate(483.41 449.67)">
     <path d="m0 0 72.625-35.857 5.771 2.885v2.185l-72.03 35.6-6.366 1.076z" fill="#2887bc"/>
    </g>
    <g transform="translate(483.94 455.94)">
     <path d="m0 0c-2.365 0-4.73-0.439-6.526-1.317l-68.835-33.637c-3.588-1.755-3.583-4.618 0-6.369l68.951-33.646c1.79-0.875 4.151-1.312 6.513-1.312 2.364 0 4.73 0.439 6.525 1.317l68.835 33.631c3.589 1.756 3.584 4.619 0 6.37l-68.95 33.651c-1.791 0.874-4.152 1.312-6.513 1.312m0-0.967c2.29 0 4.508-0.443 6.088-1.215l68.951-33.651c1.364-0.666 2.146-1.509 2.147-2.314 0-0.805-0.783-1.649-2.147-2.317l-68.835-33.631c-1.607-0.786-3.774-1.219-6.101-1.219-2.29 0-4.509 0.442-6.089 1.214l-68.95 33.646c-1.364 0.666-2.147 1.51-2.147 2.315s0.783 1.649 2.147 2.316l68.835 33.637c1.607 0.786 3.773 1.219 6.101 1.219" fill="#282b34"/>
    </g>
    <g clip-path="url(#clipPath1674)" opacity=".5">
     <g transform="translate(412.55 412.69)">
      <path d="m0 0c-0.26 0-0.511 0.142-0.638 0.39-0.179 0.351-0.04 0.782 0.312 0.962l70.867 36.263c0.104 0.052 0.325 0.077 0.325 0.077v-0.724l0.642-0.307s-0.174-0.247-0.316-0.32l-70.867-36.263c-0.104-0.053-0.215-0.078-0.325-0.078" fill="#2887bc"/>
     </g>
    </g>
    <g transform="translate(428.63 362.32)">
     <path d="m0 0v-74.174l-26.723 13.175v74.188z" fill="#b3b5a5"/>
    </g>
    <g clip-path="url(#clipPath1678)" opacity=".7">
     <g transform="translate(403.47 372.54)">
      <path d="m0 0 24.097-12.211-0.615-27.89-23.482 12.075" fill="#e84658"/>
     </g>
    </g>
    <g transform="translate(401.91 375.51)">
     <path d="m0 0v-74.189l26.723-13.175v74.175zm2.861-4.603 21.001-10.365v-67.795l-21.001 10.354z" fill="#282b34"/>
    </g>
    <g transform="translate(403.47 344.03)">
     <path d="m0 0 24.097-11.894" fill="none" stroke="#282b34" stroke-miterlimit="10" stroke-width="1.431"/>
    </g>
    <g transform="translate(403.47 329.64)">
     <path d="m0 0 24.097-11.894" fill="none" stroke="#282b34" stroke-miterlimit="10" stroke-width="1.431"/>
    </g>
    <g transform="translate(403.47 315.25)">
     <path d="m0 0 24.097-11.894" fill="none" stroke="#282b34" stroke-miterlimit="10" stroke-width="1.431"/>
    </g>
    <g transform="translate(414.4 338.63)">
     <path d="m0 0v-42.459" fill="none" stroke="#282b34" stroke-miterlimit="10" stroke-width="1.431"/>
    </g>
    <g transform="translate(465.93 343.76)">
     <path d="m0 0v-74.174l-26.723 13.175v74.188z" fill="#b3b5a5"/>
    </g>
    <g clip-path="url(#clipPath1682)" opacity=".7">
     <g transform="translate(440.77 353.98)">
      <path d="m0 0 24.097-12.211-0.615-27.891-23.482 12.076" fill="#e84658"/>
     </g>
    </g>
    <g transform="translate(439.21 356.95)">
     <path d="m0 0v-74.188l26.723-13.176v74.175zm2.861-4.603 21-10.365v-67.795l-21 10.354z" fill="#282b34"/>
    </g>
    <g transform="translate(440.77 325.46)">
     <path d="m0 0 24.097-11.894" fill="none" stroke="#282b34" stroke-miterlimit="10" stroke-width="1.431"/>
    </g>
    <g transform="translate(440.77 311.08)">
     <path d="m0 0 24.097-11.894" fill="none" stroke="#282b34" stroke-miterlimit="10" stroke-width="1.431"/>
    </g>
    <g transform="translate(440.77 296.69)">
     <path d="m0 0 24.097-11.894" fill="none" stroke="#282b34" stroke-miterlimit="10" stroke-width="1.431"/>
    </g>
    <g transform="translate(451.7 320.07)">
     <path d="m0 0v-42.459" fill="none" stroke="#282b34" stroke-miterlimit="10" stroke-width="1.431"/>
    </g>
    <g transform="translate(521.89 353.01)">
     <path d="m0 0v-87.987l31.699 15.629v88.004z" fill="#e6e9d7"/>
    </g>
    <g clip-path="url(#clipPath1686)" opacity=".7">
     <g transform="translate(551.74 365.14)">
      <path d="m0 0-28.584-14.485 0.365-16.461 27.854 14.323" fill="#e84658"/>
     </g>
    </g>
    <g transform="translate(553.59 368.66)">
     <path d="m0 0-31.699-15.646v-87.987l31.699 15.629zm-2.861-4.603v-81.622l-25.977-12.807v81.608z" fill="#282b34"/>
    </g>
    <g transform="translate(517.99 351.45)">
     <path d="m0 0-12.922-6.572v-87.278l12.925 6.881zm-1.431-2.333 4e-3 -83.777-10.065-5.358v84.018z" fill="#282b34"/>
    </g>
    <g transform="translate(568.34 262.77)">
     <path d="m0 0-11.73-5.723h-0.015l-8.154-3.976-12.475-6.095 11.774-5.75 31.801 16.079z" fill="#44aef2"/>
    </g>
    <g transform="translate(547.74 241.22)">
     <path d="m0 0v-11.474l0.043-0.014 31.758 16.065v11.502z" fill="#44aef2"/>
    </g>
    <g transform="translate(554.26 281.84)">
     <path d="m0 0-32.374-15.794 14.077-6.881 18.297 8.755 1.788 0.858 12.289 5.866v0.315z" fill="#44aef2"/>
    </g>
    <g transform="translate(556.05 268.78)">
     <path d="m0 0-1.788-0.858-18.297-8.755v-12.189l12.474 6.095 8.154 3.977h0.015l11.731 5.722v11.873z" fill="#44aef2"/>
    </g>
    <g transform="translate(535.97 246.97)">
     <path d="m0 0v12.188l-14.077 6.881v-23.646l25.85-12.647v11.474z" fill="#2887bc"/>
    </g>
    <g transform="translate(556.05 268.78)">
     <path d="m0 0-1.788-0.858-18.297-8.755v-12.189l12.474 6.095 8.154 3.977h0.015l11.731 5.722v11.873z" fill="#2887bc"/>
    </g>
    <g transform="translate(547.74 241.22)">
     <path d="m0 0v-11.474l0.043-0.014 31.758 16.065v11.502z" fill="#2887bc"/>
    </g>
    <g transform="translate(523.89 334.38)">
     <path d="m0 0 27.85 14.26" fill="none" stroke="#282b34" stroke-miterlimit="10" stroke-width="1.431"/>
    </g>
    <g transform="translate(536.25 311.95)">
     <path d="m0 0v22.96l-7.239-3.705v-22.96z" fill="none" stroke="#282b34" stroke-miterlimit="10" stroke-width="1.431"/>
    </g>
    <g transform="translate(547.62 317.82)">
     <path d="m0 0v22.96l-7.239-3.705v-22.961z" fill="none" stroke="#282b34" stroke-miterlimit="10" stroke-width="1.431"/>
    </g>
    <g transform="translate(536.25 280.62)">
     <path d="m0 0v22.96l-7.239-3.705v-22.96z" fill="none" stroke="#282b34" stroke-miterlimit="10" stroke-width="1.431"/>
    </g>
    <g transform="translate(547.62 286.49)">
     <path d="m0 0v22.961l-7.239-3.705v-22.961z" fill="none" stroke="#282b34" stroke-miterlimit="10" stroke-width="1.431"/>
    </g>
    <g transform="translate(529.69 303.58)">
     <path d="m0 0c0-1.188-0.751-2.152-1.679-2.152-0.927 0-1.679 0.964-1.679 2.152 0 1.189 0.752 2.153 1.679 2.153 0.928 0 1.679-0.964 1.679-2.153z" fill="none" stroke="#282b34" stroke-miterlimit="10" stroke-width="1.264"/>
    </g>
    <g transform="translate(508.35 340.96)">
     <path d="m0 0-6e-3 1.586 6.717 3.236-2e-3 -1.589z" fill="#282b34"/>
    </g>
    <g transform="translate(508.35 336.26)">
     <path d="m0 0-6e-3 1.586 6.717 3.236-2e-3 -1.589z" fill="#282b34"/>
    </g>
    <g transform="translate(508.35 331.55)">
     <path d="m0 0-6e-3 1.586 6.717 3.236-2e-3 -1.589z" fill="#282b34"/>
    </g>
    <g transform="translate(508.35 326.84)">
     <path d="m0 0-6e-3 1.586 6.717 3.236-2e-3 -1.589z" fill="#282b34"/>
    </g>
    <g transform="translate(508.35 322.14)">
     <path d="m0 0-6e-3 1.585 6.717 3.236-2e-3 -1.589z" fill="#282b34"/>
    </g>
    <g transform="translate(508.35 317.43)">
     <path d="m0 0-6e-3 1.586 6.717 3.236-2e-3 -1.589z" fill="#282b34"/>
    </g>
    <g transform="translate(508.35 312.73)">
     <path d="m0 0-6e-3 1.586 6.717 3.236-2e-3 -1.589z" fill="#282b34"/>
    </g>
    <g transform="translate(508.35 308.02)">
     <path d="m0 0-6e-3 1.586 6.717 3.236-2e-3 -1.589z" fill="#282b34"/>
    </g>
    <g transform="translate(508.35 303.32)">
     <path d="m0 0-6e-3 1.586 6.717 3.236-2e-3 -1.589z" fill="#282b34"/>
    </g>
    <g transform="translate(508.35 298.61)">
     <path d="m0 0-6e-3 1.586 6.717 3.236-2e-3 -1.589z" fill="#282b34"/>
    </g>
    <g transform="translate(508.35 293.91)">
     <path d="m0 0-6e-3 1.586 6.717 3.236-2e-3 -1.589z" fill="#282b34"/>
    </g>
    <g transform="translate(508.35 289.2)">
     <path d="m0 0-6e-3 1.586 6.717 3.236-2e-3 -1.59z" fill="#282b34"/>
    </g>
    <g transform="translate(508.35 284.5)">
     <path d="m0 0-6e-3 1.586 6.717 3.236-2e-3 -1.59z" fill="#282b34"/>
    </g>
    <g transform="translate(508.35 279.79)">
     <path d="m0 0-6e-3 1.586 6.717 3.236-2e-3 -1.59z" fill="#282b34"/>
    </g>
    <g transform="translate(508.35 275.09)">
     <path d="m0 0-6e-3 1.586 6.717 3.236-2e-3 -1.59z" fill="#282b34"/>
    </g>
    <g transform="translate(508.35 270.38)">
     <path d="m0 0-6e-3 1.586 6.717 3.236-2e-3 -1.59z" fill="#282b34"/>
    </g>
    <g transform="translate(508.35 265.68)">
     <path d="m0 0-6e-3 1.586 6.717 3.235-2e-3 -1.589z" fill="#282b34"/>
    </g>
    <g transform="translate(570.1 377.02)">
     <path d="m0 0-12.923-6.572v-87.278l12.926 6.881zm-1.431-2.333 4e-3 -83.777-10.065-5.358v84.018z" fill="#282b34"/>
    </g>
    <g transform="translate(560.45 366.53)">
     <path d="m0 0-5e-3 1.586 6.716 3.236-2e-3 -1.589z" fill="#282b34"/>
    </g>
    <g transform="translate(560.45 361.83)">
     <path d="m0 0-5e-3 1.586 6.716 3.236-2e-3 -1.589z" fill="#282b34"/>
    </g>
    <g transform="translate(560.45 357.12)">
     <path d="m0 0-5e-3 1.585 6.716 3.237-2e-3 -1.589z" fill="#282b34"/>
    </g>
    <g transform="translate(560.45 352.42)">
     <path d="m0 0-5e-3 1.585 6.716 3.237-2e-3 -1.59z" fill="#282b34"/>
    </g>
    <g transform="translate(560.45 347.71)">
     <path d="m0 0-5e-3 1.585 6.716 3.237-2e-3 -1.59z" fill="#282b34"/>
    </g>
    <g transform="translate(560.45 343.01)">
     <path d="m0 0-5e-3 1.585 6.716 3.237-2e-3 -1.59z" fill="#282b34"/>
    </g>
    <g transform="translate(560.45 338.3)">
     <path d="m0 0-5e-3 1.585 6.716 3.237-2e-3 -1.59z" fill="#282b34"/>
    </g>
    <g transform="translate(560.45 333.6)">
     <path d="m0 0-5e-3 1.586 6.716 3.236-2e-3 -1.589z" fill="#282b34"/>
    </g>
    <g transform="translate(560.45 328.89)">
     <path d="m0 0-5e-3 1.586 6.716 3.236-2e-3 -1.589z" fill="#282b34"/>
    </g>
    <g transform="translate(560.45 324.19)">
     <path d="m0 0-5e-3 1.586 6.716 3.236-2e-3 -1.589z" fill="#282b34"/>
    </g>
    <g transform="translate(560.45 319.48)">
     <path d="m0 0-5e-3 1.586 6.716 3.236-2e-3 -1.59z" fill="#282b34"/>
    </g>
    <g transform="translate(560.45 314.78)">
     <path d="m0 0-5e-3 1.586 6.716 3.236-2e-3 -1.59z" fill="#282b34"/>
    </g>
    <g transform="translate(560.45 310.07)">
     <path d="m0 0-5e-3 1.586 6.716 3.236-2e-3 -1.59z" fill="#282b34"/>
    </g>
    <g transform="translate(560.45 305.36)">
     <path d="m0 0-5e-3 1.586 6.716 3.236-2e-3 -1.59z" fill="#282b34"/>
    </g>
    <g transform="translate(560.45 300.66)">
     <path d="m0 0-5e-3 1.586 6.716 3.235-2e-3 -1.589z" fill="#282b34"/>
    </g>
    <g transform="translate(560.45 295.95)">
     <path d="m0 0-5e-3 1.586 6.716 3.235-2e-3 -1.589z" fill="#282b34"/>
    </g>
    <g transform="translate(560.45 291.25)">
     <path d="m0 0-5e-3 1.586 6.716 3.235-2e-3 -1.589z" fill="#282b34"/>
    </g>
    <g transform="translate(563.48 421.5)">
     <path d="m0 0c3.777-1.845 3.783-4.863 0-6.713l-72.554-35.45c-3.783-1.85-9.966-1.85-13.743-4e-3l-72.678 35.464c-3.777 1.845-3.782 4.863 0 6.713l72.555 35.454c3.783 1.851 9.966 1.851 13.743 5e-3z" fill="#1d5f8d"/>
    </g>
    <g transform="translate(577.15 413.4)">
     <path d="m0 0c-0.015 4.001-2.968 8.715-6.562 10.471l-80.118 39.155c-1.929 0.942-4.517 1.374-7.058 1.305v-7.941c2.541 0.07 5.129-0.362 7.058-1.304l69.147-33.747c3.594-1.755 3.599-4.626 0-6.387l-69.031-33.727c-3.599-1.761-9.482-1.761-13.076-5e-3l-69.147 33.742c-3.594 1.755-3.599 4.626 0 6.387l25.448 12.435-5.335 5.335-31.2-15.248c-3.594-1.756-6.548-6.47-6.558-10.471l-0.091-27.869c-0.015-4.001 7.442 5.2 11.041 3.449l75.726-30.226c3.594-1.756 99.858 22.776 99.848 26.777z" fill="#44aef2"/>
    </g>
    <g transform="translate(477.4 455.08)">
     <path d="m0 0c1.667 0.816 3.825 1.249 6.018 1.309v7.941c-2.193-0.061-4.351-0.492-6.018-1.305l-48.918-23.907 5.335-5.335z" fill="#44aef2"/>
    </g>
    <g transform="translate(477.4 455.08)">
     <path d="m0 0c1.667 0.816 3.825 1.249 6.018 1.309v7.941c-2.193-0.061-4.351-0.492-6.018-1.305l-48.918-23.907 5.335-5.335z" fill="#2887bc"/>
    </g>
    <g transform="translate(450.59 445.41)">
     <path d="m0 0c2.035 0.876 19.935 9.51 28.466 13.699 4.509 1.795 4.256 4.863 4.362 4.95 0.097-0.619 0.56-3.861 0.49-4.498-0.095-0.854-0.125-1.774-0.356-2.602-0.118-0.422-0.359-0.706-0.723-0.936-0.331-0.209-0.539-0.178-0.922-0.135-0.917 0.104-1.802-0.347-2.647-0.634-2.377-0.808-4.671-1.855-6.9-3.006-8.303-4.286-23.173-11.346-23.173-11.346z" fill="#44aef2"/>
    </g>
    <g transform="translate(483.94 456.4)">
     <path d="m0 0c-2.372 0-4.744-0.44-6.544-1.321l-69.032-33.732c-3.598-1.761-3.593-4.632 0-6.388l69.148-33.742c1.795-0.877 4.163-1.316 6.531-1.316 2.372 0 4.744 0.44 6.544 1.321l69.031 33.727c3.599 1.761 3.594 4.632 0 6.388l-69.147 33.747c-1.796 0.877-4.163 1.316-6.531 1.316m0-1.431c2.228 0 4.38-0.426 5.904-1.171l69.146-33.746c1.169-0.571 1.895-1.302 1.895-1.908s-0.726-1.337-1.895-1.909l-69.031-33.728c-1.527-0.747-3.684-1.175-5.916-1.175-2.228 0-4.38 0.426-5.904 1.171l-69.147 33.742c-1.168 0.571-1.894 1.301-1.894 1.907s0.726 1.338 1.895 1.91l69.031 33.732c1.527 0.747 3.684 1.175 5.916 1.175" fill="#282b34"/>
    </g>
    <g transform="translate(439.08 400.46)">
     <path d="m0 0 38.457-18.766c3.561-1.739 9.39-1.739 12.956 5e-3l44.97 21.972" fill="none" stroke="#282b34" stroke-miterlimit="10" stroke-width="1.431"/>
    </g>
    <g transform="translate(401.91 385.81)">
     <path d="m0 0c-3.599 1.751-11.297-4.276-11.283-0.275l0.092 27.868c0.01 4.001 2.963 8.716 6.558 10.471l40.012 19.556 5.302-5.354-34.227-16.724c-3.599-1.76-3.594-4.631 0-6.387l69.147-33.742c1.581-0.771 3.608-1.203 5.684-1.295 1.135-0.053 2.29 0 3.395 0.151-1.809-1.528-2.769-5.069-2.599-10.933 0.271-9.229-82.081 16.664-82.081 16.664" fill="#44aef2"/>
    </g>
    <g transform="translate(488.66 347.71)">
     <path d="m0 0c0 4.709-5.619 11.913-5.89 21.142-0.17 5.864 1.392 9.695 3.202 11.223l4e-3 5e-3c1.465 0.198 2.847 0.582 3.992 1.144l69.031 33.727c3.599 1.761 3.594 4.632 0 6.388l-17.441 8.512c1.974 1.644 3.919 3.341 5.946 5l22.466-10.98c3.593-1.756 6.547-6.471 6.562-10.472l0.092-27.868c0.01-4.001-87.964-42.53-87.964-37.821" fill="#44aef2"/>
    </g>
    <g transform="translate(483.2 342.89)">
     <path d="m0 0v1.904l-83.034 36.589c-3.598 1.751-9.549 0.144-9.535 4.145l0.092 27.869c0.01 4.001 2.963 8.715 6.558 10.471l2.876 1.406 13.227 6.464 23.909 11.686 5.302-5.355-34.228-16.723c-3.598-1.761-3.593-4.632 0-6.388l69.148-33.741c1.581-0.771 3.827-1.233 5.684-1.295 0.922-0.031 2.756-0.113 5.461 0.575 0 0 0.865 0.208 2.166 0.839 11.52 5.587 68.228 33.298 69.28 33.869 1.104 0.6 2.212 1.761 2.212 2.881 0 0.73-0.34 1.491-1.018 2.126-0.743 0.743-3.733 2.127-3.733 2.127l-67.254 32.831c-0.781 0.375-1.713 0.775-2.591 0.696-1.201-0.108-2.388 0.263-3.598 0.263-1.07 0-2.11-0.051-3.171-0.207-0.755-0.112-1.512-0.232-2.255-0.404-0.252-0.058-0.598-0.238-0.852-0.215 0.254 0.437 1.111 0.755 1.551 0.972 0.643 0.317 1.299 0.58 1.999 0.746 2.431 0.578 4.957 0.425 7.231-0.597 1.048-0.471 2.095-0.942 3.143-1.412 1.397-0.628 2.793-1.255 4.19-1.883 1.672-0.751 3.344-1.503 5.015-2.254 1.871-0.841 3.743-1.682 5.614-2.523 1.997-0.898 3.994-1.795 5.99-2.692 2.048-0.921 4.095-1.841 6.142-2.761 2.024-0.91 4.047-1.82 6.071-2.729 1.925-0.865 3.849-1.73 5.774-2.595 1.751-0.788 3.502-1.575 5.254-2.362l4.509-2.028c1.181-0.53 2.361-1.061 3.542-1.592 0.783-0.352 1.566-0.704 2.349-1.057 0.311-0.14 0.623-0.279 0.933-0.42 9.44-4.818 14.345-7.153 16.231-8.493 1.562-1.11 3.641-2.02 3.29-4.194-0.252-1.553-2.703-3.248-5.446-4.793-20.369-11.142-69.211-34.667-73.246-36.278-1.071-0.427-3.414-2.288-3.921-3.442-1.193-2.714-0.861-2.886-0.861-8.88z" fill="#2887bc"/>
    </g>
    <g transform="translate(435.89 438.79)">
     <path d="m0 0c-1.482-0.77-2.965-1.539-4.447-2.308-3.334-1.73-6.669-3.46-10.003-5.191-0.415-0.415-1.018-0.584-1.537-0.824-0.617-0.285-1.217-0.616-1.822-0.926-1.323-0.676-2.645-1.352-3.968-2.028-0.274 0-0.793-0.406-1.044-0.534-0.383-0.196-0.765-0.392-1.148-0.587-0.765-0.392-1.531-0.783-2.297-1.174-1.431-0.732-2.917-1.395-4.244-2.303-1.112-0.76-2.086-1.883-1.998-3.314 0.067-1.102 0.56-2.182 1.426-2.88 0.498-0.402 1.101-0.532 1.661-0.806 0.114-0.056 1.16-0.348 1.122-0.249-0.254 0.652-0.99 0.997-1.3 1.646-0.172 0.361-0.212 0.743-0.113 1.134 0.418 1.663 2.392 2.562 3.775 3.239 1.182 0.578 2.363 1.157 3.544 1.735l10.128 4.959 11.594 5.676c3.318 1.625 6.637 3.25 9.956 4.874 1.736 0.851 3.474 1.701 5.211 2.552 0.067 0.033 0.134 0.066 0.201 0.099-0.09 0.673 0.091 3.168 0 3.828-8.312-3.675-14.697-6.618-14.697-6.618" fill="#44aef2"/>
    </g>
    <g transform="translate(390.83 414.65)">
     <path d="m0 0c-0.111-1.943 0.75-3.486 3.625-4.781l82.302-39.407c1.772-0.865 4.101-1.304 6.438-1.316s4.666 0.451 6.438 1.316l83.651 40.269c2.876 1.295 3.853 2.897 3.641 4.803" fill="none" stroke="#282b34" stroke-miterlimit="10" stroke-width="1.431"/>
    </g>
    <g transform="translate(400.16 425.28)">
     <path d="m0 0s-4.92-2.098-6.943-4.972-2.492-4.873-2.5-7.603c-9e-3 -2.469 0.187-131.98 0.174-136.46 0-2.771 1.659-7.786 6.74-10.266 5.08-2.478 79.08-38.586 79.08-38.586s3.055-1.652 6.953-1.652c3.899 0 5.769 0.498 12.496 3.938 6.726 3.44 26.103 12.712 26.103 12.712" fill="none" stroke="#282b34" stroke-linecap="round" stroke-linejoin="round" stroke-miterlimit="10" stroke-width="1.431"/>
    </g>
    <g transform="translate(400.16 425.28)">
     <path d="m0 0 65.661 32.089c6.628 3.239 11.641 7.594 18.614 6.961 4.081 0.34 7.347-1.946 7.347-1.946s72.228-35.299 76.583-37.427c4.356-2.129 5.337-3.491 6.822-5.442s1.965-4.157 1.965-6.695-0.176-132.94-0.176-136.28c0-2.757-1.181-8.661-8.637-11.475" fill="none" stroke="#282b34" stroke-linecap="round" stroke-linejoin="round" stroke-miterlimit="10" stroke-width="1.431"/>
    </g>
    <g transform="translate(483.94 456.4)">
     <path d="m0 0c-2.372 0-4.744-0.44-6.544-1.321l-69.032-33.732c-3.598-1.761-3.593-4.632 0-6.388l69.148-33.742c1.795-0.877 4.163-1.316 6.531-1.316 2.372 0 4.744 0.44 6.544 1.321l69.031 33.727c3.599 1.761 3.594 4.632 0 6.388l-69.147 33.747c-1.796 0.877-4.163 1.316-6.531 1.316m0-1.431c2.228 0 4.38-0.426 5.904-1.171l69.146-33.746c1.169-0.571 1.895-1.302 1.895-1.908s-0.726-1.337-1.895-1.909l-69.031-33.728c-1.527-0.747-3.684-1.175-5.916-1.175-2.228 0-4.38 0.426-5.904 1.171l-69.147 33.742c-1.168 0.571-1.894 1.301-1.894 1.907s0.726 1.338 1.895 1.91l69.031 33.732c1.527 0.747 3.684 1.175 5.916 1.175" fill="#282b34"/>
    </g>
    <g transform="translate(469.91 438.94)">
     <path d="m0 0c-0.421 9e-3 -0.845 0.358-0.899 1.045-0.015 0.186 0 0.392 0 0.579v74.665c0 0.79 0.397 1.43 0.887 1.43 0.491 0 0.888-0.64 0.888-1.43v-73.106c0-0.496 1e-3 -0.993 0-1.489-1e-3 -0.195 0.016-0.443 9e-3 -0.652-0.025-0.706-0.453-1.052-0.885-1.042z" fill="none" stroke="#1d5f8d" stroke-miterlimit="10" stroke-width="1.431"/>
    </g>
    <g transform="translate(469.91 438.94)">
     <path d="m0 0c-0.421 9e-3 -0.845 0.358-0.899 1.045-0.015 0.186 0 0.392 0 0.579v74.665c0 0.79 0.397 1.43 0.887 1.43 0.491 0 0.888-0.64 0.888-1.43v-73.106c0-0.496 1e-3 -0.993 0-1.489-1e-3 -0.195 0.016-0.443 9e-3 -0.652-0.025-0.706-0.453-1.052-0.885-1.042z" fill="none" stroke="#282b34" stroke-linecap="round" stroke-linejoin="round" stroke-miterlimit="10" stroke-width="2.861"/>
    </g>
    <g transform="translate(553.01 281.84)">
     <path d="m0 0 15.326-7.196v-11.873l11.201-5.465v-11.502l-31.758-16.066-25.217 13.027 0.087 23.357 13.314-6.828v-12.317l11.773-5.75 0.043-11.489" fill="none" stroke="#282b34" stroke-linecap="round" stroke-linejoin="round" stroke-miterlimit="10" stroke-width="1.431"/>
    </g>
    <g transform="translate(535.97 259.16)">
     <path d="m0 0 32.374 15.479" fill="none" stroke="#282b34" stroke-linecap="round" stroke-linejoin="round" stroke-miterlimit="10" stroke-width="1.431"/>
    </g>
    <g transform="translate(535.97 246.97)">
     <path d="m0 0 32.374 15.794" fill="none" stroke="#282b34" stroke-linecap="round" stroke-linejoin="round" stroke-miterlimit="10" stroke-width="1.431"/>
    </g>
    <g transform="translate(547.74 241.22)">
     <path d="m0 0 31.801 16.079" fill="none" stroke="#282b34" stroke-linecap="round" stroke-linejoin="round" stroke-miterlimit="10" stroke-width="1.431"/>
    </g>
    <g transform="translate(469.91 438.94)">
     <path d="m0 0c-0.421 9e-3 -0.845 0.358-0.899 1.045-0.015 0.186 0 0.392 0 0.579v74.665c0 0.79 0.397 1.43 0.887 1.43 0.491 0 0.888-0.64 0.888-1.43v-73.106c0-0.496 1e-3 -0.993 0-1.489-1e-3 -0.195 0.016-0.443 9e-3 -0.652-0.025-0.706-0.453-1.052-0.885-1.042" fill="#1d5f8d"/>
    </g>
    <g transform="translate(462.39 521.42)">
     <path d="m0 0c4.004-8.651 10.348-14.231 14.168-12.463s3.671 10.215-0.334 18.866c-4.004 8.652-10.347 14.232-14.167 12.464-3.821-1.769-3.671-10.216 0.333-18.867z" fill="none" stroke="#282b34" stroke-linecap="round" stroke-linejoin="round" stroke-miterlimit="10" stroke-width="2.861"/>
    </g>
    <g transform="translate(476.23 527.82)">
     <path d="m0 0c4.006-8.655 4.149-17.095 0.329-18.869-0.128-0.057-0.271-0.115-0.414-0.157-3.219 0.471-7.811 5.336-11.874 13.561-3.004 6.08-4.735 13.991-3.09 17.339 0.272 0.243 0.558 0.443 0.887 0.586 3.819 1.774 10.157-3.805 14.162-12.46" fill="#2887bc"/>
    </g>
    <g transform="translate(464.27 522.36)">
     <path d="m0 0c4.063-8.226 8.655-13.09 11.874-13.562-3.848-1.201-9.885 4.292-13.748 12.632-3.662 7.911-4.105 15.665-1.216 18.268-1.645-3.347 0.086-11.258 3.09-17.338" fill="#1d5f8d"/>
    </g>
    <g transform="translate(463.15 541.27)">
     <path d="m0 0c-0.901-0.158-1.545-0.715-1.974-1.574-1.645-3.347 0.086-11.259 3.09-17.338 4.063-8.226 8.655-13.09 11.874-13.562 0.686-0.1 1.316 0 1.859 0.315" fill="none" stroke="#282b34" stroke-linecap="round" stroke-linejoin="round" stroke-miterlimit="10" stroke-width="1.431"/>
    </g>
    <g transform="translate(474.63 478.37)">
     <path d="m0 0c-4.005-8.651-10.348-14.231-14.168-12.463s-3.671 10.215 0.334 18.866c4.004 8.652 10.347 14.232 14.167 12.464 3.821-1.769 3.671-10.216-0.333-18.867z" fill="none" stroke="#282b34" stroke-linecap="round" stroke-linejoin="round" stroke-miterlimit="10" stroke-width="2.861"/>
    </g>
    <g transform="translate(475.84 496.64)">
     <path d="m0 0c2.89-2.589 2.475-10.357-1.202-18.282-3.862-8.326-9.899-13.82-13.747-12.618 3.204 0.472 7.811 5.336 11.873 13.562 3.005 6.08 4.736 14.005 3.076 17.338" fill="#1d5f8d"/>
    </g>
    <g transform="translate(460.8 484.77)">
     <path d="m0 0c4.006 8.655 10.343 14.234 14.163 12.46 0.315-0.143 0.615-0.343 0.872-0.586 1.66-3.333-0.071-11.259-3.076-17.339-4.062-8.225-8.668-13.089-11.873-13.561-0.143 0.043-0.286 0.1-0.415 0.157-3.834 1.774-3.676 10.214 0.329 18.869" fill="#2887bc"/>
    </g>
    <g transform="translate(473.88 498.2)">
     <path d="m0 0c0.901-0.143 1.545-0.701 1.959-1.56 1.66-3.333-0.071-11.258-3.075-17.338-4.063-8.226-8.669-13.089-11.874-13.561-0.686-0.101-1.316 0-1.859 0.314" fill="none" stroke="#282b34" stroke-linecap="round" stroke-linejoin="round" stroke-miterlimit="10" stroke-width="1.431"/>
    </g>
    <g transform="translate(443.83 415.65)">
     <path d="m0 0c-0.828 0-3.042-4.243-3.042-5.405s4.335 4.704 5.218 4.226" fill="#44aef2" stroke="#282b34" stroke-linecap="round" stroke-linejoin="round" stroke-miterlimit="10" stroke-width="1.431"/>
    </g>
    <g transform="translate(465.57 403.05)">
     <path d="m0 0c-0.189-1.03 0.617-5.793 0.962-6.294 0.768 0.933 1.22 5.795 2.778 6.87" fill="#44aef2" stroke="#282b34" stroke-linecap="round" stroke-linejoin="round" stroke-miterlimit="10" stroke-width="1.431"/>
    </g>
    <g transform="translate(481.4 411.26)">
     <path d="m0 0c0.657-0.815 2.216-5.388 2.151-5.993-1.12 0.455-3.833 4.515-5.714 4.719" fill="#44aef2" stroke="#282b34" stroke-linecap="round" stroke-linejoin="round" stroke-miterlimit="10" stroke-width="1.431"/>
    </g>
    <g transform="translate(478.53 424.47)">
     <path d="m0 0c-1.177-2.255-3.396-1.05-3.396-1.05s-18.17 8.356-19.288 9.474 1.118 2.267 3.422 2.267l17.595-8.785s2.29-1.081 1.667-1.906" fill="#44aef2"/>
    </g>
    <g transform="translate(478.53 424.47)">
     <path d="m0 0c-1.177-2.255-3.396-1.05-3.396-1.05s-18.17 8.356-19.288 9.474 1.118 2.267 3.422 2.267l17.595-8.785s2.29-1.081 1.667-1.906z" fill="none" stroke="#282b34" stroke-linecap="round" stroke-linejoin="round" stroke-miterlimit="10" stroke-width="1.431"/>
    </g>
    <g transform="translate(440.4 416.88)">
     <path d="m0 0s-8.322 21.411-9.424 24.02c-1.169 2.768-1.171 3.795 0.953 4.831l15.663 7.695c2.792 1.468 3.635-0.948 4.594-3.776 1.084-3.196 7.746-21.74 7.746-21.74l27.845-14.636c2.912-1.136 1.806-3.112 1.015-3.551-0.791-0.44-7.185-4.435-11.875-6.768-2.634-1.31-4.023-3.223-7.067-1.701-3.043 1.521-5.066 2.418-5.066 2.418l-24.384 13.208" fill="#44aef2" stroke="#282b34" stroke-linecap="round" stroke-linejoin="round" stroke-miterlimit="10" stroke-width="1.431"/>
    </g>
    <g transform="translate(459.96 427.28)">
     <path d="m0 0-18.417-10.4" fill="none" stroke="#282b34" stroke-linecap="round" stroke-linejoin="round" stroke-miterlimit="10" stroke-width="1.431"/>
    </g>
    <g transform="translate(457.87 413.74)">
     <path d="m0 0c-1.176-2.255-3.396-1.05-3.396-1.05s-18.169 8.356-19.288 9.474c-1.118 1.118 1.119 2.267 3.422 2.267l17.595-8.785s2.29-1.081 1.667-1.906" fill="#44aef2"/>
    </g>
    <g transform="translate(457.87 413.74)">
     <path d="m0 0c-1.176-2.255-3.396-1.05-3.396-1.05s-18.169 8.356-19.288 9.474c-1.118 1.118 1.119 2.267 3.422 2.267l17.595-8.785s2.29-1.081 1.667-1.906z" fill="none" stroke="#282b34" stroke-linecap="round" stroke-linejoin="round" stroke-miterlimit="10" stroke-width="1.431"/>
    </g>
    <g transform="translate(487.91 428.99)">
     <path d="m0 0c-0.828 0-3.042-4.243-3.042-5.405s4.336 4.704 5.218 4.226" fill="#44aef2" stroke="#282b34" stroke-linecap="round" stroke-linejoin="round" stroke-miterlimit="10" stroke-width="1.431"/>
    </g>
    <g transform="translate(509.65 416.39)">
     <path d="m0 0c-0.189-1.03 0.617-5.793 0.962-6.294 0.768 0.933 1.221 5.795 2.778 6.87" fill="#44aef2" stroke="#282b34" stroke-linecap="round" stroke-linejoin="round" stroke-miterlimit="10" stroke-width="1.431"/>
    </g>
    <g transform="translate(525.48 424.6)">
     <path d="m0 0c0.657-0.815 2.216-5.388 2.151-5.993-1.12 0.455-3.833 4.515-5.714 4.719" fill="#44aef2" stroke="#282b34" stroke-linecap="round" stroke-linejoin="round" stroke-miterlimit="10" stroke-width="1.431"/>
    </g>
    <g transform="translate(522.61 437.8)">
     <path d="m0 0c-1.176-2.255-3.396-1.05-3.396-1.05s-18.169 8.356-19.288 9.474c-1.118 1.118 1.119 2.267 3.422 2.267l17.595-8.785s2.29-1.081 1.667-1.906" fill="#44aef2"/>
    </g>
    <g transform="translate(522.61 437.8)">
     <path d="m0 0c-1.176-2.255-3.396-1.05-3.396-1.05s-18.169 8.356-19.288 9.474c-1.118 1.118 1.119 2.267 3.422 2.267l17.595-8.785s2.29-1.081 1.667-1.906z" fill="none" stroke="#282b34" stroke-linecap="round" stroke-linejoin="round" stroke-miterlimit="10" stroke-width="1.431"/>
    </g>
    <g transform="translate(484.48 430.22)">
     <path d="m0 0s-8.322 21.411-9.424 24.02c-1.169 2.768-1.171 3.795 0.952 4.831l15.664 7.695c2.791 1.468 3.635-0.948 4.594-3.776 1.084-3.196 7.746-21.74 7.746-21.74l27.845-14.636c2.911-1.136 1.805-3.112 1.014-3.551-0.79-0.44-7.184-4.435-11.874-6.768-2.634-1.311-4.024-3.223-7.067-1.701-3.044 1.521-5.066 2.418-5.066 2.418l-24.384 13.208" fill="#44aef2" stroke="#282b34" stroke-linecap="round" stroke-linejoin="round" stroke-miterlimit="10" stroke-width="1.431"/>
    </g>
    <g transform="translate(504.05 440.62)">
     <path d="m0 0-18.417-10.4" fill="none" stroke="#282b34" stroke-linecap="round" stroke-linejoin="round" stroke-miterlimit="10" stroke-width="1.431"/>
    </g>
    <g transform="translate(501.95 427.08)">
     <path d="m0 0c-1.176-2.255-3.396-1.05-3.396-1.05s-18.169 8.356-19.288 9.474c-1.118 1.118 1.119 2.267 3.422 2.267l17.595-8.785s2.29-1.081 1.667-1.906" fill="#44aef2"/>
    </g>
    <g transform="translate(501.95 427.08)">
     <path d="m0 0c-1.176-2.255-3.396-1.05-3.396-1.05s-18.169 8.356-19.288 9.474c-1.118 1.118 1.119 2.267 3.422 2.267l17.595-8.785s2.29-1.081 1.667-1.906z" fill="none" stroke="#282b34" stroke-linecap="round" stroke-linejoin="round" stroke-miterlimit="10" stroke-width="1.431"/>
    </g>
    <g transform="translate(463.63 232.35)">
     <path d="m0 0c2.374 2.022 9.537 3.584 10.179 6.16-2.423 1.511-5.365 1.76-8.158 1.492-3.002-0.288-5.167-2.534-7.905-3.171 1.71 2.471 4.98 6.787 4.655 9.988-0.091 0.888-0.788 1.512-1.708 1.301-1.703-0.393-3.177-1.389-4.594-2.387-0.945-0.666-1.809-1.665-2.799-2.273-1.203-1.999-1.193-1.756 0.029 0.729 0.567 1.453 1.25 2.85 2.051 4.19 1.045 2.06 5.169 7.144 2.103 9.355-2.714 1.957-8.373-1.759-10.534-3.079-0.939-0.573-1.955-1.605-2.975-2.175 0.552 1.464 1.104 2.927 1.657 4.391 1.089 2.303 3.166 4.361 3.049 7.017-0.021 0.476-0.357 1.093-0.888 1.168-6.987 0.984-12.614-6.298-18.016-10.273 0.54 3.942 2.961 7.696 2.352 11.607-0.121 0.772-1.064 0.942-1.641 0.668-2.989-1.426-5.506-3.748-7.7-6.203-0.617-0.692-3.839-4.926-3.819-4.932-0.015 4e-3 0.092 4.199 0.093 4.216 0.284 4.957 1.34 10.336 2.978 15.041 0.661 1.899 1.712 3.39 1.435 5.399-0.089 0.646-0.943 0.854-1.429 0.582-4.253-2.389-5.702-7.21-8.986-10.465-0.565-0.561-0.748-1.001-0.799-1.258-0.03 0.196-0.115 0.513-0.336 0.992-0.745 1.617-0.202 4.439-0.291 6.27-0.115 2.393 0.057 4.995-0.861 7.239-0.211 0.514-0.633 0.804-1.205 0.683-6.063-1.271-5.02-9.943-5.323-15.478-2.842 4.027-8.04 9.984-12.03 6.633-0.349-0.292-0.305-0.78-0.148-1.146 1.284-3.008 2.682-5.858 4.48-8.557 0.555-0.832 3.565-6.031 0.602-5.459-1.185 0.228-3.239 3.755-4.286 4.578-1.39 1.095-3.523 2.297-5.415 1.74-1.449-0.428-1.696-0.421-0.905-2.164 1.203-2.653 5.517-4.445 7.322-6.801 0.668-0.871 1.202-1.887 1.687-2.87 0.797-1.615 2.975-10.763 5.597-9.666 2.436 1.02 0.076 7.501 0.667 9.418 1.211 3.929 4.499-5.45 4.816-6.88 0.395-1.777 0.894-5.507 3.626-4.308 1.059 0.463 1.705 2.932 3.067 2.713 0.894-0.143 1.286-2.344 1.511-3.023 0.5-1.507 0.503-1.585 1.474-2.362 0.477-0.382 0.995 0.026 1.574-0.582 0.765-0.802 0.18-2.141 1.398-2.579 1.554-0.56 3.909 1.986 5.061 2.676 1.489 0.892 6.452 3.464 8.148 2.277 1.707-1.196-1.36-4.536-1.93-6.309-1.42-4.414 3.264-3.364 6.355-4.154 1.062-0.273 2.495-0.515 2.947-1.573 0.644-1.507-0.422-3.172 0.82-4.509 0.795-0.857 2.803-1.569 3.809-2.261 3.529-2.43 6.962-0.366 10.767-1.413 1.706-0.47 2.715-1.739 4.709-1.495 1.684 0.206 2.856 1.534 4.622 1.501 1.396-0.027 2.778-0.538 4.121 0.129 1.891 0.94 2.07 3.619 0.677 5.234-2.005 2.324-9.809 0.286-5.999 4.193 0.074 0.076 0.155 0.151 0.242 0.225" fill="#0fb46f"/>
    </g>
   </g>
  </g>
 </g>
</svg>
